<?xml version="1.0" encoding="UTF-8" standalone="no"?>
<!DOCTYPE svg PUBLIC "-//W3C//DTD SVG 1.1//EN"
 "http://www.w3.org/Graphics/SVG/1.1/DTD/svg11.dtd">
<!-- Generated by graphviz version 14.1.4 (20260321.0153)
 -->
<!-- Title: OrganizationalArchitecture Pages: 1 -->
<svg width="975pt" height="405pt"
 viewBox="0.00 0.00 975.00 405.00" xmlns="http://www.w3.org/2000/svg" xmlns:xlink="http://www.w3.org/1999/xlink">
<g id="graph0" class="graph" transform="scale(1 1) rotate(0) translate(21.6 383.32)">
<title>OrganizationalArchitecture</title>
<polygon fill="white" stroke="none" points="-21.6,21.6 -21.6,-383.32 953.87,-383.32 953.87,21.6 -21.6,21.6"/>
<g id="clust1" class="cluster">
<title>cluster_asada</title>
<path fill="#e67e22" stroke="#a04000" stroke-width="3" d="M290.26,-8C290.26,-8 699.26,-8 699.26,-8 705.26,-8 711.26,-14 711.26,-20 711.26,-20 711.26,-260.7 711.26,-260.7 711.26,-266.7 705.26,-272.7 699.26,-272.7 699.26,-272.7 290.26,-272.7 290.26,-272.7 284.26,-272.7 278.26,-266.7 278.26,-260.7 278.26,-260.7 278.26,-20 278.26,-20 278.26,-14 284.26,-8 290.26,-8"/>
<text xml:space="preserve" text-anchor="middle" x="494.76" y="-256.35" font-family="Helvetica,sans-Serif" font-size="13.00">ASADA Paso Ancho Employee</text>
</g>
<g id="clust2" class="cluster">
<title>cluster_external</title>
<path fill="#eafaf1" stroke="#27ae60" stroke-width="3" d="M731.26,-99.4C731.26,-99.4 912.26,-99.4 912.26,-99.4 918.26,-99.4 924.26,-105.4 924.26,-111.4 924.26,-111.4 924.26,-169.3 924.26,-169.3 924.26,-175.3 918.26,-181.3 912.26,-181.3 912.26,-181.3 731.26,-181.3 731.26,-181.3 725.26,-181.3 719.26,-175.3 719.26,-169.3 719.26,-169.3 719.26,-111.4 719.26,-111.4 719.26,-105.4 725.26,-99.4 731.26,-99.4"/>
<text xml:space="preserve" text-anchor="middle" x="821.76" y="-164.95" font-family="Helvetica,sans-Serif" font-size="13.00">External Data Aggregators (OE)</text>
</g>
<!-- A6 -->
<g id="node1" class="node">
<title>A6</title>
<path fill="#f9e79f" stroke="#b7950b" stroke-width="2" d="M691.31,-243.2C691.31,-243.2 599.22,-243.2 599.22,-243.2 593.22,-243.2 587.22,-237.2 587.22,-231.2 587.22,-231.2 587.22,-210.8 587.22,-210.8 587.22,-204.8 593.22,-198.8 599.22,-198.8 599.22,-198.8 691.31,-198.8 691.31,-198.8 697.31,-198.8 703.31,-204.8 703.31,-210.8 703.31,-210.8 703.31,-231.2 703.31,-231.2 703.31,-237.2 697.31,-243.2 691.31,-243.2"/>
<text xml:space="preserve" text-anchor="middle" x="645.26" y="-222.7" font-family="Helvetica,sans-Serif" font-size="14.00">Share data with</text>
<text xml:space="preserve" text-anchor="middle" x="645.26" y="-207.7" font-family="Helvetica,sans-Serif" font-size="14.00">external entities</text>
</g>
<!-- E1 -->
<g id="node7" class="node">
<title>E1</title>
<path fill="#f9e79f" stroke="#b7950b" stroke-width="2" d="M822.81,-151.8C822.81,-151.8 739.72,-151.8 739.72,-151.8 733.72,-151.8 727.72,-145.8 727.72,-139.8 727.72,-139.8 727.72,-119.4 727.72,-119.4 727.72,-113.4 733.72,-107.4 739.72,-107.4 739.72,-107.4 822.81,-107.4 822.81,-107.4 828.81,-107.4 834.81,-113.4 834.81,-119.4 834.81,-119.4 834.81,-139.8 834.81,-139.8 834.81,-145.8 828.81,-151.8 822.81,-151.8"/>
<text xml:space="preserve" text-anchor="middle" x="781.26" y="-131.3" font-family="Helvetica,sans-Serif" font-size="14.00">Receive</text>
<text xml:space="preserve" text-anchor="middle" x="781.26" y="-116.3" font-family="Helvetica,sans-Serif" font-size="14.00">aqueduct data</text>
</g>
<!-- A6&#45;&gt;E1 -->
<g id="edge4" class="edge">
<title>A6&#45;&gt;E1</title>
<path fill="none" stroke="#4a4a97" stroke-width="2" d="M704.08,-221C726.55,-221 746.87,-221 746.87,-221 746.87,-221 746.87,-165.69 746.87,-165.69"/>
<polygon fill="#4a4a97" stroke="#4a4a97" stroke-width="2" points="750.37,-165.69 746.87,-155.69 743.37,-165.69 750.37,-165.69"/>
<text xml:space="preserve" text-anchor="middle" x="779.5" y="-216.49" font-family="Helvetica,sans-Serif" font-size="10.00">Shareable data</text>
</g>
<!-- A3 -->
<g id="node2" class="node">
<title>A3</title>
<path fill="#f9e79f" stroke="#b7950b" stroke-width="2" d="M356.44,-243.2C356.44,-243.2 298.09,-243.2 298.09,-243.2 292.09,-243.2 286.09,-237.2 286.09,-231.2 286.09,-231.2 286.09,-210.8 286.09,-210.8 286.09,-204.8 292.09,-198.8 298.09,-198.8 298.09,-198.8 356.44,-198.8 356.44,-198.8 362.44,-198.8 368.44,-204.8 368.44,-210.8 368.44,-210.8 368.44,-231.2 368.44,-231.2 368.44,-237.2 362.44,-243.2 356.44,-243.2"/>
<text xml:space="preserve" text-anchor="middle" x="327.26" y="-222.7" font-family="Helvetica,sans-Serif" font-size="14.00">Monitor</text>
<text xml:space="preserve" text-anchor="middle" x="327.26" y="-207.7" font-family="Helvetica,sans-Serif" font-size="14.00">water loss</text>
</g>
<!-- A4 -->
<g id="node3" class="node">
<title>A4</title>
<path fill="#f9e79f" stroke="#b7950b" stroke-width="2" d="M424.56,-151.8C424.56,-151.8 297.96,-151.8 297.96,-151.8 291.96,-151.8 285.96,-145.8 285.96,-139.8 285.96,-139.8 285.96,-119.4 285.96,-119.4 285.96,-113.4 291.96,-107.4 297.96,-107.4 297.96,-107.4 424.56,-107.4 424.56,-107.4 430.56,-107.4 436.56,-113.4 436.56,-119.4 436.56,-119.4 436.56,-139.8 436.56,-139.8 436.56,-145.8 430.56,-151.8 424.56,-151.8"/>
<text xml:space="preserve" text-anchor="middle" x="361.26" y="-131.3" font-family="Helvetica,sans-Serif" font-size="14.00">Implement water loss</text>
<text xml:space="preserve" text-anchor="middle" x="361.26" y="-116.3" font-family="Helvetica,sans-Serif" font-size="14.00">mitigation strategy</text>
</g>
<!-- A3&#45;&gt;A4 -->
<g id="edge1" class="edge">
<title>A3&#45;&gt;A4</title>
<path fill="none" stroke="#4a4a97" stroke-width="2" d="M327.26,-197.94C327.26,-197.94 327.26,-165.68 327.26,-165.68"/>
<polygon fill="#4a4a97" stroke="#4a4a97" stroke-width="2" points="330.77,-165.68 327.27,-155.68 323.77,-165.68 330.77,-165.68"/>
<text xml:space="preserve" text-anchor="middle" x="293.14" y="-183.56" font-family="Helvetica,sans-Serif" font-size="10.00">Water loss data</text>
</g>
<!-- A10 -->
<g id="node4" class="node">
<title>A10</title>
<path fill="#f9e79f" stroke="#b7950b" stroke-width="2" d="M539.69,-243.2C539.69,-243.2 416.84,-243.2 416.84,-243.2 410.84,-243.2 404.84,-237.2 404.84,-231.2 404.84,-231.2 404.84,-210.8 404.84,-210.8 404.84,-204.8 410.84,-198.8 416.84,-198.8 416.84,-198.8 539.69,-198.8 539.69,-198.8 545.69,-198.8 551.69,-204.8 551.69,-210.8 551.69,-210.8 551.69,-231.2 551.69,-231.2 551.69,-237.2 545.69,-243.2 539.69,-243.2"/>
<text xml:space="preserve" text-anchor="middle" x="478.26" y="-222.7" font-family="Helvetica,sans-Serif" font-size="14.00">Monitor water supply</text>
<text xml:space="preserve" text-anchor="middle" x="478.26" y="-207.7" font-family="Helvetica,sans-Serif" font-size="14.00">and demand (S/D)</text>
</g>
<!-- A11 -->
<g id="node5" class="node">
<title>A11</title>
<path fill="#f9e79f" stroke="#b7950b" stroke-width="2" d="M600.31,-151.8C600.31,-151.8 484.21,-151.8 484.21,-151.8 478.21,-151.8 472.21,-145.8 472.21,-139.8 472.21,-139.8 472.21,-119.4 472.21,-119.4 472.21,-113.4 478.21,-107.4 484.21,-107.4 484.21,-107.4 600.31,-107.4 600.31,-107.4 606.31,-107.4 612.31,-113.4 612.31,-119.4 612.31,-119.4 612.31,-139.8 612.31,-139.8 612.31,-145.8 606.31,-151.8 600.31,-151.8"/>
<text xml:space="preserve" text-anchor="middle" x="542.26" y="-131.3" font-family="Helvetica,sans-Serif" font-size="14.00">Predict water</text>
<text xml:space="preserve" text-anchor="middle" x="542.26" y="-116.3" font-family="Helvetica,sans-Serif" font-size="14.00">supply and demand</text>
</g>
<!-- A10&#45;&gt;A11 -->
<g id="edge2" class="edge">
<title>A10&#45;&gt;A11</title>
<path fill="none" stroke="#4a4a97" stroke-width="2" d="M511.95,-197.94C511.95,-197.94 511.95,-165.68 511.95,-165.68"/>
<polygon fill="#4a4a97" stroke="#4a4a97" stroke-width="2" points="515.45,-165.68 511.95,-155.68 508.45,-165.68 515.45,-165.68"/>
<text xml:space="preserve" text-anchor="middle" x="492.45" y="-183.56" font-family="Helvetica,sans-Serif" font-size="10.00">S/D data</text>
</g>
<!-- A12 -->
<g id="node6" class="node">
<title>A12</title>
<path fill="#f9e79f" stroke="#b7950b" stroke-width="2" d="M590.19,-60.4C590.19,-60.4 494.34,-60.4 494.34,-60.4 488.34,-60.4 482.34,-54.4 482.34,-48.4 482.34,-48.4 482.34,-28 482.34,-28 482.34,-22 488.34,-16 494.34,-16 494.34,-16 590.19,-16 590.19,-16 596.19,-16 602.19,-22 602.19,-28 602.19,-28 602.19,-48.4 602.19,-48.4 602.19,-54.4 596.19,-60.4 590.19,-60.4"/>
<text xml:space="preserve" text-anchor="middle" x="542.26" y="-39.9" font-family="Helvetica,sans-Serif" font-size="14.00">Define water</text>
<text xml:space="preserve" text-anchor="middle" x="542.26" y="-24.9" font-family="Helvetica,sans-Serif" font-size="14.00">distribution rules</text>
</g>
<!-- A11&#45;&gt;A12 -->
<g id="edge3" class="edge">
<title>A11&#45;&gt;A12</title>
<path fill="none" stroke="#4a4a97" stroke-width="2" d="M542.26,-106.54C542.26,-106.54 542.26,-74.28 542.26,-74.28"/>
<polygon fill="#4a4a97" stroke="#4a4a97" stroke-width="2" points="545.77,-74.28 542.27,-64.28 538.77,-74.28 545.77,-74.28"/>
<text xml:space="preserve" text-anchor="middle" x="514.51" y="-92.16" font-family="Helvetica,sans-Serif" font-size="10.00">S/D forecast</text>
</g>
<!-- C1 -->
<g id="node8" class="node">
<title>C1</title>
<polygon fill="#fcf3cf" stroke="#d4ac0d" stroke-width="1.5" points="766.03,-361.72 626.5,-361.72 626.5,-290.2 766.03,-290.2 766.03,-361.72"/>
<text xml:space="preserve" text-anchor="middle" x="696.26" y="-342.66" font-family="Helvetica,sans-Serif" font-size="14.00">{c}</text>
<text xml:space="preserve" text-anchor="middle" x="696.26" y="-327.66" font-family="Helvetica,sans-Serif" font-size="14.00">Share water quality,</text>
<text xml:space="preserve" text-anchor="middle" x="696.26" y="-312.66" font-family="Helvetica,sans-Serif" font-size="14.00">infrastructure status,</text>
<text xml:space="preserve" text-anchor="middle" x="696.26" y="-297.66" font-family="Helvetica,sans-Serif" font-size="14.00">operational data</text>
</g>
<!-- C1&#45;&gt;A6 -->
<g id="edge5" class="edge">
<title>C1&#45;&gt;A6</title>
<path fill="none" stroke="#b7950b" stroke-width="1.5" stroke-dasharray="1,5" d="M664.91,-289.54C664.91,-289.54 664.91,-256.17 664.91,-256.17"/>
<polygon fill="#b7950b" stroke="#b7950b" stroke-width="1.5" points="668.41,-256.17 664.91,-246.17 661.41,-256.17 668.41,-256.17"/>
</g>
<!-- C2 -->
<g id="node9" class="node">
<title>C2</title>
<polygon fill="#fcf3cf" stroke="#d4ac0d" stroke-width="1.5" points="399.9,-354.22 184.62,-354.22 184.62,-297.7 399.9,-297.7 399.9,-354.22"/>
<text xml:space="preserve" text-anchor="middle" x="292.26" y="-335.16" font-family="Helvetica,sans-Serif" font-size="14.00">{c}</text>
<text xml:space="preserve" text-anchor="middle" x="292.26" y="-320.16" font-family="Helvetica,sans-Serif" font-size="14.00">Detect discrete water loss events</text>
<text xml:space="preserve" text-anchor="middle" x="292.26" y="-305.16" font-family="Helvetica,sans-Serif" font-size="14.00">(tank overflow, pipe burst)</text>
</g>
<!-- C2&#45;&gt;A3 -->
<g id="edge6" class="edge">
<title>C2&#45;&gt;A3</title>
<path fill="none" stroke="#b7950b" stroke-width="1.5" stroke-dasharray="1,5" d="M327.26,-297C327.26,-297 327.26,-256.15 327.26,-256.15"/>
<polygon fill="#b7950b" stroke="#b7950b" stroke-width="1.5" points="330.77,-256.15 327.27,-246.15 323.77,-256.15 330.77,-256.15"/>
</g>
<!-- C3 -->
<g id="node10" class="node">
<title>C3</title>
<polygon fill="#fcf3cf" stroke="#d4ac0d" stroke-width="1.5" points="148.53,-346.72 0,-346.72 0,-305.2 148.53,-305.2 148.53,-346.72"/>
<text xml:space="preserve" text-anchor="middle" x="74.26" y="-327.66" font-family="Helvetica,sans-Serif" font-size="14.00">{c}</text>
<text xml:space="preserve" text-anchor="middle" x="74.26" y="-312.66" font-family="Helvetica,sans-Serif" font-size="14.00">Real&#45;time and remote</text>
</g>
<!-- C3&#45;&gt;A3 -->
<g id="edge7" class="edge">
<title>C3&#45;&gt;A3</title>
<path fill="none" stroke="#b7950b" stroke-width="1.5" stroke-dasharray="1,5" d="M74.26,-304.47C74.26,-273.76 74.26,-221 74.26,-221 74.26,-221 272.93,-221 272.93,-221"/>
<polygon fill="#b7950b" stroke="#b7950b" stroke-width="1.5" points="272.93,-224.5 282.93,-221 272.93,-217.5 272.93,-224.5"/>
</g>
<!-- C4 -->
<g id="node11" class="node">
<title>C4</title>
<polygon fill="#fcf3cf" stroke="#d4ac0d" stroke-width="1.5" points="590.15,-354.22 436.38,-354.22 436.38,-297.7 590.15,-297.7 590.15,-354.22"/>
<text xml:space="preserve" text-anchor="middle" x="513.26" y="-335.16" font-family="Helvetica,sans-Serif" font-size="14.00">{c}</text>
<text xml:space="preserve" text-anchor="middle" x="513.26" y="-320.16" font-family="Helvetica,sans-Serif" font-size="14.00">Metrics incl. tank level,</text>
<text xml:space="preserve" text-anchor="middle" x="513.26" y="-305.16" font-family="Helvetica,sans-Serif" font-size="14.00">water volume outflow</text>
</g>
<!-- C4&#45;&gt;A10 -->
<g id="edge8" class="edge">
<title>C4&#45;&gt;A10</title>
<path fill="none" stroke="#b7950b" stroke-width="1.5" stroke-dasharray="1,5" d="M494.03,-297C494.03,-297 494.03,-256.15 494.03,-256.15"/>
<polygon fill="#b7950b" stroke="#b7950b" stroke-width="1.5" points="497.53,-256.15 494.03,-246.15 490.53,-256.15 497.53,-256.15"/>
</g>
</g>
</svg>
