<?xml version="1.0" encoding="UTF-8" standalone="no"?>
<!DOCTYPE svg PUBLIC "-//W3C//DTD SVG 1.1//EN"
 "http://www.w3.org/Graphics/SVG/1.1/DTD/svg11.dtd">
<!-- Generated by graphviz version 14.1.4 (20260321.0153)
 -->
<!-- Title: LogicalArchitectureCE Pages: 1 -->
<svg width="1120pt" height="607pt"
 viewBox="0.00 0.00 1120.00 607.00" xmlns="http://www.w3.org/2000/svg" xmlns:xlink="http://www.w3.org/1999/xlink">
<g id="graph0" class="graph" transform="scale(1 1) rotate(0) translate(14.4 592.92)">
<title>LogicalArchitectureCE</title>
<polygon fill="white" stroke="none" points="-14.4,14.4 -14.4,-592.92 1106.07,-592.92 1106.07,14.4 -14.4,14.4"/>
<g id="clust1" class="cluster">
<title>cluster_system</title>
<path fill="#f0f0f0" stroke="#333333" stroke-width="3" d="M280.4,-8C280.4,-8 610.4,-8 610.4,-8 616.4,-8 622.4,-14 622.4,-20 622.4,-20 622.4,-558.52 622.4,-558.52 622.4,-564.52 616.4,-570.52 610.4,-570.52 610.4,-570.52 280.4,-570.52 280.4,-570.52 274.4,-570.52 268.4,-564.52 268.4,-558.52 268.4,-558.52 268.4,-20 268.4,-20 268.4,-14 274.4,-8 280.4,-8"/>
<text xml:space="preserve" text-anchor="middle" x="445.4" y="-553.22" font-family="Helvetica,sans-Serif" font-size="14.00">System</text>
</g>
<!-- employee -->
<g id="node1" class="node">
<title>employee</title>
<path fill="#e6ffe6" stroke="#009900" stroke-width="2" d="M232.8,-346C232.8,-346 12,-346 12,-346 6,-346 0,-340 0,-334 0,-334 0,-286 0,-286 0,-280 6,-274 12,-274 12,-274 232.8,-274 232.8,-274 238.8,-274 244.8,-280 244.8,-286 244.8,-286 244.8,-334 244.8,-334 244.8,-340 238.8,-346 232.8,-346"/>
<text xml:space="preserve" text-anchor="middle" x="122.4" y="-304.2" font-family="Helvetica,sans-Serif" font-size="14.00">ASADA Paso Ancho Employee (LA)</text>
</g>
<!-- notifier -->
<g id="node5" class="node">
<title>notifier</title>
<path fill="#87ceeb" stroke="#0066cc" stroke-width="3" d="M388.41,-224C388.41,-224 322.38,-224 322.38,-224 316.38,-224 310.38,-218 310.38,-212 310.38,-212 310.38,-200 310.38,-200 310.38,-194 316.38,-188 322.38,-188 322.38,-188 388.41,-188 388.41,-188 394.41,-188 400.41,-194 400.41,-200 400.41,-200 400.41,-212 400.41,-212 400.41,-218 394.41,-224 388.41,-224"/>
<text xml:space="preserve" text-anchor="middle" x="355.4" y="-200.2" font-family="Helvetica,sans-Serif" font-size="14.00">Notifier (LC)</text>
</g>
<!-- employee&#45;&gt;notifier -->
<g id="edge4" class="edge">
<title>employee:se&#45;&gt;notifier:n</title>
<path fill="none" stroke="#4a4a97" stroke-width="2" d="M257.83,-279C257.83,-279 313.88,-279 313.88,-279 313.88,-279 313.88,-237.03 313.88,-237.03"/>
<polygon fill="#4a4a97" stroke="#4a4a97" stroke-width="2" points="257.83,-275.5 247.83,-279 257.83,-282.5 257.83,-275.5"/>
<polygon fill="#4a4a97" stroke="#4a4a97" stroke-width="2" points="317.39,-237.03 313.89,-227.03 310.39,-237.03 317.39,-237.03"/>
<text xml:space="preserve" text-anchor="middle" x="344.72" y="-280.75" font-family="Helvetica,sans-Serif" font-size="10.00">Push / Req/Resp</text>
</g>
<!-- dashboard -->
<g id="node6" class="node">
<title>dashboard</title>
<path fill="#87ceeb" stroke="#0066cc" stroke-width="3" d="M568.04,-224C568.04,-224 478.76,-224 478.76,-224 472.76,-224 466.76,-218 466.76,-212 466.76,-212 466.76,-200 466.76,-200 466.76,-194 472.76,-188 478.76,-188 478.76,-188 568.04,-188 568.04,-188 574.04,-188 580.04,-194 580.04,-200 580.04,-200 580.04,-212 580.04,-212 580.04,-218 574.04,-224 568.04,-224"/>
<text xml:space="preserve" text-anchor="middle" x="523.4" y="-200.2" font-family="Helvetica,sans-Serif" font-size="14.00">Dashboard (LC)</text>
</g>
<!-- employee&#45;&gt;dashboard -->
<!-- event_detection -->
<g id="node9" class="node">
<title>event_detection</title>
<path fill="#87ceeb" stroke="#0066cc" stroke-width="3" d="M465.54,-328C465.54,-328 349.26,-328 349.26,-328 343.26,-328 337.26,-322 337.26,-316 337.26,-316 337.26,-304 337.26,-304 337.26,-298 343.26,-292 349.26,-292 349.26,-292 465.54,-292 465.54,-292 471.54,-292 477.54,-298 477.54,-304 477.54,-304 477.54,-316 477.54,-316 477.54,-322 471.54,-328 465.54,-328"/>
<text xml:space="preserve" text-anchor="middle" x="407.4" y="-304.2" font-family="Helvetica,sans-Serif" font-size="14.00">Event detection (LC)</text>
</g>
<!-- employee&#45;&gt;event_detection -->
<g id="edge3" class="edge">
<title>employee:e&#45;&gt;event_detection:w</title>
<path fill="none" stroke="#4a4a97" stroke-width="2" d="M244.8,-310C244.8,-310 324.23,-310 324.23,-310"/>
<polygon fill="#4a4a97" stroke="#4a4a97" stroke-width="2" points="324.23,-313.5 334.23,-310 324.23,-306.5 324.23,-313.5"/>
<text xml:space="preserve" text-anchor="middle" x="306.64" y="-311.75" font-family="Helvetica,sans-Serif" font-size="10.00">Req/Resp</text>
</g>
<!-- ext_agg -->
<g id="node2" class="node">
<title>ext_agg</title>
<path fill="#e6ffe6" stroke="#009900" stroke-width="2" d="M820.29,-52C820.29,-52 642.51,-52 642.51,-52 636.51,-52 630.51,-46 630.51,-40 630.51,-40 630.51,-28 630.51,-28 630.51,-22 636.51,-16 642.51,-16 642.51,-16 820.29,-16 820.29,-16 826.29,-16 832.29,-22 832.29,-28 832.29,-28 832.29,-40 832.29,-40 832.29,-46 826.29,-52 820.29,-52"/>
<text xml:space="preserve" text-anchor="middle" x="731.4" y="-28.2" font-family="Helvetica,sans-Serif" font-size="14.00">External data aggregators (LA)</text>
</g>
<!-- sensor_octave -->
<g id="node3" class="node">
<title>sensor_octave</title>
<path fill="#e6ffe6" stroke="#009900" stroke-width="2" d="M802.79,-453.52C802.79,-453.52 658.01,-453.52 658.01,-453.52 652.01,-453.52 646.01,-447.52 646.01,-441.52 646.01,-441.52 646.01,-408 646.01,-408 646.01,-402 652.01,-396 658.01,-396 658.01,-396 802.79,-396 802.79,-396 808.79,-396 814.79,-402 814.79,-408 814.79,-408 814.79,-441.52 814.79,-441.52 814.79,-447.52 808.79,-453.52 802.79,-453.52"/>
<text xml:space="preserve" text-anchor="middle" x="730.4" y="-434.46" font-family="Helvetica,sans-Serif" font-size="14.00">Octave Water Meter (LA)</text>
<text xml:space="preserve" text-anchor="middle" x="730.4" y="-403.46" font-family="Helvetica,sans-Serif" font-size="14.00">Measure Water Output</text>
</g>
<!-- sensor_level -->
<g id="node4" class="node">
<title>sensor_level</title>
<path fill="#e6ffe6" stroke="#009900" stroke-width="2" d="M1079.66,-453.52C1079.66,-453.52 859.13,-453.52 859.13,-453.52 853.13,-453.52 847.13,-447.52 847.13,-441.52 847.13,-441.52 847.13,-408 847.13,-408 847.13,-402 853.13,-396 859.13,-396 859.13,-396 1079.66,-396 1079.66,-396 1085.66,-396 1091.66,-402 1091.66,-408 1091.66,-408 1091.66,-441.52 1091.66,-441.52 1091.66,-447.52 1085.66,-453.52 1079.66,-453.52"/>
<text xml:space="preserve" text-anchor="middle" x="969.4" y="-434.46" font-family="Helvetica,sans-Serif" font-size="14.00">Submersible Water Level Sensor (LA)</text>
<text xml:space="preserve" text-anchor="middle" x="969.4" y="-403.46" font-family="Helvetica,sans-Serif" font-size="14.00">Measure Water Level</text>
</g>
<!-- long_term_storage -->
<g id="node7" class="node">
<title>long_term_storage</title>
<path fill="#87ceeb" stroke="#0066cc" stroke-width="3" d="M534.54,-138C534.54,-138 400.26,-138 400.26,-138 394.26,-138 388.26,-132 388.26,-126 388.26,-126 388.26,-114 388.26,-114 388.26,-108 394.26,-102 400.26,-102 400.26,-102 534.54,-102 534.54,-102 540.54,-102 546.54,-108 546.54,-114 546.54,-114 546.54,-126 546.54,-126 546.54,-132 540.54,-138 534.54,-138"/>
<text xml:space="preserve" text-anchor="middle" x="467.4" y="-114.2" font-family="Helvetica,sans-Serif" font-size="14.00">Long&#45;term storage (LC)</text>
</g>
<!-- notifier&#45;&gt;long_term_storage -->
<g id="edge18" class="edge">
<title>notifier&#45;&gt;long_term_storage</title>
<path fill="none" stroke="#4a4a97" stroke-width="2" d="M394.34,-186.91C394.34,-186.91 394.34,-152.36 394.34,-152.36"/>
<polygon fill="#4a4a97" stroke="#4a4a97" stroke-width="2" points="397.84,-152.36 394.34,-142.36 390.84,-152.36 397.84,-152.36"/>
<text xml:space="preserve" text-anchor="middle" x="380.09" y="-171.39" font-family="Helvetica,sans-Serif" font-size="10.00">Queue</text>
</g>
<!-- dashboard&#45;&gt;employee -->
<g id="edge2" class="edge">
<title>dashboard&#45;&gt;employee:ne</title>
<path fill="none" stroke="#4a4a97" stroke-width="2" d="M470.35,-225.43C470.35,-248.24 470.35,-283 470.35,-283 470.35,-283 257.83,-283 257.83,-283"/>
<polygon fill="#4a4a97" stroke="#4a4a97" stroke-width="2" points="257.83,-279.5 247.83,-283 257.83,-286.5 257.83,-279.5"/>
<text xml:space="preserve" text-anchor="middle" x="401.5" y="-273.5" font-family="Helvetica,sans-Serif" font-size="10.00">C/S</text>
</g>
<!-- dashboard&#45;&gt;long_term_storage -->
<g id="edge8" class="edge">
<title>dashboard&#45;&gt;long_term_storage</title>
<path fill="none" stroke="#4a4a97" stroke-width="2" d="M506.65,-186.91C506.65,-186.91 506.65,-152.36 506.65,-152.36"/>
<polygon fill="#4a4a97" stroke="#4a4a97" stroke-width="2" points="510.15,-152.36 506.65,-142.36 503.15,-152.36 510.15,-152.36"/>
<text xml:space="preserve" text-anchor="middle" x="484.52" y="-171.39" font-family="Helvetica,sans-Serif" font-size="10.00">Req/Resp</text>
</g>
<!-- long_term_storage&#45;&gt;ext_agg -->
<g id="edge5" class="edge">
<title>long_term_storage&#45;&gt;ext_agg</title>
<path fill="none" stroke="#4a4a97" stroke-width="2" d="M547.83,-114C592.14,-114 638.26,-114 638.26,-114 638.26,-114 638.26,-65.99 638.26,-65.99"/>
<polygon fill="#4a4a97" stroke="#4a4a97" stroke-width="2" points="641.76,-65.99 638.26,-55.99 634.76,-65.99 641.76,-65.99"/>
<text xml:space="preserve" text-anchor="middle" x="602.8" y="-115.75" font-family="Helvetica,sans-Serif" font-size="10.00">Export</text>
</g>
<!-- data_processing -->
<g id="node8" class="node">
<title>data_processing</title>
<path fill="#87ceeb" stroke="#0066cc" stroke-width="3" d="M472.54,-52C472.54,-52 350.26,-52 350.26,-52 344.26,-52 338.26,-46 338.26,-40 338.26,-40 338.26,-28 338.26,-28 338.26,-22 344.26,-16 350.26,-16 350.26,-16 472.54,-16 472.54,-16 478.54,-16 484.54,-22 484.54,-28 484.54,-28 484.54,-40 484.54,-40 484.54,-46 478.54,-52 472.54,-52"/>
<text xml:space="preserve" text-anchor="middle" x="411.4" y="-28.2" font-family="Helvetica,sans-Serif" font-size="14.00">Data Processing (LC)</text>
</g>
<!-- long_term_storage&#45;&gt;data_processing -->
<g id="edge9" class="edge">
<title>long_term_storage&#45;&gt;data_processing</title>
<path fill="none" stroke="#4a4a97" stroke-width="2" d="M452.45,-100.91C452.45,-100.91 452.45,-66.36 452.45,-66.36"/>
<polygon fill="#4a4a97" stroke="#4a4a97" stroke-width="2" points="455.95,-66.36 452.45,-56.36 448.95,-66.36 455.95,-66.36"/>
<text xml:space="preserve" text-anchor="middle" x="430.32" y="-85.39" font-family="Helvetica,sans-Serif" font-size="10.00">Req/Resp</text>
</g>
<!-- data_processing&#45;&gt;notifier -->
<g id="edge7" class="edge">
<title>data_processing&#45;&gt;notifier</title>
<path fill="none" stroke="#4a4a97" stroke-width="2" d="M363.26,-53.4C363.26,-53.4 363.26,-173.65 363.26,-173.65"/>
<polygon fill="#4a4a97" stroke="#4a4a97" stroke-width="2" points="359.76,-173.65 363.26,-183.65 366.76,-173.65 359.76,-173.65"/>
<text xml:space="preserve" text-anchor="middle" x="344.51" y="-115.27" font-family="Helvetica,sans-Serif" font-size="10.00">Pub/Sub</text>
</g>
<!-- data_processing&#45;&gt;long_term_storage -->
<g id="edge16" class="edge">
<title>data_processing&#45;&gt;long_term_storage</title>
<path fill="none" stroke="#4a4a97" stroke-width="2" d="M420.35,-53.09C420.35,-53.09 420.35,-87.64 420.35,-87.64"/>
<polygon fill="#4a4a97" stroke="#4a4a97" stroke-width="2" points="416.85,-87.64 420.35,-97.64 423.85,-87.64 416.85,-87.64"/>
<text xml:space="preserve" text-anchor="middle" x="406.1" y="-72.11" font-family="Helvetica,sans-Serif" font-size="10.00">Queue</text>
</g>
<!-- event_detection&#45;&gt;notifier -->
<g id="edge6" class="edge">
<title>event_detection&#45;&gt;notifier</title>
<path fill="none" stroke="#4a4a97" stroke-width="2" d="M368.84,-290.92C368.84,-290.92 368.84,-238.33 368.84,-238.33"/>
<polygon fill="#4a4a97" stroke="#4a4a97" stroke-width="2" points="372.34,-238.33 368.84,-228.33 365.34,-238.33 372.34,-238.33"/>
<text xml:space="preserve" text-anchor="middle" x="350.09" y="-266.38" font-family="Helvetica,sans-Serif" font-size="10.00">Pub/Sub</text>
</g>
<!-- event_detection&#45;&gt;long_term_storage -->
<g id="edge17" class="edge">
<title>event_detection&#45;&gt;long_term_storage</title>
<path fill="none" stroke="#4a4a97" stroke-width="2" d="M433.59,-290.74C433.59,-290.74 433.59,-152.34 433.59,-152.34"/>
<polygon fill="#4a4a97" stroke="#4a4a97" stroke-width="2" points="437.09,-152.34 433.59,-142.34 430.09,-152.34 437.09,-152.34"/>
<text xml:space="preserve" text-anchor="middle" x="419.34" y="-223.29" font-family="Helvetica,sans-Serif" font-size="10.00">Queue</text>
</g>
<!-- data_acquisition -->
<g id="node10" class="node">
<title>data_acquisition</title>
<path fill="#87ceeb" stroke="#0066cc" stroke-width="3" d="M602.79,-539.52C602.79,-539.52 482.01,-539.52 482.01,-539.52 476.01,-539.52 470.01,-533.52 470.01,-527.52 470.01,-527.52 470.01,-515.52 470.01,-515.52 470.01,-509.52 476.01,-503.52 482.01,-503.52 482.01,-503.52 602.79,-503.52 602.79,-503.52 608.79,-503.52 614.79,-509.52 614.79,-515.52 614.79,-515.52 614.79,-527.52 614.79,-527.52 614.79,-533.52 608.79,-539.52 602.79,-539.52"/>
<text xml:space="preserve" text-anchor="middle" x="542.4" y="-515.72" font-family="Helvetica,sans-Serif" font-size="14.00">Data Acquisition (LC)</text>
</g>
<!-- data_acquisition&#45;&gt;sensor_octave -->
<g id="edge13" class="edge">
<title>data_acquisition&#45;&gt;sensor_octave</title>
<path fill="none" stroke="#4a4a97" stroke-width="2" d="M603.21,-502.2C603.21,-480.42 603.21,-448 603.21,-448 603.21,-448 632.18,-448 632.18,-448"/>
<polygon fill="#4a4a97" stroke="#4a4a97" stroke-width="2" points="632.18,-451.5 642.18,-448 632.18,-444.5 632.18,-451.5"/>
<text xml:space="preserve" text-anchor="middle" x="585.96" y="-462.37" font-family="Helvetica,sans-Serif" font-size="10.00">Modbus</text>
</g>
<!-- data_acquisition&#45;&gt;sensor_level -->
<g id="edge14" class="edge">
<title>data_acquisition&#45;&gt;sensor_level</title>
<path fill="none" stroke="#4a4a97" stroke-width="2" d="M615.8,-522C737.89,-522 969.4,-522 969.4,-522 969.4,-522 969.4,-467.49 969.4,-467.49"/>
<polygon fill="#4a4a97" stroke="#4a4a97" stroke-width="2" points="972.9,-467.49 969.4,-457.49 965.9,-467.49 972.9,-467.49"/>
<text xml:space="preserve" text-anchor="middle" x="799.98" y="-523.75" font-family="Helvetica,sans-Serif" font-size="10.00">0.5&#45;4.5 V</text>
</g>
<!-- data_acquisition&#45;&gt;long_term_storage -->
<g id="edge15" class="edge">
<title>data_acquisition&#45;&gt;long_term_storage</title>
<path fill="none" stroke="#4a4a97" stroke-width="2" d="M591.62,-502.18C591.62,-422.77 591.62,-126 591.62,-126 591.62,-126 560.85,-126 560.85,-126"/>
<polygon fill="#4a4a97" stroke="#4a4a97" stroke-width="2" points="560.85,-122.5 550.85,-126 560.85,-129.5 560.85,-122.5"/>
<text xml:space="preserve" text-anchor="middle" x="577.37" y="-300.45" font-family="Helvetica,sans-Serif" font-size="10.00">Queue</text>
</g>
<!-- measurement_window -->
<g id="node11" class="node">
<title>measurement_window</title>
<path fill="#87ceeb" stroke="#0066cc" stroke-width="3" d="M485.41,-442.76C485.41,-442.76 329.38,-442.76 329.38,-442.76 323.38,-442.76 317.38,-436.76 317.38,-430.76 317.38,-430.76 317.38,-418.76 317.38,-418.76 317.38,-412.76 323.38,-406.76 329.38,-406.76 329.38,-406.76 485.41,-406.76 485.41,-406.76 491.41,-406.76 497.41,-412.76 497.41,-418.76 497.41,-418.76 497.41,-430.76 497.41,-430.76 497.41,-436.76 491.41,-442.76 485.41,-442.76"/>
<text xml:space="preserve" text-anchor="middle" x="407.4" y="-418.96" font-family="Helvetica,sans-Serif" font-size="14.00">Measurement window (LC)</text>
</g>
<!-- data_acquisition&#45;&gt;measurement_window -->
<g id="edge12" class="edge">
<title>data_acquisition&#45;&gt;measurement_window</title>
<path fill="none" stroke="#4a4a97" stroke-width="2" d="M483.71,-502.4C483.71,-502.4 483.71,-457.2 483.71,-457.2"/>
<polygon fill="#4a4a97" stroke="#4a4a97" stroke-width="2" points="487.21,-457.2 483.71,-447.2 480.21,-457.2 487.21,-457.2"/>
<text xml:space="preserve" text-anchor="middle" x="469.46" y="-481.55" font-family="Helvetica,sans-Serif" font-size="10.00">Queue</text>
</g>
<!-- measurement_window&#45;&gt;data_processing -->
<g id="edge11" class="edge">
<title>measurement_window&#45;&gt;data_processing</title>
<path fill="none" stroke="#4a4a97" stroke-width="2" d="M316.19,-425C294.54,-425 277.59,-425 277.59,-425 277.59,-425 277.59,-34 277.59,-34 277.59,-34 324.03,-34 324.03,-34"/>
<polygon fill="#4a4a97" stroke="#4a4a97" stroke-width="2" points="324.03,-37.5 334.03,-34 324.03,-30.5 324.03,-37.5"/>
<text xml:space="preserve" text-anchor="middle" x="258.84" y="-227.33" font-family="Helvetica,sans-Serif" font-size="10.00">Pub/Sub</text>
</g>
<!-- measurement_window&#45;&gt;event_detection -->
<g id="edge10" class="edge">
<title>measurement_window&#45;&gt;event_detection</title>
<path fill="none" stroke="#4a4a97" stroke-width="2" d="M407.4,-405.29C407.4,-405.29 407.4,-342.21 407.4,-342.21"/>
<polygon fill="#4a4a97" stroke="#4a4a97" stroke-width="2" points="410.9,-342.21 407.4,-332.21 403.9,-342.21 410.9,-342.21"/>
<text xml:space="preserve" text-anchor="middle" x="388.65" y="-375.5" font-family="Helvetica,sans-Serif" font-size="10.00">Pub/Sub</text>
</g>
</g>
</svg>
