<?xml version="1.0" encoding="UTF-8" standalone="no"?>
<!DOCTYPE svg PUBLIC "-//W3C//DTD SVG 1.1//EN"
 "http://www.w3.org/Graphics/SVG/1.1/DTD/svg11.dtd">
<!-- Generated by graphviz version 14.1.4 (20260321.0153)
 -->
<!-- Title: LogicalArchitecture Pages: 1 -->
<svg width="2033pt" height="1023pt"
 viewBox="0.00 0.00 2033.00 1023.00" xmlns="http://www.w3.org/2000/svg" xmlns:xlink="http://www.w3.org/1999/xlink">
<g id="graph0" class="graph" transform="scale(1 1) rotate(0) translate(14.4 1008.4)">
<title>LogicalArchitecture</title>
<polygon fill="white" stroke="none" points="-14.4,14.4 -14.4,-1008.4 2018.26,-1008.4 2018.26,14.4 -14.4,14.4"/>
<g id="clust1" class="cluster">
<title>cluster_rural_aqueduct</title>
<path fill="#f1fff1" stroke="#009900" stroke-width="2" d="M1606.8,-8C1606.8,-8 1967.99,-8 1967.99,-8 1973.99,-8 1979.99,-14 1979.99,-20 1979.99,-20 1979.99,-144 1979.99,-144 1979.99,-150 1973.99,-156 1967.99,-156 1967.99,-156 1606.8,-156 1606.8,-156 1600.8,-156 1594.8,-150 1594.8,-144 1594.8,-144 1594.8,-20 1594.8,-20 1594.8,-14 1600.8,-8 1606.8,-8"/>
<text xml:space="preserve" text-anchor="middle" x="1787.4" y="-138.7" font-family="Helvetica,sans-Serif" font-size="14.00">ASADA Paso Ancho Employee (LA)</text>
</g>
<g id="clust2" class="cluster">
<title>cluster_system</title>
<path fill="#f0f0f0" stroke="#333333" stroke-width="3" d="M281.25,-236C281.25,-236 1983.86,-236 1983.86,-236 1989.86,-236 1995.86,-242 1995.86,-248 1995.86,-248 1995.86,-974 1995.86,-974 1995.86,-980 1989.86,-986 1983.86,-986 1983.86,-986 281.25,-986 281.25,-986 275.25,-986 269.25,-980 269.25,-974 269.25,-974 269.25,-248 269.25,-248 269.25,-242 275.25,-236 281.25,-236"/>
<text xml:space="preserve" text-anchor="middle" x="1132.56" y="-968.7" font-family="Helvetica,sans-Serif" font-size="14.00">System</text>
</g>
<g id="clust3" class="cluster">
<title>cluster_data_acquisition</title>
<path fill="#87ceeb" stroke="#0066cc" stroke-width="3" d="M289.25,-633C289.25,-633 715.31,-633 715.31,-633 721.31,-633 727.31,-639 727.31,-645 727.31,-645 727.31,-762 727.31,-762 727.31,-768 721.31,-774 715.31,-774 715.31,-774 289.25,-774 289.25,-774 283.25,-774 277.25,-768 277.25,-762 277.25,-762 277.25,-645 277.25,-645 277.25,-639 283.25,-633 289.25,-633"/>
<text xml:space="preserve" text-anchor="middle" x="502.28" y="-756.7" font-family="Helvetica,sans-Serif" font-size="14.00">Data Acquisition (LC)</text>
</g>
<g id="clust4" class="cluster">
<title>cluster_data_processing</title>
<path fill="#87ceeb" stroke="#0066cc" stroke-width="3" d="M1147.87,-535C1147.87,-535 1512.43,-535 1512.43,-535 1518.43,-535 1524.43,-541 1524.43,-547 1524.43,-547 1524.43,-731 1524.43,-731 1524.43,-737 1518.43,-743 1512.43,-743 1512.43,-743 1147.87,-743 1147.87,-743 1141.87,-743 1135.87,-737 1135.87,-731 1135.87,-731 1135.87,-547 1135.87,-547 1135.87,-541 1141.87,-535 1147.87,-535"/>
<text xml:space="preserve" text-anchor="middle" x="1330.15" y="-725.7" font-family="Helvetica,sans-Serif" font-size="14.00">Data Processing (LC)</text>
</g>
<g id="clust5" class="cluster">
<title>cluster_event_detection</title>
<path fill="#87ceeb" stroke="#0066cc" stroke-width="3" d="M1178.24,-751C1178.24,-751 1534.18,-751 1534.18,-751 1540.18,-751 1546.18,-757 1546.18,-763 1546.18,-763 1546.18,-933 1546.18,-933 1546.18,-939 1540.18,-945 1534.18,-945 1534.18,-945 1178.24,-945 1178.24,-945 1172.24,-945 1166.24,-939 1166.24,-933 1166.24,-933 1166.24,-763 1166.24,-763 1166.24,-757 1172.24,-751 1178.24,-751"/>
<text xml:space="preserve" text-anchor="middle" x="1356.21" y="-927.7" font-family="Helvetica,sans-Serif" font-size="14.00">Event detection (LC)</text>
</g>
<g id="clust6" class="cluster">
<title>cluster_notifier</title>
<path fill="#87ceeb" stroke="#0066cc" stroke-width="3" d="M1383.9,-379C1383.9,-379 1740.58,-379 1740.58,-379 1746.58,-379 1752.58,-385 1752.58,-391 1752.58,-391 1752.58,-515 1752.58,-515 1752.58,-521 1746.58,-527 1740.58,-527 1740.58,-527 1383.9,-527 1383.9,-527 1377.9,-527 1371.9,-521 1371.9,-515 1371.9,-515 1371.9,-391 1371.9,-391 1371.9,-385 1377.9,-379 1383.9,-379"/>
<text xml:space="preserve" text-anchor="middle" x="1562.24" y="-509.7" font-family="Helvetica,sans-Serif" font-size="14.00">Notifier (LC)</text>
</g>
<g id="clust7" class="cluster">
<title>cluster_dashboard</title>
<path fill="#87ceeb" stroke="#0066cc" stroke-width="3" d="M773.31,-244C773.31,-244 1089.87,-244 1089.87,-244 1095.87,-244 1101.87,-250 1101.87,-256 1101.87,-256 1101.87,-410 1101.87,-410 1101.87,-416 1095.87,-422 1089.87,-422 1089.87,-422 773.31,-422 773.31,-422 767.31,-422 761.31,-416 761.31,-410 761.31,-410 761.31,-256 761.31,-256 761.31,-250 767.31,-244 773.31,-244"/>
<text xml:space="preserve" text-anchor="middle" x="931.59" y="-404.7" font-family="Helvetica,sans-Serif" font-size="14.00">Dashboard (LC)</text>
</g>
<g id="clust8" class="cluster">
<title>cluster_long_term_storage</title>
<path fill="#87ceeb" stroke="#0066cc" stroke-width="3" d="M1821.83,-461C1821.83,-461 1975.86,-461 1975.86,-461 1981.86,-461 1987.86,-467 1987.86,-473 1987.86,-473 1987.86,-791 1987.86,-791 1987.86,-797 1981.86,-803 1975.86,-803 1975.86,-803 1821.83,-803 1821.83,-803 1815.83,-803 1809.83,-797 1809.83,-791 1809.83,-791 1809.83,-473 1809.83,-473 1809.83,-467 1815.83,-461 1821.83,-461"/>
<text xml:space="preserve" text-anchor="middle" x="1898.85" y="-785.7" font-family="Helvetica,sans-Serif" font-size="14.00">Long&#45;term storage (LC)</text>
</g>
<g id="clust9" class="cluster">
<title>cluster_data_export</title>
<path fill="#87ceeb" stroke="#0066cc" stroke-width="3" d="M1604.18,-244C1604.18,-244 1743.96,-244 1743.96,-244 1749.96,-244 1755.96,-250 1755.96,-256 1755.96,-256 1755.96,-313 1755.96,-313 1755.96,-319 1749.96,-325 1743.96,-325 1743.96,-325 1604.18,-325 1604.18,-325 1598.18,-325 1592.18,-319 1592.18,-313 1592.18,-313 1592.18,-256 1592.18,-256 1592.18,-250 1598.18,-244 1604.18,-244"/>
<text xml:space="preserve" text-anchor="middle" x="1674.07" y="-307.7" font-family="Helvetica,sans-Serif" font-size="14.00">Data Export (LC)</text>
</g>
<g id="clust10" class="cluster">
<title>cluster_sensor_octave</title>
<path fill="#f1fff1" stroke="#009900" stroke-width="2" d="M49.88,-663C49.88,-663 193.38,-663 193.38,-663 199.38,-663 205.38,-669 205.38,-675 205.38,-675 205.38,-799 205.38,-799 205.38,-805 199.38,-811 193.38,-811 193.38,-811 49.87,-811 49.87,-811 43.88,-811 37.88,-805 37.88,-799 37.88,-799 37.88,-675 37.88,-675 37.88,-669 43.88,-663 49.88,-663"/>
<text xml:space="preserve" text-anchor="middle" x="121.62" y="-793.7" font-family="Helvetica,sans-Serif" font-size="14.00">Octave Water Meter (LA)</text>
</g>
<g id="clust11" class="cluster">
<title>cluster_sensor_level</title>
<path fill="#f1fff1" stroke="#009900" stroke-width="2" d="M12,-574C12,-574 231.25,-574 231.25,-574 237.25,-574 243.25,-580 243.25,-586 243.25,-586 243.25,-643 243.25,-643 243.25,-649 237.25,-655 231.25,-655 231.25,-655 12,-655 12,-655 6,-655 0,-649 0,-643 0,-643 0,-586 0,-586 0,-580 6,-574 12,-574"/>
<text xml:space="preserve" text-anchor="middle" x="121.62" y="-637.7" font-family="Helvetica,sans-Serif" font-size="14.00">Submersible Water Level Sensor (LA)</text>
</g>
<!-- F_CONSULT_SD -->
<g id="node1" class="node">
<title>F_CONSULT_SD</title>
<path fill="#f9e79f" stroke="#b7950b" stroke-width="2" d="M1733.33,-57.76C1733.33,-57.76 1614.8,-57.76 1614.8,-57.76 1608.8,-57.76 1602.8,-51.76 1602.8,-45.76 1602.8,-45.76 1602.8,-28.24 1602.8,-28.24 1602.8,-22.24 1608.8,-16.24 1614.8,-16.24 1614.8,-16.24 1733.33,-16.24 1733.33,-16.24 1739.33,-16.24 1745.33,-22.24 1745.33,-28.24 1745.33,-28.24 1745.33,-45.76 1745.33,-45.76 1745.33,-51.76 1739.33,-57.76 1733.33,-57.76"/>
<text xml:space="preserve" text-anchor="middle" x="1674.07" y="-38.7" font-family="Helvetica,sans-Serif" font-size="14.00">Consult water supply</text>
<text xml:space="preserve" text-anchor="middle" x="1674.07" y="-23.7" font-family="Helvetica,sans-Serif" font-size="14.00">and demand data</text>
</g>
<!-- F_DEF_DIST -->
<g id="node2" class="node">
<title>F_DEF_DIST</title>
<path fill="#f9e79f" stroke="#b7950b" stroke-width="2" d="M1944.61,-57.76C1944.61,-57.76 1853.08,-57.76 1853.08,-57.76 1847.08,-57.76 1841.08,-51.76 1841.08,-45.76 1841.08,-45.76 1841.08,-28.24 1841.08,-28.24 1841.08,-22.24 1847.08,-16.24 1853.08,-16.24 1853.08,-16.24 1944.61,-16.24 1944.61,-16.24 1950.61,-16.24 1956.61,-22.24 1956.61,-28.24 1956.61,-28.24 1956.61,-45.76 1956.61,-45.76 1956.61,-51.76 1950.61,-57.76 1944.61,-57.76"/>
<text xml:space="preserve" text-anchor="middle" x="1898.85" y="-38.7" font-family="Helvetica,sans-Serif" font-size="14.00">Define water</text>
<text xml:space="preserve" text-anchor="middle" x="1898.85" y="-23.7" font-family="Helvetica,sans-Serif" font-size="14.00">distribution rules</text>
</g>
<!-- F_CONSULT_SD&#45;&gt;F_DEF_DIST -->
<g id="edge47" class="edge">
<title>F_CONSULT_SD&#45;&gt;F_DEF_DIST</title>
<path fill="none" stroke="#4a4a97" stroke-width="2" d="M1746.12,-24.54C1746.12,-24.54 1827.31,-24.54 1827.31,-24.54"/>
<polygon fill="#4a4a97" stroke="#4a4a97" stroke-width="2" points="1827.31,-28.04 1837.31,-24.54 1827.31,-21.04 1827.31,-28.04"/>
<text xml:space="preserve" text-anchor="middle" x="1767.59" y="-15.04" font-family="Helvetica,sans-Serif" font-size="10.00">Decision</text>
</g>
<!-- LF_D_CONF -->
<g id="node19" class="node">
<title>LF_D_CONF</title>
<path fill="#90ee90" stroke="#228b22" stroke-width="2" d="M1054.12,-390.76C1054.12,-390.76 981.34,-390.76 981.34,-390.76 975.34,-390.76 969.34,-384.76 969.34,-378.76 969.34,-378.76 969.34,-361.24 969.34,-361.24 969.34,-355.24 975.34,-349.24 981.34,-349.24 981.34,-349.24 1054.12,-349.24 1054.12,-349.24 1060.12,-349.24 1066.12,-355.24 1066.12,-361.24 1066.12,-361.24 1066.12,-378.76 1066.12,-378.76 1066.12,-384.76 1060.12,-390.76 1054.12,-390.76"/>
<text xml:space="preserve" text-anchor="middle" x="1017.73" y="-371.7" font-family="Helvetica,sans-Serif" font-size="14.00">Manage alert</text>
<text xml:space="preserve" text-anchor="middle" x="1017.73" y="-356.7" font-family="Helvetica,sans-Serif" font-size="14.00">configuration</text>
</g>
<!-- F_DEF_DIST&#45;&gt;LF_D_CONF -->
<g id="edge39" class="edge">
<title>F_DEF_DIST&#45;&gt;LF_D_CONF</title>
<path fill="none" stroke="#4a4a97" stroke-width="2" d="M1840.23,-32.85C1800.34,-32.85 1754.74,-32.85 1754.74,-32.85 1754.74,-32.85 1754.74,-361.91 1754.74,-361.91 1754.74,-361.91 1079.97,-361.91 1079.97,-361.91"/>
<polygon fill="#4a4a97" stroke="#4a4a97" stroke-width="2" points="1079.97,-358.41 1069.97,-361.91 1079.97,-365.41 1079.97,-358.41"/>
<text xml:space="preserve" text-anchor="middle" x="1600.63" y="-352.41" font-family="Helvetica,sans-Serif" font-size="10.00">Dist. alerts</text>
</g>
<!-- F_CONSULT_WL -->
<g id="node3" class="node">
<title>F_CONSULT_WL</title>
<path fill="#f9e79f" stroke="#b7950b" stroke-width="2" d="M1716.08,-124.76C1716.08,-124.76 1632.05,-124.76 1632.05,-124.76 1626.05,-124.76 1620.05,-118.76 1620.05,-112.76 1620.05,-112.76 1620.05,-95.24 1620.05,-95.24 1620.05,-89.24 1626.05,-83.24 1632.05,-83.24 1632.05,-83.24 1716.08,-83.24 1716.08,-83.24 1722.08,-83.24 1728.08,-89.24 1728.08,-95.24 1728.08,-95.24 1728.08,-112.76 1728.08,-112.76 1728.08,-118.76 1722.08,-124.76 1716.08,-124.76"/>
<text xml:space="preserve" text-anchor="middle" x="1674.07" y="-105.7" font-family="Helvetica,sans-Serif" font-size="14.00">Consult</text>
<text xml:space="preserve" text-anchor="middle" x="1674.07" y="-90.7" font-family="Helvetica,sans-Serif" font-size="14.00">water loss data</text>
</g>
<!-- F_IMPL_WL_MIT -->
<g id="node4" class="node">
<title>F_IMPL_WL_MIT</title>
<path fill="#f9e79f" stroke="#b7950b" stroke-width="2" d="M1959.99,-124.76C1959.99,-124.76 1837.71,-124.76 1837.71,-124.76 1831.71,-124.76 1825.71,-118.76 1825.71,-112.76 1825.71,-112.76 1825.71,-95.24 1825.71,-95.24 1825.71,-89.24 1831.71,-83.24 1837.71,-83.24 1837.71,-83.24 1959.99,-83.24 1959.99,-83.24 1965.99,-83.24 1971.99,-89.24 1971.99,-95.24 1971.99,-95.24 1971.99,-112.76 1971.99,-112.76 1971.99,-118.76 1965.99,-124.76 1959.99,-124.76"/>
<text xml:space="preserve" text-anchor="middle" x="1898.85" y="-105.7" font-family="Helvetica,sans-Serif" font-size="14.00">Implement water loss</text>
<text xml:space="preserve" text-anchor="middle" x="1898.85" y="-90.7" font-family="Helvetica,sans-Serif" font-size="14.00">mitigation strategy</text>
</g>
<!-- F_CONSULT_WL&#45;&gt;F_IMPL_WL_MIT -->
<g id="edge48" class="edge">
<title>F_CONSULT_WL&#45;&gt;F_IMPL_WL_MIT</title>
<path fill="none" stroke="#4a4a97" stroke-width="2" d="M1729.06,-91.54C1729.06,-91.54 1811.88,-91.54 1811.88,-91.54"/>
<polygon fill="#4a4a97" stroke="#4a4a97" stroke-width="2" points="1811.88,-95.04 1821.88,-91.54 1811.88,-88.04 1811.88,-95.04"/>
<text xml:space="preserve" text-anchor="middle" x="1751.35" y="-82.04" font-family="Helvetica,sans-Serif" font-size="10.00">Decision</text>
</g>
<!-- F_IMPL_WL_MIT&#45;&gt;LF_D_CONF -->
<g id="edge40" class="edge">
<title>F_IMPL_WL_MIT&#45;&gt;LF_D_CONF</title>
<path fill="none" stroke="#4a4a97" stroke-width="2" d="M1824.82,-99.85C1792.9,-99.85 1762.74,-99.85 1762.74,-99.85 1762.74,-99.85 1762.74,-374.57 1762.74,-374.57 1762.74,-374.57 1079.93,-374.57 1079.93,-374.57"/>
<polygon fill="#4a4a97" stroke="#4a4a97" stroke-width="2" points="1079.93,-371.07 1069.93,-374.57 1079.93,-378.07 1079.93,-371.07"/>
<text xml:space="preserve" text-anchor="middle" x="1564.24" y="-365.07" font-family="Helvetica,sans-Serif" font-size="10.00">Mitig. alerts</text>
</g>
<!-- ExtDataAgg -->
<g id="node5" class="node">
<title>ExtDataAgg</title>
<path fill="#e6ffe6" stroke="#009900" stroke-width="2" d="M1987.74,-228C1987.74,-228 1809.96,-228 1809.96,-228 1803.96,-228 1797.96,-222 1797.96,-216 1797.96,-216 1797.96,-204 1797.96,-204 1797.96,-198 1803.96,-192 1809.96,-192 1809.96,-192 1987.74,-192 1987.74,-192 1993.74,-192 1999.74,-198 1999.74,-204 1999.74,-204 1999.74,-216 1999.74,-216 1999.74,-222 1993.74,-228 1987.74,-228"/>
<text xml:space="preserve" text-anchor="middle" x="1898.85" y="-204.2" font-family="Helvetica,sans-Serif" font-size="14.00">External data aggregators (LA)</text>
</g>
<!-- LF_DA1 -->
<g id="node6" class="node">
<title>LF_DA1</title>
<path fill="#90ee90" stroke="#228b22" stroke-width="2" d="M509.53,-743.26C509.53,-743.26 297.25,-743.26 297.25,-743.26 291.25,-743.26 285.25,-737.26 285.25,-731.26 285.25,-731.26 285.25,-652.74 285.25,-652.74 285.25,-646.74 291.25,-640.74 297.25,-640.74 297.25,-640.74 509.53,-640.74 509.53,-640.74 515.53,-640.74 521.53,-646.74 521.53,-652.74 521.53,-652.74 521.53,-731.26 521.53,-731.26 521.53,-737.26 515.53,-743.26 509.53,-743.26"/>
<text xml:space="preserve" text-anchor="middle" x="403.39" y="-724.2" font-family="Helvetica,sans-Serif" font-size="14.00">Collect and window</text>
<text xml:space="preserve" text-anchor="middle" x="403.39" y="-709.2" font-family="Helvetica,sans-Serif" font-size="14.00">water S/D measurements</text>
<text xml:space="preserve" text-anchor="middle" x="403.39" y="-678.2" font-family="Helvetica,sans-Serif" font-size="14.00">{c} Real&#45;time and remote</text>
<text xml:space="preserve" text-anchor="middle" x="403.39" y="-663.2" font-family="Helvetica,sans-Serif" font-size="14.00">{c} Configurable collection frequency</text>
<text xml:space="preserve" text-anchor="middle" x="403.39" y="-648.2" font-family="Helvetica,sans-Serif" font-size="14.00">{c} Configurable window size</text>
</g>
<!-- LF_DA2 -->
<g id="node7" class="node">
<title>LF_DA2</title>
<path fill="#90ee90" stroke="#228b22" stroke-width="2" d="M707.31,-677C707.31,-677 583.53,-677 583.53,-677 577.53,-677 571.53,-671 571.53,-665 571.53,-665 571.53,-653 571.53,-653 571.53,-647 577.53,-641 583.53,-641 583.53,-641 707.31,-641 707.31,-641 713.31,-641 719.31,-647 719.31,-653 719.31,-653 719.31,-665 719.31,-665 719.31,-671 713.31,-677 707.31,-677"/>
<text xml:space="preserve" text-anchor="middle" x="645.42" y="-653.2" font-family="Helvetica,sans-Serif" font-size="14.00">Monitor sensor health</text>
</g>
<!-- LF_DA1&#45;&gt;LF_DA2 -->
<g id="edge4" class="edge">
<title>LF_DA1&#45;&gt;LF_DA2</title>
<path fill="none" stroke="#4a4a97" stroke-width="2" d="M522.28,-659C522.28,-659 557.67,-659 557.67,-659"/>
<polygon fill="#4a4a97" stroke="#4a4a97" stroke-width="2" points="557.67,-662.5 567.67,-659 557.67,-655.5 557.67,-662.5"/>
<text xml:space="preserve" text-anchor="middle" x="519.35" y="-649.5" font-family="Helvetica,sans-Serif" font-size="10.00">Readings</text>
</g>
<!-- LF_DP1 -->
<g id="node8" class="node">
<title>LF_DP1</title>
<path fill="#90ee90" stroke="#228b22" stroke-width="2" d="M1310.4,-584.76C1310.4,-584.76 1163.37,-584.76 1163.37,-584.76 1157.37,-584.76 1151.37,-578.76 1151.37,-572.76 1151.37,-572.76 1151.37,-555.24 1151.37,-555.24 1151.37,-549.24 1157.37,-543.24 1163.37,-543.24 1163.37,-543.24 1310.4,-543.24 1310.4,-543.24 1316.4,-543.24 1322.4,-549.24 1322.4,-555.24 1322.4,-555.24 1322.4,-572.76 1322.4,-572.76 1322.4,-578.76 1316.4,-584.76 1310.4,-584.76"/>
<text xml:space="preserve" text-anchor="middle" x="1236.88" y="-565.7" font-family="Helvetica,sans-Serif" font-size="14.00">Predict water</text>
<text xml:space="preserve" text-anchor="middle" x="1236.88" y="-550.7" font-family="Helvetica,sans-Serif" font-size="14.00">supply and demand (S/D)</text>
</g>
<!-- LF_DA1&#45;&gt;LF_DP1 -->
<g id="edge8" class="edge">
<title>LF_DA1&#45;&gt;LF_DP1</title>
<path fill="none" stroke="#4a4a97" stroke-width="2" d="M403.74,-639.8C403.74,-603.92 403.74,-562.74 403.74,-562.74 403.74,-562.74 1137.45,-562.74 1137.45,-562.74"/>
<polygon fill="#4a4a97" stroke="#4a4a97" stroke-width="2" points="1137.45,-566.24 1147.45,-562.74 1137.44,-559.24 1137.45,-566.24"/>
<text xml:space="preserve" text-anchor="middle" x="714.44" y="-553.24" font-family="Helvetica,sans-Serif" font-size="10.00">Window</text>
</g>
<!-- LF_DP2 -->
<g id="node9" class="node">
<title>LF_DP2</title>
<path fill="#90ee90" stroke="#228b22" stroke-width="2" d="M1317.9,-712.26C1317.9,-712.26 1155.87,-712.26 1155.87,-712.26 1149.87,-712.26 1143.87,-706.26 1143.87,-700.26 1143.87,-700.26 1143.87,-621.74 1143.87,-621.74 1143.87,-615.74 1149.87,-609.74 1155.87,-609.74 1155.87,-609.74 1317.9,-609.74 1317.9,-609.74 1323.9,-609.74 1329.9,-615.74 1329.9,-621.74 1329.9,-621.74 1329.9,-700.26 1329.9,-700.26 1329.9,-706.26 1323.9,-712.26 1317.9,-712.26"/>
<text xml:space="preserve" text-anchor="middle" x="1236.88" y="-693.2" font-family="Helvetica,sans-Serif" font-size="14.00">Quantify</text>
<text xml:space="preserve" text-anchor="middle" x="1236.88" y="-678.2" font-family="Helvetica,sans-Serif" font-size="14.00">water loss</text>
<text xml:space="preserve" text-anchor="middle" x="1236.88" y="-647.2" font-family="Helvetica,sans-Serif" font-size="14.00">{c} Link data to specific</text>
<text xml:space="preserve" text-anchor="middle" x="1236.88" y="-632.2" font-family="Helvetica,sans-Serif" font-size="14.00">components vulnerable to</text>
<text xml:space="preserve" text-anchor="middle" x="1236.88" y="-617.2" font-family="Helvetica,sans-Serif" font-size="14.00">water loss (water tank, pipe)</text>
</g>
<!-- LF_DA1&#45;&gt;LF_DP2 -->
<g id="edge9" class="edge">
<title>LF_DA1&#45;&gt;LF_DP2</title>
<path fill="none" stroke="#4a4a97" stroke-width="2" d="M522.37,-694.63C522.37,-694.63 1130.03,-694.63 1130.03,-694.63"/>
<polygon fill="#4a4a97" stroke="#4a4a97" stroke-width="2" points="1130.03,-698.13 1140.03,-694.63 1130.03,-691.13 1130.03,-698.13"/>
<text xml:space="preserve" text-anchor="middle" x="808.57" y="-685.13" font-family="Helvetica,sans-Serif" font-size="10.00">Window</text>
</g>
<!-- LF_ED3 -->
<g id="node11" class="node">
<title>LF_ED3</title>
<path fill="#90ee90" stroke="#228b22" stroke-width="2" d="M1526.18,-913.76C1526.18,-913.76 1403.9,-913.76 1403.9,-913.76 1397.9,-913.76 1391.9,-907.76 1391.9,-901.76 1391.9,-901.76 1391.9,-838.24 1391.9,-838.24 1391.9,-832.24 1397.9,-826.24 1403.9,-826.24 1403.9,-826.24 1526.18,-826.24 1526.18,-826.24 1532.18,-826.24 1538.18,-832.24 1538.18,-838.24 1538.18,-838.24 1538.18,-901.76 1538.18,-901.76 1538.18,-907.76 1532.18,-913.76 1526.18,-913.76"/>
<text xml:space="preserve" text-anchor="middle" x="1465.04" y="-894.7" font-family="Helvetica,sans-Serif" font-size="14.00">Identify significant</text>
<text xml:space="preserve" text-anchor="middle" x="1465.04" y="-879.7" font-family="Helvetica,sans-Serif" font-size="14.00">water loss events</text>
<text xml:space="preserve" text-anchor="middle" x="1465.04" y="-848.7" font-family="Helvetica,sans-Serif" font-size="14.00">{c} e.g. tank overflow,</text>
<text xml:space="preserve" text-anchor="middle" x="1465.04" y="-833.7" font-family="Helvetica,sans-Serif" font-size="14.00">pipe burst</text>
</g>
<!-- LF_DA1&#45;&gt;LF_ED3 -->
<g id="edge6" class="edge">
<title>LF_DA1&#45;&gt;LF_ED3</title>
<path fill="none" stroke="#4a4a97" stroke-width="2" d="M522.34,-735.51C786.28,-735.51 1397.74,-735.51 1397.74,-735.51 1397.74,-735.51 1397.74,-812.56 1397.74,-812.56"/>
<polygon fill="#4a4a97" stroke="#4a4a97" stroke-width="2" points="1394.24,-812.56 1397.74,-822.56 1401.24,-812.56 1394.24,-812.56"/>
<text xml:space="preserve" text-anchor="middle" x="1016.19" y="-726.01" font-family="Helvetica,sans-Serif" font-size="10.00">Window</text>
</g>
<!-- LF_ED4 -->
<g id="node12" class="node">
<title>LF_ED4</title>
<path fill="#90ee90" stroke="#228b22" stroke-width="2" d="M1517.18,-800.76C1517.18,-800.76 1412.9,-800.76 1412.9,-800.76 1406.9,-800.76 1400.9,-794.76 1400.9,-788.76 1400.9,-788.76 1400.9,-771.24 1400.9,-771.24 1400.9,-765.24 1406.9,-759.24 1412.9,-759.24 1412.9,-759.24 1517.18,-759.24 1517.18,-759.24 1523.18,-759.24 1529.18,-765.24 1529.18,-771.24 1529.18,-771.24 1529.18,-788.76 1529.18,-788.76 1529.18,-794.76 1523.18,-800.76 1517.18,-800.76"/>
<text xml:space="preserve" text-anchor="middle" x="1465.04" y="-781.7" font-family="Helvetica,sans-Serif" font-size="14.00">Identify insufficient</text>
<text xml:space="preserve" text-anchor="middle" x="1465.04" y="-766.7" font-family="Helvetica,sans-Serif" font-size="14.00">supply events</text>
</g>
<!-- LF_DA1&#45;&gt;LF_ED4 -->
<g id="edge7" class="edge">
<title>LF_DA1&#45;&gt;LF_ED4</title>
<path fill="none" stroke="#4a4a97" stroke-width="2" d="M522.05,-727.76C787.82,-727.76 1407.74,-727.76 1407.74,-727.76 1407.74,-727.76 1407.74,-745.42 1407.74,-745.42"/>
<polygon fill="#4a4a97" stroke="#4a4a97" stroke-width="2" points="1404.24,-745.42 1407.74,-755.42 1411.24,-745.42 1404.24,-745.42"/>
<text xml:space="preserve" text-anchor="middle" x="956.1" y="-718.26" font-family="Helvetica,sans-Serif" font-size="10.00">Window</text>
</g>
<!-- LF_LTS4 -->
<g id="node22" class="node">
<title>LF_LTS4</title>
<path fill="#90ee90" stroke="#228b22" stroke-width="2" d="M1967.86,-772.26C1967.86,-772.26 1829.83,-772.26 1829.83,-772.26 1823.83,-772.26 1817.83,-766.26 1817.83,-760.26 1817.83,-760.26 1817.83,-681.74 1817.83,-681.74 1817.83,-675.74 1823.83,-669.74 1829.83,-669.74 1829.83,-669.74 1967.86,-669.74 1967.86,-669.74 1973.86,-669.74 1979.86,-675.74 1979.86,-681.74 1979.86,-681.74 1979.86,-760.26 1979.86,-760.26 1979.86,-766.26 1973.86,-772.26 1967.86,-772.26"/>
<text xml:space="preserve" text-anchor="middle" x="1898.85" y="-753.2" font-family="Helvetica,sans-Serif" font-size="14.00">Store</text>
<text xml:space="preserve" text-anchor="middle" x="1898.85" y="-738.2" font-family="Helvetica,sans-Serif" font-size="14.00">measurements</text>
<text xml:space="preserve" text-anchor="middle" x="1898.85" y="-707.2" font-family="Helvetica,sans-Serif" font-size="14.00">{c} Configurable storage</text>
<text xml:space="preserve" text-anchor="middle" x="1898.85" y="-692.2" font-family="Helvetica,sans-Serif" font-size="14.00">frequency</text>
<text xml:space="preserve" text-anchor="middle" x="1898.85" y="-677.2" font-family="Helvetica,sans-Serif" font-size="14.00">{c} Timestamped</text>
</g>
<!-- LF_DA1&#45;&gt;LF_LTS4 -->
<g id="edge5" class="edge">
<title>LF_DA1&#45;&gt;LF_LTS4</title>
<path fill="none" stroke="#4a4a97" stroke-width="2" d="M522.3,-720.01C522.3,-720.01 1804.23,-720.01 1804.23,-720.01"/>
<polygon fill="#4a4a97" stroke="#4a4a97" stroke-width="2" points="1804.23,-723.51 1814.23,-720.01 1804.23,-716.51 1804.23,-723.51"/>
<text xml:space="preserve" text-anchor="middle" x="1143.76" y="-710.51" font-family="Helvetica,sans-Serif" font-size="10.00">S/D data</text>
</g>
<!-- LF_D_STATUS -->
<g id="node20" class="node">
<title>LF_D_STATUS</title>
<path fill="#90ee90" stroke="#228b22" stroke-width="2" d="M863.46,-309.76C863.46,-309.76 797.43,-309.76 797.43,-309.76 791.43,-309.76 785.43,-303.76 785.43,-297.76 785.43,-297.76 785.43,-280.24 785.43,-280.24 785.43,-274.24 791.43,-268.24 797.43,-268.24 797.43,-268.24 863.46,-268.24 863.46,-268.24 869.46,-268.24 875.46,-274.24 875.46,-280.24 875.46,-280.24 875.46,-297.76 875.46,-297.76 875.46,-303.76 869.46,-309.76 863.46,-309.76"/>
<text xml:space="preserve" text-anchor="middle" x="830.45" y="-290.7" font-family="Helvetica,sans-Serif" font-size="14.00">Display live</text>
<text xml:space="preserve" text-anchor="middle" x="830.45" y="-275.7" font-family="Helvetica,sans-Serif" font-size="14.00">event status</text>
</g>
<!-- LF_DA2&#45;&gt;LF_D_STATUS -->
<g id="edge10" class="edge">
<title>LF_DA2&#45;&gt;LF_D_STATUS</title>
<path fill="none" stroke="#4a4a97" stroke-width="2" d="M645.74,-640.14C645.74,-564.74 645.74,-289 645.74,-289 645.74,-289 771.76,-289 771.76,-289"/>
<polygon fill="#4a4a97" stroke="#4a4a97" stroke-width="2" points="771.76,-292.5 781.76,-289 771.76,-285.5 771.76,-292.5"/>
<text xml:space="preserve" text-anchor="middle" x="631.49" y="-392.06" font-family="Helvetica,sans-Serif" font-size="10.00">Health</text>
</g>
<!-- LF_DP3 -->
<g id="node10" class="node">
<title>LF_DP3</title>
<path fill="#90ee90" stroke="#228b22" stroke-width="2" d="M1504.43,-584.76C1504.43,-584.76 1425.65,-584.76 1425.65,-584.76 1419.65,-584.76 1413.65,-578.76 1413.65,-572.76 1413.65,-572.76 1413.65,-555.24 1413.65,-555.24 1413.65,-549.24 1419.65,-543.24 1425.65,-543.24 1425.65,-543.24 1504.43,-543.24 1504.43,-543.24 1510.43,-543.24 1516.43,-549.24 1516.43,-555.24 1516.43,-555.24 1516.43,-572.76 1516.43,-572.76 1516.43,-578.76 1510.43,-584.76 1504.43,-584.76"/>
<text xml:space="preserve" text-anchor="middle" x="1465.04" y="-565.7" font-family="Helvetica,sans-Serif" font-size="14.00">Predict water</text>
<text xml:space="preserve" text-anchor="middle" x="1465.04" y="-550.7" font-family="Helvetica,sans-Serif" font-size="14.00">loss event risk</text>
</g>
<!-- LF_DP1&#45;&gt;LF_DP3 -->
<g id="edge12" class="edge">
<title>LF_DP1&#45;&gt;LF_DP3</title>
<path fill="none" stroke="#4a4a97" stroke-width="2" d="M1323.14,-553.62C1323.14,-553.62 1399.73,-553.62 1399.73,-553.62"/>
<polygon fill="#4a4a97" stroke="#4a4a97" stroke-width="2" points="1399.73,-557.12 1409.73,-553.62 1399.73,-550.12 1399.73,-557.12"/>
<text xml:space="preserve" text-anchor="middle" x="1333.69" y="-544.12" font-family="Helvetica,sans-Serif" font-size="10.00">S/D forecast</text>
</g>
<!-- LF_N_PRED -->
<g id="node15" class="node">
<title>LF_N_PRED</title>
<path fill="#90ee90" stroke="#228b22" stroke-width="2" d="M1732.58,-428.76C1732.58,-428.76 1615.55,-428.76 1615.55,-428.76 1609.55,-428.76 1603.55,-422.76 1603.55,-416.76 1603.55,-416.76 1603.55,-399.24 1603.55,-399.24 1603.55,-393.24 1609.55,-387.24 1615.55,-387.24 1615.55,-387.24 1732.58,-387.24 1732.58,-387.24 1738.58,-387.24 1744.58,-393.24 1744.58,-399.24 1744.58,-399.24 1744.58,-416.76 1744.58,-416.76 1744.58,-422.76 1738.58,-428.76 1732.58,-428.76"/>
<text xml:space="preserve" text-anchor="middle" x="1674.07" y="-409.7" font-family="Helvetica,sans-Serif" font-size="14.00">Notify of</text>
<text xml:space="preserve" text-anchor="middle" x="1674.07" y="-394.7" font-family="Helvetica,sans-Serif" font-size="14.00">predicted risk events</text>
</g>
<!-- LF_DP1&#45;&gt;LF_N_PRED -->
<g id="edge17" class="edge">
<title>LF_DP1&#45;&gt;LF_N_PRED</title>
<path fill="none" stroke="#4a4a97" stroke-width="2" d="M1265.74,-542.72C1265.74,-539.73 1265.74,-537.64 1265.74,-537.64 1265.74,-537.64 1608.74,-537.64 1608.74,-537.64 1608.74,-537.64 1608.74,-442.73 1608.74,-442.73"/>
<polygon fill="#4a4a97" stroke="#4a4a97" stroke-width="2" points="1612.24,-442.73 1608.74,-432.73 1605.24,-442.73 1612.24,-442.73"/>
<text xml:space="preserve" text-anchor="middle" x="1461.16" y="-528.14" font-family="Helvetica,sans-Serif" font-size="10.00">S/D pred.</text>
</g>
<!-- LF_LTS3 -->
<g id="node21" class="node">
<title>LF_LTS3</title>
<path fill="#90ee90" stroke="#228b22" stroke-width="2" d="M1940.86,-644.76C1940.86,-644.76 1856.83,-644.76 1856.83,-644.76 1850.83,-644.76 1844.83,-638.76 1844.83,-632.76 1844.83,-632.76 1844.83,-615.24 1844.83,-615.24 1844.83,-609.24 1850.83,-603.24 1856.83,-603.24 1856.83,-603.24 1940.86,-603.24 1940.86,-603.24 1946.86,-603.24 1952.86,-609.24 1952.86,-615.24 1952.86,-615.24 1952.86,-632.76 1952.86,-632.76 1952.86,-638.76 1946.86,-644.76 1940.86,-644.76"/>
<text xml:space="preserve" text-anchor="middle" x="1898.85" y="-625.7" font-family="Helvetica,sans-Serif" font-size="14.00">Store forecasts</text>
<text xml:space="preserve" text-anchor="middle" x="1898.85" y="-610.7" font-family="Helvetica,sans-Serif" font-size="14.00">and estimates</text>
</g>
<!-- LF_DP1&#45;&gt;LF_LTS3 -->
<g id="edge14" class="edge">
<title>LF_DP1&#45;&gt;LF_LTS3</title>
<path fill="none" stroke="#4a4a97" stroke-width="2" d="M1323.16,-564C1341.13,-564 1354.74,-564 1354.74,-564 1354.74,-564 1354.74,-621.41 1354.74,-621.41 1354.74,-621.41 1830.91,-621.41 1830.91,-621.41"/>
<polygon fill="#4a4a97" stroke="#4a4a97" stroke-width="2" points="1830.91,-624.91 1840.91,-621.41 1830.91,-617.91 1830.91,-624.91"/>
<text xml:space="preserve" text-anchor="middle" x="1569.33" y="-611.91" font-family="Helvetica,sans-Serif" font-size="10.00">S/D pred.</text>
</g>
<!-- LF_LTS5 -->
<g id="node23" class="node">
<title>LF_LTS5</title>
<path fill="#90ee90" stroke="#228b22" stroke-width="2" d="M1934.86,-510.76C1934.86,-510.76 1862.83,-510.76 1862.83,-510.76 1856.83,-510.76 1850.83,-504.76 1850.83,-498.76 1850.83,-498.76 1850.83,-481.24 1850.83,-481.24 1850.83,-475.24 1856.83,-469.24 1862.83,-469.24 1862.83,-469.24 1934.86,-469.24 1934.86,-469.24 1940.86,-469.24 1946.86,-475.24 1946.86,-481.24 1946.86,-481.24 1946.86,-498.76 1946.86,-498.76 1946.86,-504.76 1940.86,-510.76 1934.86,-510.76"/>
<text xml:space="preserve" text-anchor="middle" x="1898.85" y="-491.7" font-family="Helvetica,sans-Serif" font-size="14.00">Query stored</text>
<text xml:space="preserve" text-anchor="middle" x="1898.85" y="-476.7" font-family="Helvetica,sans-Serif" font-size="14.00">data</text>
</g>
<!-- LF_DP1&#45;&gt;LF_LTS5 -->
<g id="edge13" class="edge">
<title>LF_DP1&#45;&gt;LF_LTS5</title>
<path fill="none" stroke="#4a4a97" stroke-width="2" d="M1208.74,-542.31C1208.74,-525.76 1208.74,-505.76 1208.74,-505.76 1208.74,-505.76 1837.02,-505.76 1837.02,-505.76"/>
<polygon fill="#4a4a97" stroke="#4a4a97" stroke-width="2" points="1837.02,-509.26 1847.02,-505.76 1837.02,-502.26 1837.02,-509.26"/>
<text xml:space="preserve" text-anchor="middle" x="1471.98" y="-496.26" font-family="Helvetica,sans-Serif" font-size="10.00">Forecast query</text>
</g>
<!-- LF_DP2&#45;&gt;LF_DP3 -->
<g id="edge11" class="edge">
<title>LF_DP2&#45;&gt;LF_DP3</title>
<path fill="none" stroke="#4a4a97" stroke-width="2" d="M1325.74,-609.11C1325.74,-590.66 1325.74,-574.38 1325.74,-574.38 1325.74,-574.38 1399.75,-574.38 1399.75,-574.38"/>
<polygon fill="#4a4a97" stroke="#4a4a97" stroke-width="2" points="1399.75,-577.88 1409.75,-574.38 1399.75,-570.88 1399.75,-577.88"/>
<text xml:space="preserve" text-anchor="middle" x="1314.63" y="-564.88" font-family="Helvetica,sans-Serif" font-size="10.00">Loss estimate</text>
</g>
<!-- LF_DP2&#45;&gt;LF_LTS3 -->
<g id="edge15" class="edge">
<title>LF_DP2&#45;&gt;LF_LTS3</title>
<path fill="none" stroke="#4a4a97" stroke-width="2" d="M1330.67,-633.09C1330.67,-633.09 1831.16,-633.09 1831.16,-633.09"/>
<polygon fill="#4a4a97" stroke="#4a4a97" stroke-width="2" points="1831.16,-636.59 1841.16,-633.09 1831.16,-629.59 1831.16,-636.59"/>
<text xml:space="preserve" text-anchor="middle" x="1550.17" y="-623.59" font-family="Helvetica,sans-Serif" font-size="10.00">Loss estimate</text>
</g>
<!-- LF_DP3&#45;&gt;LF_N_PRED -->
<g id="edge18" class="edge">
<title>LF_DP3&#45;&gt;LF_N_PRED</title>
<path fill="none" stroke="#4a4a97" stroke-width="2" d="M1517.11,-551.87C1559.64,-551.87 1612.74,-551.87 1612.74,-551.87 1612.74,-551.87 1612.74,-442.57 1612.74,-442.57"/>
<polygon fill="#4a4a97" stroke="#4a4a97" stroke-width="2" points="1616.24,-442.57 1612.74,-432.57 1609.24,-442.57 1616.24,-442.57"/>
<text xml:space="preserve" text-anchor="middle" x="1590.24" y="-535.53" font-family="Helvetica,sans-Serif" font-size="10.00">Risk pred.</text>
</g>
<!-- LF_DP3&#45;&gt;LF_LTS3 -->
<g id="edge16" class="edge">
<title>LF_DP3&#45;&gt;LF_LTS3</title>
<path fill="none" stroke="#4a4a97" stroke-width="2" d="M1517.35,-581.26C1632.71,-581.26 1898.74,-581.26 1898.74,-581.26 1898.74,-581.26 1898.74,-589.35 1898.74,-589.35"/>
<polygon fill="#4a4a97" stroke="#4a4a97" stroke-width="2" points="1895.24,-589.35 1898.74,-599.35 1902.24,-589.35 1895.24,-589.35"/>
<text xml:space="preserve" text-anchor="middle" x="1689.59" y="-571.76" font-family="Helvetica,sans-Serif" font-size="10.00">Risk pred.</text>
</g>
<!-- LF_N_EV -->
<g id="node14" class="node">
<title>LF_N_EV</title>
<path fill="#90ee90" stroke="#228b22" stroke-width="2" d="M1718.33,-495.76C1718.33,-495.76 1629.8,-495.76 1629.8,-495.76 1623.8,-495.76 1617.8,-489.76 1617.8,-483.76 1617.8,-483.76 1617.8,-466.24 1617.8,-466.24 1617.8,-460.24 1623.8,-454.24 1629.8,-454.24 1629.8,-454.24 1718.33,-454.24 1718.33,-454.24 1724.33,-454.24 1730.33,-460.24 1730.33,-466.24 1730.33,-466.24 1730.33,-483.76 1730.33,-483.76 1730.33,-489.76 1724.33,-495.76 1718.33,-495.76"/>
<text xml:space="preserve" text-anchor="middle" x="1674.07" y="-476.7" font-family="Helvetica,sans-Serif" font-size="14.00">Notify of</text>
<text xml:space="preserve" text-anchor="middle" x="1674.07" y="-461.7" font-family="Helvetica,sans-Serif" font-size="14.00">detected events</text>
</g>
<!-- LF_ED3&#45;&gt;LF_N_EV -->
<g id="edge22" class="edge">
<title>LF_ED3&#45;&gt;LF_N_EV</title>
<path fill="none" stroke="#4a4a97" stroke-width="2" d="M1531.74,-825.5C1531.74,-724.26 1531.74,-485.38 1531.74,-485.38 1531.74,-485.38 1603.97,-485.38 1603.97,-485.38"/>
<polygon fill="#4a4a97" stroke="#4a4a97" stroke-width="2" points="1603.97,-488.88 1613.97,-485.38 1603.97,-481.88 1603.97,-488.88"/>
<text xml:space="preserve" text-anchor="middle" x="1511.49" y="-609.83" font-family="Helvetica,sans-Serif" font-size="10.00">Loss evt.</text>
</g>
<!-- LF_LTS6 -->
<g id="node24" class="node">
<title>LF_LTS6</title>
<path fill="#90ee90" stroke="#228b22" stroke-width="2" d="M1929.99,-577.76C1929.99,-577.76 1867.71,-577.76 1867.71,-577.76 1861.71,-577.76 1855.71,-571.76 1855.71,-565.76 1855.71,-565.76 1855.71,-548.24 1855.71,-548.24 1855.71,-542.24 1861.71,-536.24 1867.71,-536.24 1867.71,-536.24 1929.99,-536.24 1929.99,-536.24 1935.99,-536.24 1941.99,-542.24 1941.99,-548.24 1941.99,-548.24 1941.99,-565.76 1941.99,-565.76 1941.99,-571.76 1935.99,-577.76 1929.99,-577.76"/>
<text xml:space="preserve" text-anchor="middle" x="1898.85" y="-558.7" font-family="Helvetica,sans-Serif" font-size="14.00">Store event</text>
<text xml:space="preserve" text-anchor="middle" x="1898.85" y="-543.7" font-family="Helvetica,sans-Serif" font-size="14.00">data</text>
</g>
<!-- LF_ED3&#45;&gt;LF_LTS6 -->
<g id="edge23" class="edge">
<title>LF_ED3&#45;&gt;LF_LTS6</title>
<path fill="none" stroke="#4a4a97" stroke-width="2" d="M1534.74,-825.28C1534.74,-741.47 1534.74,-569.13 1534.74,-569.13 1534.74,-569.13 1841.9,-569.13 1841.9,-569.13"/>
<polygon fill="#4a4a97" stroke="#4a4a97" stroke-width="2" points="1841.9,-572.63 1851.9,-569.13 1841.9,-565.63 1841.9,-572.63"/>
<text xml:space="preserve" text-anchor="middle" x="1537.37" y="-559.63" font-family="Helvetica,sans-Serif" font-size="10.00">Loss evts.</text>
</g>
<!-- LF_ED4&#45;&gt;LF_N_EV -->
<g id="edge21" class="edge">
<title>LF_ED4&#45;&gt;LF_N_EV</title>
<path fill="none" stroke="#4a4a97" stroke-width="2" d="M1520.74,-758.55C1520.74,-689.13 1520.74,-475 1520.74,-475 1520.74,-475 1603.95,-475 1603.95,-475"/>
<polygon fill="#4a4a97" stroke="#4a4a97" stroke-width="2" points="1603.95,-478.5 1613.95,-475 1603.95,-471.5 1603.95,-478.5"/>
<text xml:space="preserve" text-anchor="middle" x="1486.24" y="-565.67" font-family="Helvetica,sans-Serif" font-size="10.00">Low supply evt.</text>
</g>
<!-- LF_ED4&#45;&gt;LF_LTS6 -->
<g id="edge24" class="edge">
<title>LF_ED4&#45;&gt;LF_LTS6</title>
<path fill="none" stroke="#4a4a97" stroke-width="2" d="M1524.74,-758.55C1524.74,-703.32 1524.74,-560.5 1524.74,-560.5 1524.74,-560.5 1841.81,-560.5 1841.81,-560.5"/>
<polygon fill="#4a4a97" stroke="#4a4a97" stroke-width="2" points="1841.81,-564 1851.81,-560.5 1841.81,-557 1841.81,-564"/>
<text xml:space="preserve" text-anchor="middle" x="1547.12" y="-551" font-family="Helvetica,sans-Serif" font-size="10.00">Low supply evts.</text>
</g>
<!-- LF_ED_CONF -->
<g id="node13" class="node">
<title>LF_ED_CONF</title>
<path fill="#90ee90" stroke="#228b22" stroke-width="2" d="M1287.52,-800.76C1287.52,-800.76 1186.24,-800.76 1186.24,-800.76 1180.24,-800.76 1174.24,-794.76 1174.24,-788.76 1174.24,-788.76 1174.24,-771.24 1174.24,-771.24 1174.24,-765.24 1180.24,-759.24 1186.24,-759.24 1186.24,-759.24 1287.52,-759.24 1287.52,-759.24 1293.52,-759.24 1299.52,-765.24 1299.52,-771.24 1299.52,-771.24 1299.52,-788.76 1299.52,-788.76 1299.52,-794.76 1293.52,-800.76 1287.52,-800.76"/>
<text xml:space="preserve" text-anchor="middle" x="1236.88" y="-781.7" font-family="Helvetica,sans-Serif" font-size="14.00">Manage detection</text>
<text xml:space="preserve" text-anchor="middle" x="1236.88" y="-766.7" font-family="Helvetica,sans-Serif" font-size="14.00">thresholds</text>
</g>
<!-- LF_ED_CONF&#45;&gt;LF_ED3 -->
<g id="edge19" class="edge">
<title>LF_ED_CONF&#45;&gt;LF_ED3</title>
<path fill="none" stroke="#4a4a97" stroke-width="2" d="M1300.18,-786.92C1344.1,-786.92 1394.74,-786.92 1394.74,-786.92 1394.74,-786.92 1394.74,-812.51 1394.74,-812.51"/>
<polygon fill="#4a4a97" stroke="#4a4a97" stroke-width="2" points="1391.24,-812.51 1394.74,-822.51 1398.24,-812.51 1391.24,-812.51"/>
<text xml:space="preserve" text-anchor="middle" x="1336.26" y="-777.42" font-family="Helvetica,sans-Serif" font-size="10.00">Thresholds</text>
</g>
<!-- LF_ED_CONF&#45;&gt;LF_ED4 -->
<g id="edge20" class="edge">
<title>LF_ED_CONF&#45;&gt;LF_ED4</title>
<path fill="none" stroke="#4a4a97" stroke-width="2" d="M1300.44,-773.08C1300.44,-773.08 1387.21,-773.08 1387.21,-773.08"/>
<polygon fill="#4a4a97" stroke="#4a4a97" stroke-width="2" points="1387.21,-776.58 1397.21,-773.08 1387.21,-769.58 1387.21,-776.58"/>
<text xml:space="preserve" text-anchor="middle" x="1319.83" y="-763.58" font-family="Helvetica,sans-Serif" font-size="10.00">Thresholds</text>
</g>
<!-- LF_N_EV&#45;&gt;F_DEF_DIST -->
<g id="edge27" class="edge">
<title>LF_N_EV&#45;&gt;F_DEF_DIST</title>
<path fill="none" stroke="#4a4a97" stroke-width="2" d="M1731.11,-459.24C1754.74,-459.24 1776.74,-459.24 1776.74,-459.24 1776.74,-459.24 1776.74,-49.46 1776.74,-49.46 1776.74,-49.46 1827.27,-49.46 1827.27,-49.46"/>
<polygon fill="#4a4a97" stroke="#4a4a97" stroke-width="2" points="1827.27,-52.96 1837.27,-49.46 1827.27,-45.96 1827.27,-52.96"/>
<text xml:space="preserve" text-anchor="middle" x="1763.99" y="-242.4" font-family="Helvetica,sans-Serif" font-size="10.00">Event</text>
</g>
<!-- LF_N_EV&#45;&gt;F_IMPL_WL_MIT -->
<g id="edge28" class="edge">
<title>LF_N_EV&#45;&gt;F_IMPL_WL_MIT</title>
<path fill="none" stroke="#4a4a97" stroke-width="2" d="M1731.04,-464.24C1760.65,-464.24 1790.74,-464.24 1790.74,-464.24 1790.74,-464.24 1790.74,-116.46 1790.74,-116.46 1790.74,-116.46 1811.92,-116.46 1811.92,-116.46"/>
<polygon fill="#4a4a97" stroke="#4a4a97" stroke-width="2" points="1811.92,-119.96 1821.92,-116.46 1811.92,-112.96 1811.92,-119.96"/>
<text xml:space="preserve" text-anchor="middle" x="1777.99" y="-300.11" font-family="Helvetica,sans-Serif" font-size="10.00">Event</text>
</g>
<!-- LF_N_EV&#45;&gt;LF_LTS6 -->
<g id="edge31" class="edge">
<title>LF_N_EV&#45;&gt;LF_LTS6</title>
<path fill="none" stroke="#4a4a97" stroke-width="2" d="M1673.74,-496.43C1673.74,-515.51 1673.74,-540.44 1673.74,-540.44 1673.74,-540.44 1841.89,-540.44 1841.89,-540.44"/>
<polygon fill="#4a4a97" stroke="#4a4a97" stroke-width="2" points="1841.89,-543.94 1851.89,-540.44 1841.89,-536.94 1841.89,-543.94"/>
<text xml:space="preserve" text-anchor="middle" x="1710.68" y="-530.94" font-family="Helvetica,sans-Serif" font-size="10.00">Event notif.</text>
</g>
<!-- LF_N_PRED&#45;&gt;F_DEF_DIST -->
<g id="edge29" class="edge">
<title>LF_N_PRED&#45;&gt;F_DEF_DIST</title>
<path fill="none" stroke="#4a4a97" stroke-width="2" d="M1745.1,-401.08C1759.19,-401.08 1769.74,-401.08 1769.74,-401.08 1769.74,-401.08 1769.74,-41.15 1769.74,-41.15 1769.74,-41.15 1827.31,-41.15 1827.31,-41.15"/>
<polygon fill="#4a4a97" stroke="#4a4a97" stroke-width="2" points="1827.31,-44.65 1837.31,-41.15 1827.31,-37.65 1827.31,-44.65"/>
<text xml:space="preserve" text-anchor="middle" x="1759.61" y="-195.15" font-family="Helvetica,sans-Serif" font-size="10.00">Risk</text>
</g>
<!-- LF_N_PRED&#45;&gt;F_IMPL_WL_MIT -->
<g id="edge30" class="edge">
<title>LF_N_PRED&#45;&gt;F_IMPL_WL_MIT</title>
<path fill="none" stroke="#4a4a97" stroke-width="2" d="M1745.38,-414.92C1766.33,-414.92 1783.74,-414.92 1783.74,-414.92 1783.74,-414.92 1783.74,-108.15 1783.74,-108.15 1783.74,-108.15 1811.95,-108.15 1811.95,-108.15"/>
<polygon fill="#4a4a97" stroke="#4a4a97" stroke-width="2" points="1811.95,-111.65 1821.95,-108.15 1811.95,-104.65 1811.95,-111.65"/>
<text xml:space="preserve" text-anchor="middle" x="1773.61" y="-257.11" font-family="Helvetica,sans-Serif" font-size="10.00">Risk</text>
</g>
<!-- LF_N_PRED&#45;&gt;LF_LTS6 -->
<g id="edge32" class="edge">
<title>LF_N_PRED&#45;&gt;LF_LTS6</title>
<path fill="none" stroke="#4a4a97" stroke-width="2" d="M1737.74,-429.64C1737.74,-466.86 1737.74,-539.04 1737.74,-539.04 1737.74,-539.04 1841.8,-539.04 1841.8,-539.04"/>
<polygon fill="#4a4a97" stroke="#4a4a97" stroke-width="2" points="1841.8,-542.54 1851.8,-539.04 1841.8,-535.54 1841.8,-542.54"/>
<text xml:space="preserve" text-anchor="middle" x="1715.24" y="-526.87" font-family="Helvetica,sans-Serif" font-size="10.00">Risk notif.</text>
</g>
<!-- LF_N_SUB -->
<g id="node16" class="node">
<title>LF_N_SUB</title>
<path fill="#90ee90" stroke="#228b22" stroke-width="2" d="M1538.18,-428.76C1538.18,-428.76 1391.9,-428.76 1391.9,-428.76 1385.9,-428.76 1379.9,-422.76 1379.9,-416.76 1379.9,-416.76 1379.9,-399.24 1379.9,-399.24 1379.9,-393.24 1385.9,-387.24 1391.9,-387.24 1391.9,-387.24 1538.18,-387.24 1538.18,-387.24 1544.18,-387.24 1550.18,-393.24 1550.18,-399.24 1550.18,-399.24 1550.18,-416.76 1550.18,-416.76 1550.18,-422.76 1544.18,-428.76 1538.18,-428.76"/>
<text xml:space="preserve" text-anchor="middle" x="1465.04" y="-409.7" font-family="Helvetica,sans-Serif" font-size="14.00">Manage notification</text>
<text xml:space="preserve" text-anchor="middle" x="1465.04" y="-394.7" font-family="Helvetica,sans-Serif" font-size="14.00">subscribers and channels</text>
</g>
<!-- LF_N_SUB&#45;&gt;LF_N_EV -->
<g id="edge25" class="edge">
<title>LF_N_SUB&#45;&gt;LF_N_EV</title>
<path fill="none" stroke="#4a4a97" stroke-width="2" d="M1543.74,-429.73C1543.74,-445.7 1543.74,-464.62 1543.74,-464.62 1543.74,-464.62 1603.88,-464.62 1603.88,-464.62"/>
<polygon fill="#4a4a97" stroke="#4a4a97" stroke-width="2" points="1603.88,-468.12 1613.88,-464.62 1603.88,-461.12 1603.88,-468.12"/>
<text xml:space="preserve" text-anchor="middle" x="1543.61" y="-455.12" font-family="Helvetica,sans-Serif" font-size="10.00">Subs.</text>
</g>
<!-- LF_N_SUB&#45;&gt;LF_N_PRED -->
<g id="edge26" class="edge">
<title>LF_N_SUB&#45;&gt;LF_N_PRED</title>
<path fill="none" stroke="#4a4a97" stroke-width="2" d="M1550.97,-408C1550.97,-408 1589.76,-408 1589.76,-408"/>
<polygon fill="#4a4a97" stroke="#4a4a97" stroke-width="2" points="1589.76,-411.5 1599.76,-408 1589.76,-404.5 1589.76,-411.5"/>
<text xml:space="preserve" text-anchor="middle" x="1557.61" y="-398.5" font-family="Helvetica,sans-Serif" font-size="10.00">Subs.</text>
</g>
<!-- LF_D_AUTH -->
<g id="node17" class="node">
<title>LF_D_AUTH</title>
<path fill="#90ee90" stroke="#228b22" stroke-width="2" d="M879.59,-379C879.59,-379 781.31,-379 781.31,-379 775.31,-379 769.31,-373 769.31,-367 769.31,-367 769.31,-355 769.31,-355 769.31,-349 775.31,-343 781.31,-343 781.31,-343 879.59,-343 879.59,-343 885.59,-343 891.59,-349 891.59,-355 891.59,-355 891.59,-367 891.59,-367 891.59,-373 885.59,-379 879.59,-379"/>
<text xml:space="preserve" text-anchor="middle" x="830.45" y="-355.2" font-family="Helvetica,sans-Serif" font-size="14.00">Authenticate user</text>
</g>
<!-- LF_D_VIEW -->
<g id="node18" class="node">
<title>LF_D_VIEW</title>
<path fill="#90ee90" stroke="#228b22" stroke-width="2" d="M1081.87,-324.26C1081.87,-324.26 953.59,-324.26 953.59,-324.26 947.59,-324.26 941.59,-318.26 941.59,-312.26 941.59,-312.26 941.59,-263.74 941.59,-263.74 941.59,-257.74 947.59,-251.74 953.59,-251.74 953.59,-251.74 1081.87,-251.74 1081.87,-251.74 1087.87,-251.74 1093.87,-257.74 1093.87,-263.74 1093.87,-263.74 1093.87,-312.26 1093.87,-312.26 1093.87,-318.26 1087.87,-324.26 1081.87,-324.26"/>
<text xml:space="preserve" text-anchor="middle" x="1017.73" y="-305.2" font-family="Helvetica,sans-Serif" font-size="14.00">Present stored data</text>
<text xml:space="preserve" text-anchor="middle" x="1017.73" y="-274.2" font-family="Helvetica,sans-Serif" font-size="14.00">{c} Time series graphs</text>
<text xml:space="preserve" text-anchor="middle" x="1017.73" y="-259.2" font-family="Helvetica,sans-Serif" font-size="14.00">{c} Filtered</text>
</g>
<!-- LF_D_AUTH&#45;&gt;LF_D_VIEW -->
<g id="edge33" class="edge">
<title>LF_D_AUTH&#45;&gt;LF_D_VIEW</title>
<path fill="none" stroke="#4a4a97" stroke-width="2" d="M883.74,-342.09C883.74,-330.17 883.74,-317.01 883.74,-317.01 883.74,-317.01 927.93,-317.01 927.93,-317.01"/>
<polygon fill="#4a4a97" stroke="#4a4a97" stroke-width="2" points="927.93,-320.51 937.93,-317.01 927.93,-313.51 927.93,-320.51"/>
<text xml:space="preserve" text-anchor="middle" x="880.17" y="-307.51" font-family="Helvetica,sans-Serif" font-size="10.00">Token</text>
</g>
<!-- LF_D_AUTH&#45;&gt;LF_D_CONF -->
<g id="edge34" class="edge">
<title>LF_D_AUTH&#45;&gt;LF_D_CONF</title>
<path fill="none" stroke="#4a4a97" stroke-width="2" d="M892.55,-364.12C892.55,-364.12 955.5,-364.12 955.5,-364.12"/>
<polygon fill="#4a4a97" stroke="#4a4a97" stroke-width="2" points="955.5,-367.62 965.5,-364.12 955.5,-360.62 955.5,-367.62"/>
<text xml:space="preserve" text-anchor="middle" x="910.9" y="-354.62" font-family="Helvetica,sans-Serif" font-size="10.00">Token</text>
</g>
<!-- LF_D_VIEW&#45;&gt;F_CONSULT_SD -->
<g id="edge35" class="edge">
<title>LF_D_VIEW&#45;&gt;F_CONSULT_SD</title>
<path fill="none" stroke="#4a4a97" stroke-width="2" d="M992.74,-250.93C992.74,-182.65 992.74,-43.92 992.74,-43.92 992.74,-43.92 1589.1,-43.92 1589.1,-43.92"/>
<polygon fill="#4a4a97" stroke="#4a4a97" stroke-width="2" points="1589.1,-47.42 1599.1,-43.92 1589.1,-40.42 1589.1,-47.42"/>
<text xml:space="preserve" text-anchor="middle" x="1167.16" y="-34.42" font-family="Helvetica,sans-Serif" font-size="10.00">S/D view</text>
</g>
<!-- LF_D_VIEW&#45;&gt;F_CONSULT_WL -->
<g id="edge36" class="edge">
<title>LF_D_VIEW&#45;&gt;F_CONSULT_WL</title>
<path fill="none" stroke="#4a4a97" stroke-width="2" d="M1042.74,-250.88C1042.74,-198.95 1042.74,-110.92 1042.74,-110.92 1042.74,-110.92 1606.12,-110.92 1606.12,-110.92"/>
<polygon fill="#4a4a97" stroke="#4a4a97" stroke-width="2" points="1606.12,-114.42 1616.12,-110.92 1606.12,-107.42 1606.12,-114.42"/>
<text xml:space="preserve" text-anchor="middle" x="1232.33" y="-101.42" font-family="Helvetica,sans-Serif" font-size="10.00">Loss view</text>
</g>
<!-- LF_D_VIEW&#45;&gt;LF_LTS5 -->
<g id="edge43" class="edge">
<title>LF_D_VIEW&#45;&gt;LF_LTS5</title>
<path fill="none" stroke="#4a4a97" stroke-width="2" d="M1079.74,-325.06C1079.74,-386.02 1079.74,-500.76 1079.74,-500.76 1079.74,-500.76 1837.04,-500.76 1837.04,-500.76"/>
<polygon fill="#4a4a97" stroke="#4a4a97" stroke-width="2" points="1837.04,-504.26 1847.04,-500.76 1837.04,-497.26 1837.04,-504.26"/>
<text xml:space="preserve" text-anchor="middle" x="1357.41" y="-491.26" font-family="Helvetica,sans-Serif" font-size="10.00">Query</text>
</g>
<!-- LF_D_CONF&#45;&gt;LF_ED_CONF -->
<g id="edge41" class="edge">
<title>LF_D_CONF&#45;&gt;LF_ED_CONF</title>
<path fill="none" stroke="#4a4a97" stroke-width="2" d="M1001.74,-391.48C1001.74,-474.46 1001.74,-769.5 1001.74,-769.5 1001.74,-769.5 1160.22,-769.5 1160.22,-769.5"/>
<polygon fill="#4a4a97" stroke="#4a4a97" stroke-width="2" points="1160.22,-773 1170.22,-769.5 1160.22,-766 1160.22,-773"/>
<text xml:space="preserve" text-anchor="middle" x="970.61" y="-650.23" font-family="Helvetica,sans-Serif" font-size="10.00">Threshold cfg.</text>
</g>
<!-- LF_D_CONF&#45;&gt;LF_N_SUB -->
<g id="edge42" class="edge">
<title>LF_D_CONF&#45;&gt;LF_N_SUB</title>
<path fill="none" stroke="#4a4a97" stroke-width="2" d="M1033.74,-391.74C1033.74,-401.02 1033.74,-409.76 1033.74,-409.76 1033.74,-409.76 1366.03,-409.76 1366.03,-409.76"/>
<polygon fill="#4a4a97" stroke="#4a4a97" stroke-width="2" points="1366.03,-413.26 1376.03,-409.76 1366.03,-406.26 1366.03,-413.26"/>
<text xml:space="preserve" text-anchor="middle" x="1169.12" y="-400.26" font-family="Helvetica,sans-Serif" font-size="10.00">Notif. cfg.</text>
</g>
<!-- LF_D_STATUS&#45;&gt;F_CONSULT_SD -->
<g id="edge37" class="edge">
<title>LF_D_STATUS&#45;&gt;F_CONSULT_SD</title>
<path fill="none" stroke="#4a4a97" stroke-width="2" d="M815.74,-267.37C815.74,-205.14 815.74,-30.08 815.74,-30.08 815.74,-30.08 1588.97,-30.08 1588.97,-30.08"/>
<polygon fill="#4a4a97" stroke="#4a4a97" stroke-width="2" points="1588.97,-33.58 1598.97,-30.08 1588.97,-26.58 1588.97,-33.58"/>
<text xml:space="preserve" text-anchor="middle" x="1064.59" y="-20.58" font-family="Helvetica,sans-Serif" font-size="10.00">Live S/D</text>
</g>
<!-- LF_D_STATUS&#45;&gt;F_CONSULT_WL -->
<g id="edge38" class="edge">
<title>LF_D_STATUS&#45;&gt;F_CONSULT_WL</title>
<path fill="none" stroke="#4a4a97" stroke-width="2" d="M845.74,-267.36C845.74,-217.17 845.74,-97.08 845.74,-97.08 845.74,-97.08 1606.05,-97.08 1606.05,-97.08"/>
<polygon fill="#4a4a97" stroke="#4a4a97" stroke-width="2" points="1606.05,-100.58 1616.05,-97.08 1606.05,-93.58 1606.05,-100.58"/>
<text xml:space="preserve" text-anchor="middle" x="1121.26" y="-87.58" font-family="Helvetica,sans-Serif" font-size="10.00">Live loss</text>
</g>
<!-- LF_D_STATUS&#45;&gt;LF_LTS6 -->
<g id="edge44" class="edge">
<title>LF_D_STATUS&#45;&gt;LF_LTS6</title>
<path fill="none" stroke="#4a4a97" stroke-width="2" d="M876.37,-289C896.98,-289 916.74,-289 916.74,-289 916.74,-289 916.74,-541.84 916.74,-541.84 916.74,-541.84 1841.72,-541.84 1841.72,-541.84"/>
<polygon fill="#4a4a97" stroke="#4a4a97" stroke-width="2" points="1841.72,-545.34 1851.72,-541.84 1841.72,-538.34 1841.72,-545.34"/>
<text xml:space="preserve" text-anchor="middle" x="1204.5" y="-532.34" font-family="Helvetica,sans-Serif" font-size="10.00">Recent evts.</text>
</g>
<!-- LF_DE1 -->
<g id="node25" class="node">
<title>LF_DE1</title>
<path fill="#90ee90" stroke="#228b22" stroke-width="2" d="M1735.96,-293.76C1735.96,-293.76 1612.18,-293.76 1612.18,-293.76 1606.18,-293.76 1600.18,-287.76 1600.18,-281.76 1600.18,-281.76 1600.18,-264.24 1600.18,-264.24 1600.18,-258.24 1606.18,-252.24 1612.18,-252.24 1612.18,-252.24 1735.96,-252.24 1735.96,-252.24 1741.96,-252.24 1747.96,-258.24 1747.96,-264.24 1747.96,-264.24 1747.96,-281.76 1747.96,-281.76 1747.96,-287.76 1741.96,-293.76 1735.96,-293.76"/>
<text xml:space="preserve" text-anchor="middle" x="1674.07" y="-274.7" font-family="Helvetica,sans-Serif" font-size="14.00">Make data accessible</text>
<text xml:space="preserve" text-anchor="middle" x="1674.07" y="-259.7" font-family="Helvetica,sans-Serif" font-size="14.00">to aggregators</text>
</g>
<!-- LF_DE1&#45;&gt;ExtDataAgg -->
<g id="edge46" class="edge">
<title>LF_DE1&#45;&gt;ExtDataAgg</title>
<path fill="none" stroke="#4a4a97" stroke-width="2" d="M1736.74,-251.32C1736.74,-233.1 1736.74,-210 1736.74,-210 1736.74,-210 1784.08,-210 1784.08,-210"/>
<polygon fill="#4a4a97" stroke="#4a4a97" stroke-width="2" points="1784.08,-213.5 1794.08,-210 1784.08,-206.5 1784.08,-213.5"/>
<text xml:space="preserve" text-anchor="middle" x="1725.5" y="-200.5" font-family="Helvetica,sans-Serif" font-size="10.00">Export</text>
</g>
<!-- LF_DE1&#45;&gt;LF_LTS5 -->
<g id="edge45" class="edge">
<title>LF_DE1&#45;&gt;LF_LTS5</title>
<path fill="none" stroke="#4a4a97" stroke-width="2" d="M1748.88,-273C1814.24,-273 1898.74,-273 1898.74,-273 1898.74,-273 1898.74,-455.37 1898.74,-455.37"/>
<polygon fill="#4a4a97" stroke="#4a4a97" stroke-width="2" points="1895.24,-455.37 1898.74,-465.37 1902.24,-455.37 1895.24,-455.37"/>
<text xml:space="preserve" text-anchor="middle" x="1870.99" y="-279.76" font-family="Helvetica,sans-Serif" font-size="10.00">Export query</text>
</g>
<!-- F_MEASURE_VOLUME -->
<g id="node26" class="node">
<title>F_MEASURE_VOLUME</title>
<path fill="#f9e79f" stroke="#b7950b" stroke-width="2" d="M158.26,-779.76C158.26,-779.76 83.98,-779.76 83.98,-779.76 77.98,-779.76 71.98,-773.76 71.98,-767.76 71.98,-767.76 71.98,-750.24 71.98,-750.24 71.98,-744.24 77.98,-738.24 83.98,-738.24 83.98,-738.24 158.26,-738.24 158.26,-738.24 164.26,-738.24 170.26,-744.24 170.26,-750.24 170.26,-750.24 170.26,-767.76 170.26,-767.76 170.26,-773.76 164.26,-779.76 158.26,-779.76"/>
<text xml:space="preserve" text-anchor="middle" x="121.12" y="-760.7" font-family="Helvetica,sans-Serif" font-size="14.00">Measure</text>
<text xml:space="preserve" text-anchor="middle" x="121.12" y="-745.7" font-family="Helvetica,sans-Serif" font-size="14.00">water volume</text>
</g>
<!-- F_MEASURE_VOLUME&#45;&gt;LF_DA1 -->
<g id="edge1" class="edge">
<title>F_MEASURE_VOLUME&#45;&gt;LF_DA1</title>
<path fill="none" stroke="#4a4a97" stroke-width="2" d="M120.74,-737.59C120.74,-731.03 120.74,-725.5 120.74,-725.5 120.74,-725.5 271.31,-725.5 271.31,-725.5"/>
<polygon fill="#4a4a97" stroke="#4a4a97" stroke-width="2" points="271.31,-729 281.31,-725.5 271.31,-722 271.31,-729"/>
<text xml:space="preserve" text-anchor="middle" x="173.48" y="-716" font-family="Helvetica,sans-Serif" font-size="10.00">Volume</text>
</g>
<!-- F_MEASURE_FLOW -->
<g id="node27" class="node">
<title>F_MEASURE_FLOW</title>
<path fill="#f9e79f" stroke="#b7950b" stroke-width="2" d="M152.64,-712.76C152.64,-712.76 89.61,-712.76 89.61,-712.76 83.61,-712.76 77.61,-706.76 77.61,-700.76 77.61,-700.76 77.61,-683.24 77.61,-683.24 77.61,-677.24 83.61,-671.24 89.61,-671.24 89.61,-671.24 152.64,-671.24 152.64,-671.24 158.64,-671.24 164.64,-677.24 164.64,-683.24 164.64,-683.24 164.64,-700.76 164.64,-700.76 164.64,-706.76 158.64,-712.76 152.64,-712.76"/>
<text xml:space="preserve" text-anchor="middle" x="121.12" y="-693.7" font-family="Helvetica,sans-Serif" font-size="14.00">Measure</text>
<text xml:space="preserve" text-anchor="middle" x="121.12" y="-678.7" font-family="Helvetica,sans-Serif" font-size="14.00">current flow</text>
</g>
<!-- F_MEASURE_FLOW&#45;&gt;LF_DA1 -->
<g id="edge2" class="edge">
<title>F_MEASURE_FLOW&#45;&gt;LF_DA1</title>
<path fill="none" stroke="#4a4a97" stroke-width="2" d="M165.54,-692C165.54,-692 271.31,-692 271.31,-692"/>
<polygon fill="#4a4a97" stroke="#4a4a97" stroke-width="2" points="271.31,-695.5 281.31,-692 271.31,-688.5 271.31,-695.5"/>
<text xml:space="preserve" text-anchor="middle" x="207.93" y="-682.5" font-family="Helvetica,sans-Serif" font-size="10.00">Flow</text>
</g>
<!-- F_MEASURE_LEVEL -->
<g id="node28" class="node">
<title>F_MEASURE_LEVEL</title>
<path fill="#f9e79f" stroke="#b7950b" stroke-width="2" d="M150.01,-623.76C150.01,-623.76 92.23,-623.76 92.23,-623.76 86.23,-623.76 80.23,-617.76 80.23,-611.76 80.23,-611.76 80.23,-594.24 80.23,-594.24 80.23,-588.24 86.23,-582.24 92.23,-582.24 92.23,-582.24 150.01,-582.24 150.01,-582.24 156.01,-582.24 162.01,-588.24 162.01,-594.24 162.01,-594.24 162.01,-611.76 162.01,-611.76 162.01,-617.76 156.01,-623.76 150.01,-623.76"/>
<text xml:space="preserve" text-anchor="middle" x="121.12" y="-604.7" font-family="Helvetica,sans-Serif" font-size="14.00">Measure</text>
<text xml:space="preserve" text-anchor="middle" x="121.12" y="-589.7" font-family="Helvetica,sans-Serif" font-size="14.00">water level</text>
</g>
<!-- F_MEASURE_LEVEL&#45;&gt;LF_DA1 -->
<g id="edge3" class="edge">
<title>F_MEASURE_LEVEL&#45;&gt;LF_DA1</title>
<path fill="none" stroke="#4a4a97" stroke-width="2" d="M120.74,-624.55C120.74,-639.22 120.74,-655.99 120.74,-655.99 120.74,-655.99 271.31,-655.99 271.31,-655.99"/>
<polygon fill="#4a4a97" stroke="#4a4a97" stroke-width="2" points="271.31,-659.49 281.31,-655.99 271.31,-652.49 271.31,-659.49"/>
<text xml:space="preserve" text-anchor="middle" x="168.68" y="-646.49" font-family="Helvetica,sans-Serif" font-size="10.00">Level</text>
</g>
</g>
</svg>
