<?xml version="1.0" encoding="UTF-8" standalone="no"?>
<!DOCTYPE svg PUBLIC "-//W3C//DTD SVG 1.1//EN"
 "http://www.w3.org/Graphics/SVG/1.1/DTD/svg11.dtd">
<!-- Generated by graphviz version 14.1.4 (20260321.0153)
 -->
<!-- Title: FC_AlertWaterLoss Pages: 1 -->
<svg width="1666pt" height="285pt"
 viewBox="0.00 0.00 1666.00 285.00" xmlns="http://www.w3.org/2000/svg" xmlns:xlink="http://www.w3.org/1999/xlink">
<g id="graph0" class="graph" transform="scale(1 1) rotate(0) translate(25.2 259.6)">
<title>FC_AlertWaterLoss</title>
<polygon fill="white" stroke="none" points="-25.2,25.2 -25.2,-259.6 1640.9,-259.6 1640.9,25.2 -25.2,25.2"/>
<text xml:space="preserve" text-anchor="middle" x="807.85" y="-217.1" font-family="Helvetica,sans-Serif" font-size="14.00">Functional Chain: Alert Water Loss</text>
<!-- F_MEASURE_VOLUME -->
<g id="node1" class="node">
<title>F_MEASURE_VOLUME</title>
<path fill="#f9e79f" stroke="#b7950b" stroke-width="2" d="M110.1,-211.4C110.1,-211.4 17.25,-211.4 17.25,-211.4 11.25,-211.4 5.25,-205.4 5.25,-199.4 5.25,-199.4 5.25,-172 5.25,-172 5.25,-166 11.25,-160 17.25,-160 17.25,-160 110.1,-160 110.1,-160 116.1,-160 122.1,-166 122.1,-172 122.1,-172 122.1,-199.4 122.1,-199.4 122.1,-205.4 116.1,-211.4 110.1,-211.4"/>
<text xml:space="preserve" text-anchor="start" x="16.05" y="-191.9" font-family="Helvetica,sans-Serif" font-weight="bold" font-size="14.00">Measure water</text>
<text xml:space="preserve" text-anchor="start" x="39.67" y="-177.9" font-family="Helvetica,sans-Serif" font-weight="bold" font-size="14.00">volume</text>
<text xml:space="preserve" text-anchor="start" x="23.92" y="-168.65" font-family="Helvetica,sans-Serif" font-style="italic" font-size="9.00">Octave Water Meter</text>
</g>
<!-- SF_AQ10 -->
<g id="node4" class="node">
<title>SF_AQ10</title>
<path fill="#90ee90" stroke="#228b22" stroke-width="2" d="M365.95,-131.4C365.95,-131.4 271.6,-131.4 271.6,-131.4 265.6,-131.4 259.6,-125.4 259.6,-119.4 259.6,-119.4 259.6,-92 259.6,-92 259.6,-86 265.6,-80 271.6,-80 271.6,-80 365.95,-80 365.95,-80 371.95,-80 377.95,-86 377.95,-92 377.95,-92 377.95,-119.4 377.95,-119.4 377.95,-125.4 371.95,-131.4 365.95,-131.4"/>
<text xml:space="preserve" text-anchor="start" x="283.15" y="-111.9" font-family="Helvetica,sans-Serif" font-weight="bold" font-size="14.00">Collect S/D</text>
<text xml:space="preserve" text-anchor="start" x="270.4" y="-97.9" font-family="Helvetica,sans-Serif" font-weight="bold" font-size="14.00">measurements</text>
<text xml:space="preserve" text-anchor="start" x="303.77" y="-88.65" font-family="Helvetica,sans-Serif" font-style="italic" font-size="9.00">System</text>
</g>
<!-- F_MEASURE_VOLUME&#45;&gt;SF_AQ10 -->
<g id="edge1" class="edge">
<title>F_MEASURE_VOLUME&#45;&gt;SF_AQ10</title>
<path fill="none" stroke="#4a4a97" stroke-width="2" d="M123.06,-167.25C159.81,-155.63 207.5,-140.56 246.48,-128.23"/>
<polygon fill="#4a4a97" stroke="#4a4a97" stroke-width="2" points="247.44,-131.6 255.92,-125.25 245.33,-124.93 247.44,-131.6"/>
<text xml:space="preserve" text-anchor="middle" x="193.47" y="-154.07" font-family="Helvetica,sans-Serif" font-size="9.00">Water Volume</text>
</g>
<!-- F_MEASURE_FLOW -->
<g id="node2" class="node">
<title>F_MEASURE_FLOW</title>
<path fill="#f9e79f" stroke="#b7950b" stroke-width="2" d="M115.35,-131.4C115.35,-131.4 12,-131.4 12,-131.4 6,-131.4 0,-125.4 0,-119.4 0,-119.4 0,-92 0,-92 0,-86 6,-80 12,-80 12,-80 115.35,-80 115.35,-80 121.35,-80 127.35,-86 127.35,-92 127.35,-92 127.35,-119.4 127.35,-119.4 127.35,-125.4 121.35,-131.4 115.35,-131.4"/>
<text xml:space="preserve" text-anchor="start" x="10.8" y="-111.9" font-family="Helvetica,sans-Serif" font-weight="bold" font-size="14.00">Measure current</text>
<text xml:space="preserve" text-anchor="start" x="49.8" y="-97.9" font-family="Helvetica,sans-Serif" font-weight="bold" font-size="14.00">flow</text>
<text xml:space="preserve" text-anchor="start" x="23.92" y="-88.65" font-family="Helvetica,sans-Serif" font-style="italic" font-size="9.00">Octave Water Meter</text>
</g>
<!-- F_MEASURE_FLOW&#45;&gt;SF_AQ10 -->
<g id="edge2" class="edge">
<title>F_MEASURE_FLOW&#45;&gt;SF_AQ10</title>
<path fill="none" stroke="#4a4a97" stroke-width="2" d="M128.22,-105.7C164.11,-105.7 209.08,-105.7 246.21,-105.7"/>
<polygon fill="#4a4a97" stroke="#4a4a97" stroke-width="2" points="245.96,-109.2 255.96,-105.7 245.96,-102.2 245.96,-109.2"/>
<text xml:space="preserve" text-anchor="middle" x="193.47" y="-106.9" font-family="Helvetica,sans-Serif" font-size="9.00">Current Flow</text>
</g>
<!-- F_MEASURE_LEVEL -->
<g id="node3" class="node">
<title>F_MEASURE_LEVEL</title>
<path fill="#f9e79f" stroke="#b7950b" stroke-width="2" d="M110.1,-51.4C110.1,-51.4 17.25,-51.4 17.25,-51.4 11.25,-51.4 5.25,-45.4 5.25,-39.4 5.25,-39.4 5.25,-12 5.25,-12 5.25,-6 11.25,0 17.25,0 17.25,0 110.1,0 110.1,0 116.1,0 122.1,-6 122.1,-12 122.1,-12 122.1,-39.4 122.1,-39.4 122.1,-45.4 116.1,-51.4 110.1,-51.4"/>
<text xml:space="preserve" text-anchor="start" x="16.05" y="-31.9" font-family="Helvetica,sans-Serif" font-weight="bold" font-size="14.00">Measure water</text>
<text xml:space="preserve" text-anchor="start" x="48.67" y="-17.9" font-family="Helvetica,sans-Serif" font-weight="bold" font-size="14.00">level</text>
<text xml:space="preserve" text-anchor="start" x="36.67" y="-8.65" font-family="Helvetica,sans-Serif" font-style="italic" font-size="9.00">Level Sensor</text>
</g>
<!-- F_MEASURE_LEVEL&#45;&gt;SF_AQ10 -->
<g id="edge3" class="edge">
<title>F_MEASURE_LEVEL&#45;&gt;SF_AQ10</title>
<path fill="none" stroke="#4a4a97" stroke-width="2" d="M123.06,-44.15C159.81,-55.77 207.5,-70.84 246.48,-83.17"/>
<polygon fill="#4a4a97" stroke="#4a4a97" stroke-width="2" points="245.33,-86.47 255.92,-86.15 247.44,-79.8 245.33,-86.47"/>
<text xml:space="preserve" text-anchor="middle" x="193.47" y="-76.42" font-family="Helvetica,sans-Serif" font-size="9.00">Water Level</text>
</g>
<!-- SF_AQ8 -->
<g id="node5" class="node">
<title>SF_AQ8</title>
<path fill="#90ee90" stroke="#228b22" stroke-width="2" d="M591.05,-131.4C591.05,-131.4 526.7,-131.4 526.7,-131.4 520.7,-131.4 514.7,-125.4 514.7,-119.4 514.7,-119.4 514.7,-92 514.7,-92 514.7,-86 520.7,-80 526.7,-80 526.7,-80 591.05,-80 591.05,-80 597.05,-80 603.05,-86 603.05,-92 603.05,-92 603.05,-119.4 603.05,-119.4 603.05,-125.4 597.05,-131.4 591.05,-131.4"/>
<text xml:space="preserve" text-anchor="start" x="531.12" y="-111.9" font-family="Helvetica,sans-Serif" font-weight="bold" font-size="14.00">Quantify</text>
<text xml:space="preserve" text-anchor="start" x="525.5" y="-97.9" font-family="Helvetica,sans-Serif" font-weight="bold" font-size="14.00">water loss</text>
<text xml:space="preserve" text-anchor="start" x="543.87" y="-88.65" font-family="Helvetica,sans-Serif" font-style="italic" font-size="9.00">System</text>
</g>
<!-- SF_AQ10&#45;&gt;SF_AQ8 -->
<g id="edge4" class="edge">
<title>SF_AQ10&#45;&gt;SF_AQ8</title>
<path fill="none" stroke="#4a4a97" stroke-width="2" d="M378.94,-105.7C416.39,-105.7 464.54,-105.7 501.45,-105.7"/>
<polygon fill="#4a4a97" stroke="#4a4a97" stroke-width="2" points="500.98,-109.2 510.98,-105.7 500.98,-102.2 500.98,-109.2"/>
<text xml:space="preserve" text-anchor="middle" x="446.32" y="-116.65" font-family="Helvetica,sans-Serif" font-size="9.00">S/D</text>
<text xml:space="preserve" text-anchor="middle" x="446.32" y="-106.9" font-family="Helvetica,sans-Serif" font-size="9.00">measurements</text>
</g>
<!-- SF_AQ7 -->
<g id="node6" class="node">
<title>SF_AQ7</title>
<path fill="#90ee90" stroke="#228b22" stroke-width="2" d="M1061.75,-168.4C1061.75,-168.4 921.65,-168.4 921.65,-168.4 915.65,-168.4 909.65,-162.4 909.65,-156.4 909.65,-156.4 909.65,-129 909.65,-129 909.65,-123 915.65,-117 921.65,-117 921.65,-117 1061.75,-117 1061.75,-117 1067.75,-117 1073.75,-123 1073.75,-129 1073.75,-129 1073.75,-156.4 1073.75,-156.4 1073.75,-162.4 1067.75,-168.4 1061.75,-168.4"/>
<text xml:space="preserve" text-anchor="start" x="928.7" y="-148.9" font-family="Helvetica,sans-Serif" font-weight="bold" font-size="14.00">Notify of significant</text>
<text xml:space="preserve" text-anchor="start" x="935.07" y="-134.9" font-family="Helvetica,sans-Serif" font-weight="bold" font-size="14.00">water loss events</text>
<text xml:space="preserve" text-anchor="start" x="920.45" y="-125.65" font-family="Helvetica,sans-Serif" font-style="italic" font-size="9.00">System — Path A: Significant event</text>
</g>
<!-- SF_AQ8&#45;&gt;SF_AQ7 -->
<g id="edge5" class="edge">
<title>SF_AQ8&#45;&gt;SF_AQ7</title>
<path fill="none" stroke="#4a4a97" stroke-width="2" d="M603.96,-109.49C672.3,-115.36 805.39,-126.78 896.15,-134.58"/>
<polygon fill="#4a4a97" stroke="#4a4a97" stroke-width="2" points="895.66,-138.05 905.93,-135.42 896.26,-131.08 895.66,-138.05"/>
<text xml:space="preserve" text-anchor="middle" x="668.42" y="-128.17" font-family="Helvetica,sans-Serif" font-size="9.00">Water loss</text>
<text xml:space="preserve" text-anchor="middle" x="668.42" y="-118.42" font-family="Helvetica,sans-Serif" font-size="9.00">quantification</text>
</g>
<!-- SF_AQ16 -->
<g id="node7" class="node">
<title>SF_AQ16</title>
<path fill="#90ee90" stroke="#228b22" stroke-width="2" d="M859.65,-95.4C859.65,-95.4 745.8,-95.4 745.8,-95.4 739.8,-95.4 733.8,-89.4 733.8,-83.4 733.8,-83.4 733.8,-56 733.8,-56 733.8,-50 739.8,-44 745.8,-44 745.8,-44 859.65,-44 859.65,-44 865.65,-44 871.65,-50 871.65,-56 871.65,-56 871.65,-83.4 871.65,-83.4 871.65,-89.4 865.65,-95.4 859.65,-95.4"/>
<text xml:space="preserve" text-anchor="start" x="744.6" y="-75.9" font-family="Helvetica,sans-Serif" font-weight="bold" font-size="14.00">Predict water loss</text>
<text xml:space="preserve" text-anchor="start" x="771.22" y="-61.9" font-family="Helvetica,sans-Serif" font-weight="bold" font-size="14.00">event risk</text>
<text xml:space="preserve" text-anchor="start" x="744.97" y="-52.65" font-family="Helvetica,sans-Serif" font-style="italic" font-size="9.00">System — Path B: Predictive</text>
</g>
<!-- SF_AQ8&#45;&gt;SF_AQ16 -->
<g id="edge7" class="edge">
<title>SF_AQ8&#45;&gt;SF_AQ16</title>
<path fill="none" stroke="#4a4a97" stroke-width="2" d="M603.89,-94C615.88,-91.12 628.91,-88.27 641.05,-86.2 666.71,-81.82 694.88,-78.45 720.37,-75.93"/>
<polygon fill="#4a4a97" stroke="#4a4a97" stroke-width="2" points="720.4,-79.44 730.03,-75.01 719.74,-72.47 720.4,-79.44"/>
<text xml:space="preserve" text-anchor="middle" x="668.42" y="-97.15" font-family="Helvetica,sans-Serif" font-size="9.00">Water loss</text>
<text xml:space="preserve" text-anchor="middle" x="668.42" y="-87.4" font-family="Helvetica,sans-Serif" font-size="9.00">quantification</text>
</g>
<!-- F_IMPL_WL_MIT -->
<g id="node9" class="node">
<title>F_IMPL_WL_MIT</title>
<path fill="#f9e79f" stroke="#b7950b" stroke-width="2" d="M1603.7,-127.4C1603.7,-127.4 1466.6,-127.4 1466.6,-127.4 1460.6,-127.4 1454.6,-121.4 1454.6,-115.4 1454.6,-115.4 1454.6,-88 1454.6,-88 1454.6,-82 1460.6,-76 1466.6,-76 1466.6,-76 1603.7,-76 1603.7,-76 1609.7,-76 1615.7,-82 1615.7,-88 1615.7,-88 1615.7,-115.4 1615.7,-115.4 1615.7,-121.4 1609.7,-127.4 1603.7,-127.4"/>
<text xml:space="preserve" text-anchor="start" x="1465.4" y="-107.9" font-family="Helvetica,sans-Serif" font-weight="bold" font-size="14.00">Implement water loss</text>
<text xml:space="preserve" text-anchor="start" x="1474.4" y="-93.9" font-family="Helvetica,sans-Serif" font-weight="bold" font-size="14.00">mitigation strategy</text>
<text xml:space="preserve" text-anchor="start" x="1514.52" y="-84.65" font-family="Helvetica,sans-Serif" font-style="italic" font-size="9.00">Employee</text>
</g>
<!-- SF_AQ7&#45;&gt;F_IMPL_WL_MIT -->
<g id="edge6" class="edge">
<title>SF_AQ7&#45;&gt;F_IMPL_WL_MIT</title>
<path fill="none" stroke="#4a4a97" stroke-width="2" d="M1074.38,-137.02C1159.76,-131.01 1297.62,-121.11 1416.6,-111.7 1424.51,-111.07 1432.71,-110.41 1440.94,-109.73"/>
<polygon fill="#4a4a97" stroke="#4a4a97" stroke-width="2" points="1441.16,-113.23 1450.84,-108.91 1440.58,-106.25 1441.16,-113.23"/>
<text xml:space="preserve" text-anchor="middle" x="1201.3" y="-145.21" font-family="Helvetica,sans-Serif" font-size="9.00">Significant water loss</text>
<text xml:space="preserve" text-anchor="middle" x="1201.3" y="-135.46" font-family="Helvetica,sans-Serif" font-size="9.00">event</text>
</g>
<!-- SF_AQ11 -->
<g id="node8" class="node">
<title>SF_AQ11</title>
<path fill="#90ee90" stroke="#228b22" stroke-width="2" d="M1278.85,-85.4C1278.85,-85.4 1123.75,-85.4 1123.75,-85.4 1117.75,-85.4 1111.75,-79.4 1111.75,-73.4 1111.75,-73.4 1111.75,-46 1111.75,-46 1111.75,-40 1117.75,-34 1123.75,-34 1123.75,-34 1278.85,-34 1278.85,-34 1284.85,-34 1290.85,-40 1290.85,-46 1290.85,-46 1290.85,-73.4 1290.85,-73.4 1290.85,-79.4 1284.85,-85.4 1278.85,-85.4"/>
<text xml:space="preserve" text-anchor="start" x="1122.55" y="-65.9" font-family="Helvetica,sans-Serif" font-weight="bold" font-size="14.00">Notify of high water loss</text>
<text xml:space="preserve" text-anchor="start" x="1147.3" y="-51.9" font-family="Helvetica,sans-Serif" font-weight="bold" font-size="14.00">event probability</text>
<text xml:space="preserve" text-anchor="start" x="1143.55" y="-42.65" font-family="Helvetica,sans-Serif" font-style="italic" font-size="9.00">System — Path B: Predictive</text>
</g>
<!-- SF_AQ16&#45;&gt;SF_AQ11 -->
<g id="edge8" class="edge">
<title>SF_AQ16&#45;&gt;SF_AQ11</title>
<path fill="none" stroke="#4a4a97" stroke-width="2" d="M872.35,-67.97C934.54,-66.4 1027.04,-64.07 1097.96,-62.28"/>
<polygon fill="#4a4a97" stroke="#4a4a97" stroke-width="2" points="1098.01,-65.78 1107.91,-62.03 1097.83,-58.78 1098.01,-65.78"/>
<text xml:space="preserve" text-anchor="middle" x="991.7" y="-77.97" font-family="Helvetica,sans-Serif" font-size="9.00">Water loss risk</text>
<text xml:space="preserve" text-anchor="middle" x="991.7" y="-68.22" font-family="Helvetica,sans-Serif" font-size="9.00">prediction</text>
</g>
<!-- SF_AQ11&#45;&gt;F_IMPL_WL_MIT -->
<g id="edge9" class="edge">
<title>SF_AQ11&#45;&gt;F_IMPL_WL_MIT</title>
<path fill="none" stroke="#4a4a97" stroke-width="2" d="M1291.67,-71.01C1337.82,-76.85 1394.09,-83.97 1440.8,-89.89"/>
<polygon fill="#4a4a97" stroke="#4a4a97" stroke-width="2" points="1440.34,-93.35 1450.7,-91.14 1441.22,-86.41 1440.34,-93.35"/>
<text xml:space="preserve" text-anchor="middle" x="1372.72" y="-96.65" font-family="Helvetica,sans-Serif" font-size="9.00">High water loss event</text>
<text xml:space="preserve" text-anchor="middle" x="1372.72" y="-86.9" font-family="Helvetica,sans-Serif" font-size="9.00">probability</text>
</g>
</g>
</svg>
