<?xml version="1.0" encoding="UTF-8" standalone="no"?>
<!DOCTYPE svg PUBLIC "-//W3C//DTD SVG 1.1//EN"
 "http://www.w3.org/Graphics/SVG/1.1/DTD/svg11.dtd">
<!-- Generated by graphviz version 14.1.4 (20260321.0153)
 -->
<!-- Title: FC_AlertInsufficientSupply Pages: 1 -->
<svg width="1434pt" height="285pt"
 viewBox="0.00 0.00 1434.00 285.00" xmlns="http://www.w3.org/2000/svg" xmlns:xlink="http://www.w3.org/1999/xlink">
<g id="graph0" class="graph" transform="scale(1 1) rotate(0) translate(25.2 259.6)">
<title>FC_AlertInsufficientSupply</title>
<polygon fill="white" stroke="none" points="-25.2,25.2 -25.2,-259.6 1409.05,-259.6 1409.05,25.2 -25.2,25.2"/>
<text xml:space="preserve" text-anchor="middle" x="691.92" y="-217.1" font-family="Helvetica,sans-Serif" font-size="14.00">Functional Chain: Alert Insufficient Supply</text>
<!-- F_MEASURE_VOLUME -->
<g id="node1" class="node">
<title>F_MEASURE_VOLUME</title>
<path fill="#f9e79f" stroke="#b7950b" stroke-width="2" d="M110.1,-211.4C110.1,-211.4 17.25,-211.4 17.25,-211.4 11.25,-211.4 5.25,-205.4 5.25,-199.4 5.25,-199.4 5.25,-172 5.25,-172 5.25,-166 11.25,-160 17.25,-160 17.25,-160 110.1,-160 110.1,-160 116.1,-160 122.1,-166 122.1,-172 122.1,-172 122.1,-199.4 122.1,-199.4 122.1,-205.4 116.1,-211.4 110.1,-211.4"/>
<text xml:space="preserve" text-anchor="start" x="16.05" y="-191.9" font-family="Helvetica,sans-Serif" font-weight="bold" font-size="14.00">Measure water</text>
<text xml:space="preserve" text-anchor="start" x="39.67" y="-177.9" font-family="Helvetica,sans-Serif" font-weight="bold" font-size="14.00">volume</text>
<text xml:space="preserve" text-anchor="start" x="23.92" y="-168.65" font-family="Helvetica,sans-Serif" font-style="italic" font-size="9.00">Octave Water Meter</text>
</g>
<!-- SF_AQ10 -->
<g id="node4" class="node">
<title>SF_AQ10</title>
<path fill="#90ee90" stroke="#228b22" stroke-width="2" d="M365.95,-131.4C365.95,-131.4 271.6,-131.4 271.6,-131.4 265.6,-131.4 259.6,-125.4 259.6,-119.4 259.6,-119.4 259.6,-92 259.6,-92 259.6,-86 265.6,-80 271.6,-80 271.6,-80 365.95,-80 365.95,-80 371.95,-80 377.95,-86 377.95,-92 377.95,-92 377.95,-119.4 377.95,-119.4 377.95,-125.4 371.95,-131.4 365.95,-131.4"/>
<text xml:space="preserve" text-anchor="start" x="283.15" y="-111.9" font-family="Helvetica,sans-Serif" font-weight="bold" font-size="14.00">Collect S/D</text>
<text xml:space="preserve" text-anchor="start" x="270.4" y="-97.9" font-family="Helvetica,sans-Serif" font-weight="bold" font-size="14.00">measurements</text>
<text xml:space="preserve" text-anchor="start" x="303.77" y="-88.65" font-family="Helvetica,sans-Serif" font-style="italic" font-size="9.00">System</text>
</g>
<!-- F_MEASURE_VOLUME&#45;&gt;SF_AQ10 -->
<g id="edge1" class="edge">
<title>F_MEASURE_VOLUME&#45;&gt;SF_AQ10</title>
<path fill="none" stroke="#4a4a97" stroke-width="2" d="M123.06,-167.25C159.81,-155.63 207.5,-140.56 246.48,-128.23"/>
<polygon fill="#4a4a97" stroke="#4a4a97" stroke-width="2" points="247.44,-131.6 255.92,-125.25 245.33,-124.93 247.44,-131.6"/>
<text xml:space="preserve" text-anchor="middle" x="193.47" y="-154.07" font-family="Helvetica,sans-Serif" font-size="9.00">Water Volume</text>
</g>
<!-- F_MEASURE_FLOW -->
<g id="node2" class="node">
<title>F_MEASURE_FLOW</title>
<path fill="#f9e79f" stroke="#b7950b" stroke-width="2" d="M115.35,-131.4C115.35,-131.4 12,-131.4 12,-131.4 6,-131.4 0,-125.4 0,-119.4 0,-119.4 0,-92 0,-92 0,-86 6,-80 12,-80 12,-80 115.35,-80 115.35,-80 121.35,-80 127.35,-86 127.35,-92 127.35,-92 127.35,-119.4 127.35,-119.4 127.35,-125.4 121.35,-131.4 115.35,-131.4"/>
<text xml:space="preserve" text-anchor="start" x="10.8" y="-111.9" font-family="Helvetica,sans-Serif" font-weight="bold" font-size="14.00">Measure current</text>
<text xml:space="preserve" text-anchor="start" x="49.8" y="-97.9" font-family="Helvetica,sans-Serif" font-weight="bold" font-size="14.00">flow</text>
<text xml:space="preserve" text-anchor="start" x="23.92" y="-88.65" font-family="Helvetica,sans-Serif" font-style="italic" font-size="9.00">Octave Water Meter</text>
</g>
<!-- F_MEASURE_FLOW&#45;&gt;SF_AQ10 -->
<g id="edge2" class="edge">
<title>F_MEASURE_FLOW&#45;&gt;SF_AQ10</title>
<path fill="none" stroke="#4a4a97" stroke-width="2" d="M128.22,-105.7C164.11,-105.7 209.08,-105.7 246.21,-105.7"/>
<polygon fill="#4a4a97" stroke="#4a4a97" stroke-width="2" points="245.96,-109.2 255.96,-105.7 245.96,-102.2 245.96,-109.2"/>
<text xml:space="preserve" text-anchor="middle" x="193.47" y="-106.9" font-family="Helvetica,sans-Serif" font-size="9.00">Current Flow</text>
</g>
<!-- F_MEASURE_LEVEL -->
<g id="node3" class="node">
<title>F_MEASURE_LEVEL</title>
<path fill="#f9e79f" stroke="#b7950b" stroke-width="2" d="M110.1,-51.4C110.1,-51.4 17.25,-51.4 17.25,-51.4 11.25,-51.4 5.25,-45.4 5.25,-39.4 5.25,-39.4 5.25,-12 5.25,-12 5.25,-6 11.25,0 17.25,0 17.25,0 110.1,0 110.1,0 116.1,0 122.1,-6 122.1,-12 122.1,-12 122.1,-39.4 122.1,-39.4 122.1,-45.4 116.1,-51.4 110.1,-51.4"/>
<text xml:space="preserve" text-anchor="start" x="16.05" y="-31.9" font-family="Helvetica,sans-Serif" font-weight="bold" font-size="14.00">Measure water</text>
<text xml:space="preserve" text-anchor="start" x="48.67" y="-17.9" font-family="Helvetica,sans-Serif" font-weight="bold" font-size="14.00">level</text>
<text xml:space="preserve" text-anchor="start" x="36.67" y="-8.65" font-family="Helvetica,sans-Serif" font-style="italic" font-size="9.00">Level Sensor</text>
</g>
<!-- F_MEASURE_LEVEL&#45;&gt;SF_AQ10 -->
<g id="edge3" class="edge">
<title>F_MEASURE_LEVEL&#45;&gt;SF_AQ10</title>
<path fill="none" stroke="#4a4a97" stroke-width="2" d="M123.06,-44.15C159.81,-55.77 207.5,-70.84 246.48,-83.17"/>
<polygon fill="#4a4a97" stroke="#4a4a97" stroke-width="2" points="245.33,-86.47 255.92,-86.15 247.44,-79.8 245.33,-86.47"/>
<text xml:space="preserve" text-anchor="middle" x="193.47" y="-76.42" font-family="Helvetica,sans-Serif" font-size="9.00">Water Level</text>
</g>
<!-- SF_AQ5 -->
<g id="node5" class="node">
<title>SF_AQ5</title>
<path fill="#90ee90" stroke="#228b22" stroke-width="2" d="M847.15,-168.4C847.15,-168.4 719.05,-168.4 719.05,-168.4 713.05,-168.4 707.05,-162.4 707.05,-156.4 707.05,-156.4 707.05,-129 707.05,-129 707.05,-123 713.05,-117 719.05,-117 719.05,-117 847.15,-117 847.15,-117 853.15,-117 859.15,-123 859.15,-129 859.15,-129 859.15,-156.4 859.15,-156.4 859.15,-162.4 853.15,-168.4 847.15,-168.4"/>
<text xml:space="preserve" text-anchor="start" x="717.85" y="-148.9" font-family="Helvetica,sans-Serif" font-weight="bold" font-size="14.00">Notify of insufficient</text>
<text xml:space="preserve" text-anchor="start" x="738.1" y="-134.9" font-family="Helvetica,sans-Serif" font-weight="bold" font-size="14.00">supply events</text>
<text xml:space="preserve" text-anchor="start" x="725.72" y="-125.65" font-family="Helvetica,sans-Serif" font-style="italic" font-size="9.00">System — Path A: Real&#45;time</text>
</g>
<!-- SF_AQ10&#45;&gt;SF_AQ5 -->
<g id="edge4" class="edge">
<title>SF_AQ10&#45;&gt;SF_AQ5</title>
<path fill="none" stroke="#4a4a97" stroke-width="2" d="M378.8,-110.42C458.43,-116.8 600.93,-128.2 693.46,-135.61"/>
<polygon fill="#4a4a97" stroke="#4a4a97" stroke-width="2" points="692.91,-139.07 703.16,-136.38 693.47,-132.1 692.91,-139.07"/>
<text xml:space="preserve" text-anchor="middle" x="446.32" y="-128.92" font-family="Helvetica,sans-Serif" font-size="9.00">S/D</text>
<text xml:space="preserve" text-anchor="middle" x="446.32" y="-119.17" font-family="Helvetica,sans-Serif" font-size="9.00">measurements</text>
</g>
<!-- SF_AQ6 -->
<g id="node6" class="node">
<title>SF_AQ6</title>
<path fill="#90ee90" stroke="#228b22" stroke-width="2" d="M657.05,-95.4C657.05,-95.4 526.7,-95.4 526.7,-95.4 520.7,-95.4 514.7,-89.4 514.7,-83.4 514.7,-83.4 514.7,-56 514.7,-56 514.7,-50 520.7,-44 526.7,-44 526.7,-44 657.05,-44 657.05,-44 663.05,-44 669.05,-50 669.05,-56 669.05,-56 669.05,-83.4 669.05,-83.4 669.05,-89.4 663.05,-95.4 657.05,-95.4"/>
<text xml:space="preserve" text-anchor="start" x="525.5" y="-75.9" font-family="Helvetica,sans-Serif" font-weight="bold" font-size="14.00">Predict water supply</text>
<text xml:space="preserve" text-anchor="start" x="551.75" y="-61.9" font-family="Helvetica,sans-Serif" font-weight="bold" font-size="14.00">and demand</text>
<text xml:space="preserve" text-anchor="start" x="534.12" y="-52.65" font-family="Helvetica,sans-Serif" font-style="italic" font-size="9.00">System — Path B: Predictive</text>
</g>
<!-- SF_AQ10&#45;&gt;SF_AQ6 -->
<g id="edge6" class="edge">
<title>SF_AQ10&#45;&gt;SF_AQ6</title>
<path fill="none" stroke="#4a4a97" stroke-width="2" d="M378.86,-92.69C391.08,-90.29 403.9,-87.98 415.95,-86.2 443.56,-82.11 473.78,-78.84 501.22,-76.32"/>
<polygon fill="#4a4a97" stroke="#4a4a97" stroke-width="2" points="501.36,-79.82 511.01,-75.45 500.74,-72.85 501.36,-79.82"/>
<text xml:space="preserve" text-anchor="middle" x="446.32" y="-97.15" font-family="Helvetica,sans-Serif" font-size="9.00">S/D</text>
<text xml:space="preserve" text-anchor="middle" x="446.32" y="-87.4" font-family="Helvetica,sans-Serif" font-size="9.00">measurements</text>
</g>
<!-- F_DEF_DIST -->
<g id="node8" class="node">
<title>F_DEF_DIST</title>
<path fill="#f9e79f" stroke="#b7950b" stroke-width="2" d="M1371.85,-127.4C1371.85,-127.4 1264,-127.4 1264,-127.4 1258,-127.4 1252,-121.4 1252,-115.4 1252,-115.4 1252,-88 1252,-88 1252,-82 1258,-76 1264,-76 1264,-76 1371.85,-76 1371.85,-76 1377.85,-76 1383.85,-82 1383.85,-88 1383.85,-88 1383.85,-115.4 1383.85,-115.4 1383.85,-121.4 1377.85,-127.4 1371.85,-127.4"/>
<text xml:space="preserve" text-anchor="start" x="1277.42" y="-107.9" font-family="Helvetica,sans-Serif" font-weight="bold" font-size="14.00">Define water</text>
<text xml:space="preserve" text-anchor="start" x="1262.8" y="-93.9" font-family="Helvetica,sans-Serif" font-weight="bold" font-size="14.00">distribution rules</text>
<text xml:space="preserve" text-anchor="start" x="1297.3" y="-84.65" font-family="Helvetica,sans-Serif" font-style="italic" font-size="9.00">Employee</text>
</g>
<!-- SF_AQ5&#45;&gt;F_DEF_DIST -->
<g id="edge5" class="edge">
<title>SF_AQ5&#45;&gt;F_DEF_DIST</title>
<path fill="none" stroke="#4a4a97" stroke-width="2" d="M859.93,-139.15C945.9,-134.81 1090.22,-126.54 1214,-114.7 1221.88,-113.95 1230.09,-113.07 1238.29,-112.13"/>
<polygon fill="#4a4a97" stroke="#4a4a97" stroke-width="2" points="1238.58,-115.62 1248.1,-110.97 1237.75,-108.67 1238.58,-115.62"/>
<text xml:space="preserve" text-anchor="middle" x="989.32" y="-138.26" font-family="Helvetica,sans-Serif" font-size="9.00">Insufficient supply event</text>
</g>
<!-- SF_AQ12 -->
<g id="node7" class="node">
<title>SF_AQ12</title>
<path fill="#90ee90" stroke="#228b22" stroke-width="2" d="M1069.5,-85.4C1069.5,-85.4 909.15,-85.4 909.15,-85.4 903.15,-85.4 897.15,-79.4 897.15,-73.4 897.15,-73.4 897.15,-46 897.15,-46 897.15,-40 903.15,-34 909.15,-34 909.15,-34 1069.5,-34 1069.5,-34 1075.5,-34 1081.5,-40 1081.5,-46 1081.5,-46 1081.5,-73.4 1081.5,-73.4 1081.5,-79.4 1075.5,-85.4 1069.5,-85.4"/>
<text xml:space="preserve" text-anchor="start" x="907.95" y="-65.9" font-family="Helvetica,sans-Serif" font-weight="bold" font-size="14.00">Notify of high insufficient</text>
<text xml:space="preserve" text-anchor="start" x="931.2" y="-51.9" font-family="Helvetica,sans-Serif" font-weight="bold" font-size="14.00">supply probability</text>
<text xml:space="preserve" text-anchor="start" x="931.57" y="-42.65" font-family="Helvetica,sans-Serif" font-style="italic" font-size="9.00">System — Path B: Predictive</text>
</g>
<!-- SF_AQ6&#45;&gt;SF_AQ12 -->
<g id="edge7" class="edge">
<title>SF_AQ6&#45;&gt;SF_AQ12</title>
<path fill="none" stroke="#4a4a97" stroke-width="2" d="M669.59,-67.76C730.47,-66.22 816.21,-64.05 883.43,-62.35"/>
<polygon fill="#4a4a97" stroke="#4a4a97" stroke-width="2" points="883.25,-65.86 893.16,-62.11 883.07,-58.86 883.25,-65.86"/>
<text xml:space="preserve" text-anchor="middle" x="783.1" y="-67.95" font-family="Helvetica,sans-Serif" font-size="9.00">S/D predictions</text>
</g>
<!-- SF_AQ12&#45;&gt;F_DEF_DIST -->
<g id="edge8" class="edge">
<title>SF_AQ12&#45;&gt;F_DEF_DIST</title>
<path fill="none" stroke="#4a4a97" stroke-width="2" d="M1082.17,-71.51C1131.32,-77.83 1191.23,-85.54 1238.22,-91.58"/>
<polygon fill="#4a4a97" stroke="#4a4a97" stroke-width="2" points="1237.75,-95.05 1248.11,-92.85 1238.64,-88.1 1237.75,-95.05"/>
<text xml:space="preserve" text-anchor="middle" x="1166.75" y="-99.06" font-family="Helvetica,sans-Serif" font-size="9.00">High insufficient supply</text>
<text xml:space="preserve" text-anchor="middle" x="1166.75" y="-89.31" font-family="Helvetica,sans-Serif" font-size="9.00">probability</text>
</g>
</g>
</svg>
