<?xml version="1.0" encoding="UTF-8" standalone="no"?>
<!DOCTYPE svg PUBLIC "-//W3C//DTD SVG 1.1//EN"
 "http://www.w3.org/Graphics/SVG/1.1/DTD/svg11.dtd">
<!-- Generated by graphviz version 14.1.4 (20260321.0153)
 -->
<!-- Title: FC_ConfigureAlerts Pages: 1 -->
<svg width="565pt" height="365pt"
 viewBox="0.00 0.00 565.00 365.00" xmlns="http://www.w3.org/2000/svg" xmlns:xlink="http://www.w3.org/1999/xlink">
<g id="graph0" class="graph" transform="scale(1 1) rotate(0) translate(25.2 339.6)">
<title>FC_ConfigureAlerts</title>
<polygon fill="white" stroke="none" points="-25.2,25.2 -25.2,-339.6 539.65,-339.6 539.65,25.2 -25.2,25.2"/>
<text xml:space="preserve" text-anchor="middle" x="257.23" y="-297.1" font-family="Helvetica,sans-Serif" font-size="14.00">Functional Chain: Configure Alerts</text>
<!-- F_DEF_DIST -->
<g id="node1" class="node">
<title>F_DEF_DIST</title>
<path fill="#f9e79f" stroke="#b7950b" stroke-width="2" d="M134.48,-91.4C134.48,-91.4 26.62,-91.4 26.62,-91.4 20.62,-91.4 14.63,-85.4 14.63,-79.4 14.63,-79.4 14.63,-52 14.63,-52 14.63,-46 20.63,-40 26.63,-40 26.63,-40 134.48,-40 134.48,-40 140.48,-40 146.48,-46 146.48,-52 146.48,-52 146.48,-79.4 146.48,-79.4 146.48,-85.4 140.48,-91.4 134.48,-91.4"/>
<text xml:space="preserve" text-anchor="start" x="40.05" y="-71.9" font-family="Helvetica,sans-Serif" font-weight="bold" font-size="14.00">Define water</text>
<text xml:space="preserve" text-anchor="start" x="25.43" y="-57.9" font-family="Helvetica,sans-Serif" font-weight="bold" font-size="14.00">distribution rules</text>
<text xml:space="preserve" text-anchor="start" x="59.93" y="-48.65" font-family="Helvetica,sans-Serif" font-style="italic" font-size="9.00">Employee</text>
</g>
<!-- SF_AQ5 -->
<g id="node3" class="node">
<title>SF_AQ5</title>
<path fill="#90ee90" stroke="#228b22" stroke-width="2" d="M486.33,-131.4C486.33,-131.4 358.23,-131.4 358.23,-131.4 352.23,-131.4 346.23,-125.4 346.23,-119.4 346.23,-119.4 346.23,-92 346.23,-92 346.23,-86 352.23,-80 358.23,-80 358.23,-80 486.33,-80 486.33,-80 492.33,-80 498.33,-86 498.33,-92 498.33,-92 498.33,-119.4 498.33,-119.4 498.33,-125.4 492.33,-131.4 486.33,-131.4"/>
<text xml:space="preserve" text-anchor="start" x="357.03" y="-111.9" font-family="Helvetica,sans-Serif" font-weight="bold" font-size="14.00">Notify of insufficient</text>
<text xml:space="preserve" text-anchor="start" x="377.28" y="-97.9" font-family="Helvetica,sans-Serif" font-weight="bold" font-size="14.00">supply events</text>
<text xml:space="preserve" text-anchor="start" x="407.28" y="-88.65" font-family="Helvetica,sans-Serif" font-style="italic" font-size="9.00">System</text>
</g>
<!-- F_DEF_DIST&#45;&gt;SF_AQ5 -->
<g id="edge1" class="edge">
<title>F_DEF_DIST&#45;&gt;SF_AQ5</title>
<path fill="none" stroke="#4a4a97" stroke-width="2" d="M147.46,-73.46C200.2,-79.67 274.66,-88.44 332.63,-95.26"/>
<polygon fill="#4a4a97" stroke="#4a4a97" stroke-width="2" points="332.13,-98.73 342.47,-96.42 332.95,-91.78 332.13,-98.73"/>
<text xml:space="preserve" text-anchor="middle" x="245.6" y="-101.41" font-family="Helvetica,sans-Serif" font-size="9.00">Insufficient supply</text>
<text xml:space="preserve" text-anchor="middle" x="245.6" y="-91.66" font-family="Helvetica,sans-Serif" font-size="9.00">alert criteria</text>
</g>
<!-- SF_AQ12 -->
<g id="node4" class="node">
<title>SF_AQ12</title>
<path fill="#90ee90" stroke="#228b22" stroke-width="2" d="M502.45,-51.4C502.45,-51.4 342.1,-51.4 342.1,-51.4 336.1,-51.4 330.1,-45.4 330.1,-39.4 330.1,-39.4 330.1,-12 330.1,-12 330.1,-6 336.1,0 342.1,0 342.1,0 502.45,0 502.45,0 508.45,0 514.45,-6 514.45,-12 514.45,-12 514.45,-39.4 514.45,-39.4 514.45,-45.4 508.45,-51.4 502.45,-51.4"/>
<text xml:space="preserve" text-anchor="start" x="340.9" y="-31.9" font-family="Helvetica,sans-Serif" font-weight="bold" font-size="14.00">Notify of high insufficient</text>
<text xml:space="preserve" text-anchor="start" x="364.15" y="-17.9" font-family="Helvetica,sans-Serif" font-weight="bold" font-size="14.00">supply probability</text>
<text xml:space="preserve" text-anchor="start" x="407.28" y="-8.65" font-family="Helvetica,sans-Serif" font-style="italic" font-size="9.00">System</text>
</g>
<!-- F_DEF_DIST&#45;&gt;SF_AQ12 -->
<g id="edge2" class="edge">
<title>F_DEF_DIST&#45;&gt;SF_AQ12</title>
<path fill="none" stroke="#4a4a97" stroke-width="2" d="M147.46,-57.94C195.43,-52.29 261.38,-44.53 316.54,-38.03"/>
<polygon fill="#4a4a97" stroke="#4a4a97" stroke-width="2" points="316.69,-41.54 326.21,-36.89 315.87,-34.59 316.69,-41.54"/>
<text xml:space="preserve" text-anchor="middle" x="245.6" y="-62.57" font-family="Helvetica,sans-Serif" font-size="9.00">Insufficient supply</text>
<text xml:space="preserve" text-anchor="middle" x="245.6" y="-52.82" font-family="Helvetica,sans-Serif" font-size="9.00">probability alert criteria</text>
</g>
<!-- F_IMPL_WL_MIT -->
<g id="node2" class="node">
<title>F_IMPL_WL_MIT</title>
<path fill="#f9e79f" stroke="#b7950b" stroke-width="2" d="M149.1,-251.4C149.1,-251.4 12,-251.4 12,-251.4 6,-251.4 0,-245.4 0,-239.4 0,-239.4 0,-212 0,-212 0,-206 6,-200 12,-200 12,-200 149.1,-200 149.1,-200 155.1,-200 161.1,-206 161.1,-212 161.1,-212 161.1,-239.4 161.1,-239.4 161.1,-245.4 155.1,-251.4 149.1,-251.4"/>
<text xml:space="preserve" text-anchor="start" x="10.8" y="-231.9" font-family="Helvetica,sans-Serif" font-weight="bold" font-size="14.00">Implement water loss</text>
<text xml:space="preserve" text-anchor="start" x="19.8" y="-217.9" font-family="Helvetica,sans-Serif" font-weight="bold" font-size="14.00">mitigation strategy</text>
<text xml:space="preserve" text-anchor="start" x="59.93" y="-208.65" font-family="Helvetica,sans-Serif" font-style="italic" font-size="9.00">Employee</text>
</g>
<!-- SF_AQ8 -->
<g id="node5" class="node">
<title>SF_AQ8</title>
<path fill="#90ee90" stroke="#228b22" stroke-width="2" d="M454.45,-291.4C454.45,-291.4 390.1,-291.4 390.1,-291.4 384.1,-291.4 378.1,-285.4 378.1,-279.4 378.1,-279.4 378.1,-252 378.1,-252 378.1,-246 384.1,-240 390.1,-240 390.1,-240 454.45,-240 454.45,-240 460.45,-240 466.45,-246 466.45,-252 466.45,-252 466.45,-279.4 466.45,-279.4 466.45,-285.4 460.45,-291.4 454.45,-291.4"/>
<text xml:space="preserve" text-anchor="start" x="394.53" y="-271.9" font-family="Helvetica,sans-Serif" font-weight="bold" font-size="14.00">Quantify</text>
<text xml:space="preserve" text-anchor="start" x="388.9" y="-257.9" font-family="Helvetica,sans-Serif" font-weight="bold" font-size="14.00">water loss</text>
<text xml:space="preserve" text-anchor="start" x="407.28" y="-248.65" font-family="Helvetica,sans-Serif" font-style="italic" font-size="9.00">System</text>
</g>
<!-- F_IMPL_WL_MIT&#45;&gt;SF_AQ8 -->
<g id="edge3" class="edge">
<title>F_IMPL_WL_MIT&#45;&gt;SF_AQ8</title>
<path fill="none" stroke="#4a4a97" stroke-width="2" d="M162.06,-235.18C224.37,-242.52 309.09,-252.49 364.47,-259.01"/>
<polygon fill="#4a4a97" stroke="#4a4a97" stroke-width="2" points="363.84,-262.46 374.18,-260.16 364.66,-255.51 363.84,-262.46"/>
<text xml:space="preserve" text-anchor="middle" x="245.6" y="-261.41" font-family="Helvetica,sans-Serif" font-size="9.00">Water loss detection</text>
<text xml:space="preserve" text-anchor="middle" x="245.6" y="-251.66" font-family="Helvetica,sans-Serif" font-size="9.00">alert criteria</text>
</g>
<!-- SF_AQ11 -->
<g id="node6" class="node">
<title>SF_AQ11</title>
<path fill="#90ee90" stroke="#228b22" stroke-width="2" d="M499.83,-211.4C499.83,-211.4 344.73,-211.4 344.73,-211.4 338.73,-211.4 332.73,-205.4 332.73,-199.4 332.73,-199.4 332.73,-172 332.73,-172 332.73,-166 338.73,-160 344.73,-160 344.73,-160 499.83,-160 499.83,-160 505.83,-160 511.83,-166 511.83,-172 511.83,-172 511.83,-199.4 511.83,-199.4 511.83,-205.4 505.83,-211.4 499.83,-211.4"/>
<text xml:space="preserve" text-anchor="start" x="343.53" y="-191.9" font-family="Helvetica,sans-Serif" font-weight="bold" font-size="14.00">Notify of high water loss</text>
<text xml:space="preserve" text-anchor="start" x="368.28" y="-177.9" font-family="Helvetica,sans-Serif" font-weight="bold" font-size="14.00">event probability</text>
<text xml:space="preserve" text-anchor="start" x="407.28" y="-168.65" font-family="Helvetica,sans-Serif" font-style="italic" font-size="9.00">System</text>
</g>
<!-- F_IMPL_WL_MIT&#45;&gt;SF_AQ11 -->
<g id="edge4" class="edge">
<title>F_IMPL_WL_MIT&#45;&gt;SF_AQ11</title>
<path fill="none" stroke="#4a4a97" stroke-width="2" d="M162.06,-216.22C208.99,-210.69 268.64,-203.67 318.89,-197.76"/>
<polygon fill="#4a4a97" stroke="#4a4a97" stroke-width="2" points="319.25,-201.24 328.77,-196.59 318.43,-194.28 319.25,-201.24"/>
<text xml:space="preserve" text-anchor="middle" x="245.6" y="-222.57" font-family="Helvetica,sans-Serif" font-size="9.00">Water loss probability</text>
<text xml:space="preserve" text-anchor="middle" x="245.6" y="-212.82" font-family="Helvetica,sans-Serif" font-size="9.00">alert criteria</text>
</g>
</g>
</svg>
