<?xml version="1.0" encoding="UTF-8" standalone="no"?>
<!DOCTYPE svg PUBLIC "-//W3C//DTD SVG 1.1//EN"
 "http://www.w3.org/Graphics/SVG/1.1/DTD/svg11.dtd">
<!-- Generated by graphviz version 14.1.4 (20260321.0153)
 -->
<!-- Title: FC_ProvideSDData Pages: 1 -->
<svg width="1150pt" height="285pt"
 viewBox="0.00 0.00 1150.00 285.00" xmlns="http://www.w3.org/2000/svg" xmlns:xlink="http://www.w3.org/1999/xlink">
<g id="graph0" class="graph" transform="scale(1 1) rotate(0) translate(25.2 259.6)">
<title>FC_ProvideSDData</title>
<polygon fill="white" stroke="none" points="-25.2,25.2 -25.2,-259.6 1124.95,-259.6 1124.95,25.2 -25.2,25.2"/>
<text xml:space="preserve" text-anchor="middle" x="549.87" y="-217.1" font-family="Helvetica,sans-Serif" font-size="14.00">Functional Chain: Provide Supply &amp; Demand Data</text>
<!-- F_MEASURE_VOLUME -->
<g id="node1" class="node">
<title>F_MEASURE_VOLUME</title>
<path fill="#f9e79f" stroke="#b7950b" stroke-width="2" d="M110.1,-211.4C110.1,-211.4 17.25,-211.4 17.25,-211.4 11.25,-211.4 5.25,-205.4 5.25,-199.4 5.25,-199.4 5.25,-172 5.25,-172 5.25,-166 11.25,-160 17.25,-160 17.25,-160 110.1,-160 110.1,-160 116.1,-160 122.1,-166 122.1,-172 122.1,-172 122.1,-199.4 122.1,-199.4 122.1,-205.4 116.1,-211.4 110.1,-211.4"/>
<text xml:space="preserve" text-anchor="start" x="16.05" y="-191.9" font-family="Helvetica,sans-Serif" font-weight="bold" font-size="14.00">Measure water</text>
<text xml:space="preserve" text-anchor="start" x="39.67" y="-177.9" font-family="Helvetica,sans-Serif" font-weight="bold" font-size="14.00">volume</text>
<text xml:space="preserve" text-anchor="start" x="23.92" y="-168.65" font-family="Helvetica,sans-Serif" font-style="italic" font-size="9.00">Octave Water Meter</text>
</g>
<!-- SF_AQ10 -->
<g id="node4" class="node">
<title>SF_AQ10</title>
<path fill="#90ee90" stroke="#228b22" stroke-width="2" d="M365.95,-131.4C365.95,-131.4 271.6,-131.4 271.6,-131.4 265.6,-131.4 259.6,-125.4 259.6,-119.4 259.6,-119.4 259.6,-92 259.6,-92 259.6,-86 265.6,-80 271.6,-80 271.6,-80 365.95,-80 365.95,-80 371.95,-80 377.95,-86 377.95,-92 377.95,-92 377.95,-119.4 377.95,-119.4 377.95,-125.4 371.95,-131.4 365.95,-131.4"/>
<text xml:space="preserve" text-anchor="start" x="283.15" y="-111.9" font-family="Helvetica,sans-Serif" font-weight="bold" font-size="14.00">Collect S/D</text>
<text xml:space="preserve" text-anchor="start" x="270.4" y="-97.9" font-family="Helvetica,sans-Serif" font-weight="bold" font-size="14.00">measurements</text>
<text xml:space="preserve" text-anchor="start" x="303.77" y="-88.65" font-family="Helvetica,sans-Serif" font-style="italic" font-size="9.00">System</text>
</g>
<!-- F_MEASURE_VOLUME&#45;&gt;SF_AQ10 -->
<g id="edge1" class="edge">
<title>F_MEASURE_VOLUME&#45;&gt;SF_AQ10</title>
<path fill="none" stroke="#4a4a97" stroke-width="2" d="M123.06,-167.25C159.81,-155.63 207.5,-140.56 246.48,-128.23"/>
<polygon fill="#4a4a97" stroke="#4a4a97" stroke-width="2" points="247.44,-131.6 255.92,-125.25 245.33,-124.93 247.44,-131.6"/>
<text xml:space="preserve" text-anchor="middle" x="193.47" y="-154.07" font-family="Helvetica,sans-Serif" font-size="9.00">Water Volume</text>
</g>
<!-- F_MEASURE_FLOW -->
<g id="node2" class="node">
<title>F_MEASURE_FLOW</title>
<path fill="#f9e79f" stroke="#b7950b" stroke-width="2" d="M115.35,-131.4C115.35,-131.4 12,-131.4 12,-131.4 6,-131.4 0,-125.4 0,-119.4 0,-119.4 0,-92 0,-92 0,-86 6,-80 12,-80 12,-80 115.35,-80 115.35,-80 121.35,-80 127.35,-86 127.35,-92 127.35,-92 127.35,-119.4 127.35,-119.4 127.35,-125.4 121.35,-131.4 115.35,-131.4"/>
<text xml:space="preserve" text-anchor="start" x="10.8" y="-111.9" font-family="Helvetica,sans-Serif" font-weight="bold" font-size="14.00">Measure current</text>
<text xml:space="preserve" text-anchor="start" x="49.8" y="-97.9" font-family="Helvetica,sans-Serif" font-weight="bold" font-size="14.00">flow</text>
<text xml:space="preserve" text-anchor="start" x="23.92" y="-88.65" font-family="Helvetica,sans-Serif" font-style="italic" font-size="9.00">Octave Water Meter</text>
</g>
<!-- F_MEASURE_FLOW&#45;&gt;SF_AQ10 -->
<g id="edge2" class="edge">
<title>F_MEASURE_FLOW&#45;&gt;SF_AQ10</title>
<path fill="none" stroke="#4a4a97" stroke-width="2" d="M128.22,-105.7C164.11,-105.7 209.08,-105.7 246.21,-105.7"/>
<polygon fill="#4a4a97" stroke="#4a4a97" stroke-width="2" points="245.96,-109.2 255.96,-105.7 245.96,-102.2 245.96,-109.2"/>
<text xml:space="preserve" text-anchor="middle" x="193.47" y="-106.9" font-family="Helvetica,sans-Serif" font-size="9.00">Current Flow</text>
</g>
<!-- F_MEASURE_LEVEL -->
<g id="node3" class="node">
<title>F_MEASURE_LEVEL</title>
<path fill="#f9e79f" stroke="#b7950b" stroke-width="2" d="M110.1,-51.4C110.1,-51.4 17.25,-51.4 17.25,-51.4 11.25,-51.4 5.25,-45.4 5.25,-39.4 5.25,-39.4 5.25,-12 5.25,-12 5.25,-6 11.25,0 17.25,0 17.25,0 110.1,0 110.1,0 116.1,0 122.1,-6 122.1,-12 122.1,-12 122.1,-39.4 122.1,-39.4 122.1,-45.4 116.1,-51.4 110.1,-51.4"/>
<text xml:space="preserve" text-anchor="start" x="16.05" y="-31.9" font-family="Helvetica,sans-Serif" font-weight="bold" font-size="14.00">Measure water</text>
<text xml:space="preserve" text-anchor="start" x="48.67" y="-17.9" font-family="Helvetica,sans-Serif" font-weight="bold" font-size="14.00">level</text>
<text xml:space="preserve" text-anchor="start" x="36.67" y="-8.65" font-family="Helvetica,sans-Serif" font-style="italic" font-size="9.00">Level Sensor</text>
</g>
<!-- F_MEASURE_LEVEL&#45;&gt;SF_AQ10 -->
<g id="edge3" class="edge">
<title>F_MEASURE_LEVEL&#45;&gt;SF_AQ10</title>
<path fill="none" stroke="#4a4a97" stroke-width="2" d="M123.06,-44.15C159.81,-55.77 207.5,-70.84 246.48,-83.17"/>
<polygon fill="#4a4a97" stroke="#4a4a97" stroke-width="2" points="245.33,-86.47 255.92,-86.15 247.44,-79.8 245.33,-86.47"/>
<text xml:space="preserve" text-anchor="middle" x="193.47" y="-76.42" font-family="Helvetica,sans-Serif" font-size="9.00">Water Level</text>
</g>
<!-- SF_AQ15 -->
<g id="node5" class="node">
<title>SF_AQ15</title>
<path fill="#90ee90" stroke="#228b22" stroke-width="2" d="M659.3,-131.4C659.3,-131.4 526.7,-131.4 526.7,-131.4 520.7,-131.4 514.7,-125.4 514.7,-119.4 514.7,-119.4 514.7,-92 514.7,-92 514.7,-86 520.7,-80 526.7,-80 526.7,-80 659.3,-80 659.3,-80 665.3,-80 671.3,-86 671.3,-92 671.3,-92 671.3,-119.4 671.3,-119.4 671.3,-125.4 665.3,-131.4 659.3,-131.4"/>
<text xml:space="preserve" text-anchor="start" x="525.5" y="-111.9" font-family="Helvetica,sans-Serif" font-weight="bold" font-size="14.00">Store measurements</text>
<text xml:space="preserve" text-anchor="start" x="557.75" y="-97.9" font-family="Helvetica,sans-Serif" font-weight="bold" font-size="14.00">and events</text>
<text xml:space="preserve" text-anchor="start" x="578" y="-88.65" font-family="Helvetica,sans-Serif" font-style="italic" font-size="9.00">System</text>
</g>
<!-- SF_AQ10&#45;&gt;SF_AQ15 -->
<g id="edge4" class="edge">
<title>SF_AQ10&#45;&gt;SF_AQ15</title>
<path fill="none" stroke="#4a4a97" stroke-width="2" d="M378.84,-105.7C414.54,-105.7 460.78,-105.7 501.07,-105.7"/>
<polygon fill="#4a4a97" stroke="#4a4a97" stroke-width="2" points="500.89,-109.2 510.89,-105.7 500.89,-102.2 500.89,-109.2"/>
<text xml:space="preserve" text-anchor="middle" x="446.32" y="-116.65" font-family="Helvetica,sans-Serif" font-size="9.00">S/D</text>
<text xml:space="preserve" text-anchor="middle" x="446.32" y="-106.9" font-family="Helvetica,sans-Serif" font-size="9.00">measurements</text>
</g>
<!-- SF_AQ14 -->
<g id="node6" class="node">
<title>SF_AQ14</title>
<path fill="#90ee90" stroke="#228b22" stroke-width="2" d="M878.4,-131.4C878.4,-131.4 786.3,-131.4 786.3,-131.4 780.3,-131.4 774.3,-125.4 774.3,-119.4 774.3,-119.4 774.3,-92 774.3,-92 774.3,-86 780.3,-80 786.3,-80 786.3,-80 878.4,-80 878.4,-80 884.4,-80 890.4,-86 890.4,-92 890.4,-92 890.4,-119.4 890.4,-119.4 890.4,-125.4 884.4,-131.4 878.4,-131.4"/>
<text xml:space="preserve" text-anchor="start" x="785.1" y="-111.9" font-family="Helvetica,sans-Serif" font-weight="bold" font-size="14.00">Present stored</text>
<text xml:space="preserve" text-anchor="start" x="818.47" y="-97.9" font-family="Helvetica,sans-Serif" font-weight="bold" font-size="14.00">data</text>
<text xml:space="preserve" text-anchor="start" x="817.35" y="-88.65" font-family="Helvetica,sans-Serif" font-style="italic" font-size="9.00">System</text>
</g>
<!-- SF_AQ15&#45;&gt;SF_AQ14 -->
<g id="edge5" class="edge">
<title>SF_AQ15&#45;&gt;SF_AQ14</title>
<path fill="none" stroke="#4a4a97" stroke-width="2" d="M672.05,-105.7C700.62,-105.7 732.77,-105.7 760.67,-105.7"/>
<polygon fill="#4a4a97" stroke="#4a4a97" stroke-width="2" points="760.55,-109.2 770.55,-105.7 760.55,-102.2 760.55,-109.2"/>
<text xml:space="preserve" text-anchor="middle" x="722.8" y="-116.65" font-family="Helvetica,sans-Serif" font-size="9.00">Stored</text>
<text xml:space="preserve" text-anchor="middle" x="722.8" y="-106.9" font-family="Helvetica,sans-Serif" font-size="9.00">data</text>
</g>
<!-- F_CONSULT_SD -->
<g id="node7" class="node">
<title>F_CONSULT_SD</title>
<path fill="#f9e79f" stroke="#b7950b" stroke-width="2" d="M1087.75,-131.4C1087.75,-131.4 1013.65,-131.4 1013.65,-131.4 1007.65,-131.4 1001.65,-125.4 1001.65,-119.4 1001.65,-119.4 1001.65,-92 1001.65,-92 1001.65,-86 1007.65,-80 1013.65,-80 1013.65,-80 1087.75,-80 1087.75,-80 1093.75,-80 1099.75,-86 1099.75,-92 1099.75,-92 1099.75,-119.4 1099.75,-119.4 1099.75,-125.4 1093.75,-131.4 1087.75,-131.4"/>
<text xml:space="preserve" text-anchor="start" x="1012.45" y="-111.9" font-family="Helvetica,sans-Serif" font-weight="bold" font-size="14.00">Consult S/D</text>
<text xml:space="preserve" text-anchor="start" x="1036.82" y="-97.9" font-family="Helvetica,sans-Serif" font-weight="bold" font-size="14.00">data</text>
<text xml:space="preserve" text-anchor="start" x="1030.07" y="-88.65" font-family="Helvetica,sans-Serif" font-style="italic" font-size="9.00">Employee</text>
</g>
<!-- SF_AQ14&#45;&gt;F_CONSULT_SD -->
<g id="edge6" class="edge">
<title>SF_AQ14&#45;&gt;F_CONSULT_SD</title>
<path fill="none" stroke="#4a4a97" stroke-width="2" d="M891.33,-105.7C921.23,-105.7 957.7,-105.7 988.11,-105.7"/>
<polygon fill="#4a4a97" stroke="#4a4a97" stroke-width="2" points="987.7,-109.2 997.7,-105.7 987.7,-102.2 987.7,-109.2"/>
<text xml:space="preserve" text-anchor="middle" x="946.02" y="-106.9" font-family="Helvetica,sans-Serif" font-size="9.00">S/D data</text>
</g>
</g>
</svg>
