<?xml version="1.0" encoding="UTF-8" standalone="no"?>
<!DOCTYPE svg PUBLIC "-//W3C//DTD SVG 1.1//EN"
 "http://www.w3.org/Graphics/SVG/1.1/DTD/svg11.dtd">
<!-- Generated by graphviz version 14.1.4 (20260321.0153)
 -->
<!-- Title: FC_ShareExternalData Pages: 1 -->
<svg width="1052pt" height="365pt"
 viewBox="0.00 0.00 1052.00 365.00" xmlns="http://www.w3.org/2000/svg" xmlns:xlink="http://www.w3.org/1999/xlink">
<g id="graph0" class="graph" transform="scale(1 1) rotate(0) translate(25.2 339.6)">
<title>FC_ShareExternalData</title>
<polygon fill="white" stroke="none" points="-25.2,25.2 -25.2,-339.6 1026.6,-339.6 1026.6,25.2 -25.2,25.2"/>
<text xml:space="preserve" text-anchor="middle" x="500.7" y="-297.1" font-family="Helvetica,sans-Serif" font-size="14.00">Functional Chain: Share Data with External Entities</text>
<!-- SF_AQ10 -->
<g id="node1" class="node">
<title>SF_AQ10</title>
<path fill="#90ee90" stroke="#228b22" stroke-width="2" d="M124.35,-291.4C124.35,-291.4 30,-291.4 30,-291.4 24,-291.4 18,-285.4 18,-279.4 18,-279.4 18,-252 18,-252 18,-246 24,-240 30,-240 30,-240 124.35,-240 124.35,-240 130.35,-240 136.35,-246 136.35,-252 136.35,-252 136.35,-279.4 136.35,-279.4 136.35,-285.4 130.35,-291.4 124.35,-291.4"/>
<text xml:space="preserve" text-anchor="start" x="41.55" y="-271.9" font-family="Helvetica,sans-Serif" font-weight="bold" font-size="14.00">Collect S/D</text>
<text xml:space="preserve" text-anchor="start" x="28.8" y="-257.9" font-family="Helvetica,sans-Serif" font-weight="bold" font-size="14.00">measurements</text>
<text xml:space="preserve" text-anchor="start" x="62.17" y="-248.65" font-family="Helvetica,sans-Serif" font-style="italic" font-size="9.00">System</text>
</g>
<!-- SF_AQ15 -->
<g id="node5" class="node">
<title>SF_AQ15</title>
<path fill="#90ee90" stroke="#228b22" stroke-width="2" d="M440.2,-171.4C440.2,-171.4 307.6,-171.4 307.6,-171.4 301.6,-171.4 295.6,-165.4 295.6,-159.4 295.6,-159.4 295.6,-132 295.6,-132 295.6,-126 301.6,-120 307.6,-120 307.6,-120 440.2,-120 440.2,-120 446.2,-120 452.2,-126 452.2,-132 452.2,-132 452.2,-159.4 452.2,-159.4 452.2,-165.4 446.2,-171.4 440.2,-171.4"/>
<text xml:space="preserve" text-anchor="start" x="306.4" y="-151.9" font-family="Helvetica,sans-Serif" font-weight="bold" font-size="14.00">Store measurements</text>
<text xml:space="preserve" text-anchor="start" x="338.65" y="-137.9" font-family="Helvetica,sans-Serif" font-weight="bold" font-size="14.00">and events</text>
<text xml:space="preserve" text-anchor="start" x="358.9" y="-128.65" font-family="Helvetica,sans-Serif" font-style="italic" font-size="9.00">System</text>
</g>
<!-- SF_AQ10&#45;&gt;SF_AQ15 -->
<g id="edge1" class="edge">
<title>SF_AQ10&#45;&gt;SF_AQ15</title>
<path fill="none" stroke="#4a4a97" stroke-width="2" d="M136.98,-243.39C172.12,-229.9 217.56,-212.19 257.6,-195.7 271.63,-189.92 286.54,-183.6 300.82,-177.44"/>
<polygon fill="#4a4a97" stroke="#4a4a97" stroke-width="2" points="302.07,-180.72 309.86,-173.54 299.3,-174.29 302.07,-180.72"/>
<text xml:space="preserve" text-anchor="middle" x="224.97" y="-232.31" font-family="Helvetica,sans-Serif" font-size="9.00">S/D</text>
<text xml:space="preserve" text-anchor="middle" x="224.97" y="-222.56" font-family="Helvetica,sans-Serif" font-size="9.00">measurements</text>
</g>
<!-- SF_AQ8 -->
<g id="node2" class="node">
<title>SF_AQ8</title>
<path fill="#90ee90" stroke="#228b22" stroke-width="2" d="M109.35,-211.4C109.35,-211.4 45,-211.4 45,-211.4 39,-211.4 33,-205.4 33,-199.4 33,-199.4 33,-172 33,-172 33,-166 39,-160 45,-160 45,-160 109.35,-160 109.35,-160 115.35,-160 121.35,-166 121.35,-172 121.35,-172 121.35,-199.4 121.35,-199.4 121.35,-205.4 115.35,-211.4 109.35,-211.4"/>
<text xml:space="preserve" text-anchor="start" x="49.42" y="-191.9" font-family="Helvetica,sans-Serif" font-weight="bold" font-size="14.00">Quantify</text>
<text xml:space="preserve" text-anchor="start" x="43.8" y="-177.9" font-family="Helvetica,sans-Serif" font-weight="bold" font-size="14.00">water loss</text>
<text xml:space="preserve" text-anchor="start" x="62.17" y="-168.65" font-family="Helvetica,sans-Serif" font-style="italic" font-size="9.00">System</text>
</g>
<!-- SF_AQ8&#45;&gt;SF_AQ15 -->
<g id="edge2" class="edge">
<title>SF_AQ8&#45;&gt;SF_AQ15</title>
<path fill="none" stroke="#4a4a97" stroke-width="2" d="M122.3,-179.71C164.28,-174.01 228.73,-165.27 281.76,-158.07"/>
<polygon fill="#4a4a97" stroke="#4a4a97" stroke-width="2" points="282.18,-161.54 291.62,-156.73 281.24,-154.61 282.18,-161.54"/>
<text xml:space="preserve" text-anchor="middle" x="224.97" y="-180.23" font-family="Helvetica,sans-Serif" font-size="9.00">Water loss</text>
<text xml:space="preserve" text-anchor="middle" x="224.97" y="-170.48" font-family="Helvetica,sans-Serif" font-size="9.00">quantification</text>
</g>
<!-- SF_AQ6 -->
<g id="node3" class="node">
<title>SF_AQ6</title>
<path fill="#90ee90" stroke="#228b22" stroke-width="2" d="M142.35,-131.4C142.35,-131.4 12,-131.4 12,-131.4 6,-131.4 0,-125.4 0,-119.4 0,-119.4 0,-92 0,-92 0,-86 6,-80 12,-80 12,-80 142.35,-80 142.35,-80 148.35,-80 154.35,-86 154.35,-92 154.35,-92 154.35,-119.4 154.35,-119.4 154.35,-125.4 148.35,-131.4 142.35,-131.4"/>
<text xml:space="preserve" text-anchor="start" x="10.8" y="-111.9" font-family="Helvetica,sans-Serif" font-weight="bold" font-size="14.00">Predict water supply</text>
<text xml:space="preserve" text-anchor="start" x="37.05" y="-97.9" font-family="Helvetica,sans-Serif" font-weight="bold" font-size="14.00">and demand</text>
<text xml:space="preserve" text-anchor="start" x="62.17" y="-88.65" font-family="Helvetica,sans-Serif" font-style="italic" font-size="9.00">System</text>
</g>
<!-- SF_AQ6&#45;&gt;SF_AQ15 -->
<g id="edge3" class="edge">
<title>SF_AQ6&#45;&gt;SF_AQ15</title>
<path fill="none" stroke="#4a4a97" stroke-width="2" d="M155.23,-116.16C194.09,-121.43 241.48,-127.86 282.11,-133.38"/>
<polygon fill="#4a4a97" stroke="#4a4a97" stroke-width="2" points="281.38,-136.81 291.76,-134.69 282.32,-129.87 281.38,-136.81"/>
<text xml:space="preserve" text-anchor="middle" x="224.97" y="-130.48" font-family="Helvetica,sans-Serif" font-size="9.00">S/D predictions</text>
</g>
<!-- SF_AQ16 -->
<g id="node4" class="node">
<title>SF_AQ16</title>
<path fill="#90ee90" stroke="#228b22" stroke-width="2" d="M134.1,-51.4C134.1,-51.4 20.25,-51.4 20.25,-51.4 14.25,-51.4 8.25,-45.4 8.25,-39.4 8.25,-39.4 8.25,-12 8.25,-12 8.25,-6 14.25,0 20.25,0 20.25,0 134.1,0 134.1,0 140.1,0 146.1,-6 146.1,-12 146.1,-12 146.1,-39.4 146.1,-39.4 146.1,-45.4 140.1,-51.4 134.1,-51.4"/>
<text xml:space="preserve" text-anchor="start" x="19.05" y="-31.9" font-family="Helvetica,sans-Serif" font-weight="bold" font-size="14.00">Predict water loss</text>
<text xml:space="preserve" text-anchor="start" x="45.67" y="-17.9" font-family="Helvetica,sans-Serif" font-weight="bold" font-size="14.00">event risk</text>
<text xml:space="preserve" text-anchor="start" x="62.17" y="-8.65" font-family="Helvetica,sans-Serif" font-style="italic" font-size="9.00">System</text>
</g>
<!-- SF_AQ16&#45;&gt;SF_AQ15 -->
<g id="edge4" class="edge">
<title>SF_AQ16&#45;&gt;SF_AQ15</title>
<path fill="none" stroke="#4a4a97" stroke-width="2" d="M143.58,-52.33C188.44,-70.59 248.14,-94.9 295.38,-114.14"/>
<polygon fill="#4a4a97" stroke="#4a4a97" stroke-width="2" points="294.03,-117.37 304.62,-117.9 296.67,-110.88 294.03,-117.37"/>
<text xml:space="preserve" text-anchor="middle" x="224.97" y="-97.65" font-family="Helvetica,sans-Serif" font-size="9.00">Risk predictions</text>
</g>
<!-- SF_AQ13 -->
<g id="node6" class="node">
<title>SF_AQ13</title>
<path fill="#90ee90" stroke="#228b22" stroke-width="2" d="M702.8,-171.4C702.8,-171.4 567.2,-171.4 567.2,-171.4 561.2,-171.4 555.2,-165.4 555.2,-159.4 555.2,-159.4 555.2,-132 555.2,-132 555.2,-126 561.2,-120 567.2,-120 567.2,-120 702.8,-120 702.8,-120 708.8,-120 714.8,-126 714.8,-132 714.8,-132 714.8,-159.4 714.8,-159.4 714.8,-165.4 708.8,-171.4 702.8,-171.4"/>
<text xml:space="preserve" text-anchor="start" x="566" y="-151.9" font-family="Helvetica,sans-Serif" font-weight="bold" font-size="14.00">Make data accessible</text>
<text xml:space="preserve" text-anchor="start" x="575.37" y="-137.9" font-family="Helvetica,sans-Serif" font-weight="bold" font-size="14.00">to external entities</text>
<text xml:space="preserve" text-anchor="start" x="620" y="-128.65" font-family="Helvetica,sans-Serif" font-style="italic" font-size="9.00">System</text>
</g>
<!-- SF_AQ15&#45;&gt;SF_AQ13 -->
<g id="edge5" class="edge">
<title>SF_AQ15&#45;&gt;SF_AQ13</title>
<path fill="none" stroke="#4a4a97" stroke-width="2" d="M452.99,-145.7C480.9,-145.7 512.61,-145.7 541.6,-145.7"/>
<polygon fill="#4a4a97" stroke="#4a4a97" stroke-width="2" points="541.25,-149.2 551.25,-145.7 541.25,-142.2 541.25,-149.2"/>
<text xml:space="preserve" text-anchor="middle" x="503.7" y="-156.65" font-family="Helvetica,sans-Serif" font-size="9.00">Stored</text>
<text xml:space="preserve" text-anchor="middle" x="503.7" y="-146.9" font-family="Helvetica,sans-Serif" font-size="9.00">data</text>
</g>
<!-- SF_ED1 -->
<g id="node7" class="node">
<title>SF_ED1</title>
<path fill="#90ee90" stroke="#009900" stroke-width="2" d="M989.4,-164.4C989.4,-164.4 845.55,-164.4 845.55,-164.4 839.55,-164.4 833.55,-158.4 833.55,-152.4 833.55,-152.4 833.55,-139 833.55,-139 833.55,-133 839.55,-127 845.55,-127 845.55,-127 989.4,-127 989.4,-127 995.4,-127 1001.4,-133 1001.4,-139 1001.4,-139 1001.4,-152.4 1001.4,-152.4 1001.4,-158.4 995.4,-164.4 989.4,-164.4"/>
<text xml:space="preserve" text-anchor="start" x="844.35" y="-144.9" font-family="Helvetica,sans-Serif" font-weight="bold" font-size="14.00">Receive aqueduct data</text>
<text xml:space="preserve" text-anchor="start" x="863.47" y="-135.65" font-family="Helvetica,sans-Serif" font-style="italic" font-size="9.00">External Data Aggregators</text>
</g>
<!-- SF_AQ13&#45;&gt;SF_ED1 -->
<g id="edge6" class="edge">
<title>SF_AQ13&#45;&gt;SF_ED1</title>
<path fill="none" stroke="#4a4a97" stroke-width="2" d="M715.62,-145.7C748.08,-145.7 785.9,-145.7 819.91,-145.7"/>
<polygon fill="#4a4a97" stroke="#4a4a97" stroke-width="2" points="819.71,-149.2 829.71,-145.7 819.71,-142.2 819.71,-149.2"/>
<text xml:space="preserve" text-anchor="middle" x="774.17" y="-156.65" font-family="Helvetica,sans-Serif" font-size="9.00">Shareable</text>
<text xml:space="preserve" text-anchor="middle" x="774.17" y="-146.9" font-family="Helvetica,sans-Serif" font-size="9.00">data</text>
</g>
</g>
</svg>
