<?xml version="1.0" encoding="UTF-8" standalone="no"?>
<!DOCTYPE svg PUBLIC "-//W3C//DTD SVG 1.1//EN"
 "http://www.w3.org/Graphics/SVG/1.1/DTD/svg11.dtd">
<!-- Generated by graphviz version 14.1.4 (20260321.0153)
 -->
<!-- Title: SystemArchitecture Pages: 1 -->
<svg width="1084pt" height="955pt"
 viewBox="0.00 0.00 1084.00 955.00" xmlns="http://www.w3.org/2000/svg" xmlns:xlink="http://www.w3.org/1999/xlink">
<g id="graph0" class="graph" transform="scale(1 1) rotate(0) translate(28.8 926.36)">
<title>SystemArchitecture</title>
<polygon fill="white" stroke="none" points="-28.8,28.8 -28.8,-926.36 1054.8,-926.36 1054.8,28.8 -28.8,28.8"/>
<g id="clust1" class="cluster">
<title>cluster_octave</title>
<path fill="#e6ffe6" stroke="#009900" stroke-width="2" d="M635,-773.56C635,-773.56 833,-773.56 833,-773.56 839,-773.56 845,-779.56 845,-785.56 845,-785.56 845,-853.56 845,-853.56 845,-859.56 839,-865.56 833,-865.56 833,-865.56 635,-865.56 635,-865.56 629,-865.56 623,-859.56 623,-853.56 623,-853.56 623,-785.56 623,-785.56 623,-779.56 629,-773.56 635,-773.56"/>
<text xml:space="preserve" text-anchor="middle" x="734" y="-851.11" font-family="Helvetica,sans-Serif" font-size="11.00">Octave Water Meter</text>
</g>
<g id="clust2" class="cluster">
<title>cluster_level</title>
<path fill="#e6ffe6" stroke="#009900" stroke-width="2" d="M879,-773.56C879,-773.56 963,-773.56 963,-773.56 969,-773.56 975,-779.56 975,-785.56 975,-785.56 975,-877.56 975,-877.56 975,-883.56 969,-889.56 963,-889.56 963,-889.56 879,-889.56 879,-889.56 873,-889.56 867,-883.56 867,-877.56 867,-877.56 867,-785.56 867,-785.56 867,-779.56 873,-773.56 879,-773.56"/>
<text xml:space="preserve" text-anchor="middle" x="921" y="-875.11" font-family="Helvetica,sans-Serif" font-size="11.00">Submersible Water</text>
<text xml:space="preserve" text-anchor="middle" x="921" y="-863.11" font-family="Helvetica,sans-Serif" font-size="11.00">Level Sensor</text>
</g>
<g id="clust3" class="cluster">
<title>cluster_system</title>
<path fill="#e6f3ff" stroke="#0066cc" stroke-width="3" d="M20,-256C20,-256 972,-256 972,-256 978,-256 984,-262 984,-268 984,-268 984,-721.56 984,-721.56 984,-727.56 978,-733.56 972,-733.56 972,-733.56 20,-733.56 20,-733.56 14,-733.56 8,-727.56 8,-721.56 8,-721.56 8,-268 8,-268 8,-262 14,-256 20,-256"/>
<text xml:space="preserve" text-anchor="middle" x="496" y="-717.21" font-family="Helvetica,sans-Serif" font-size="13.00">System</text>
</g>
<g id="clust7" class="cluster">
<title>cluster_actors</title>
<path fill="#fff9e6" stroke="#d4a017" stroke-width="2" d="M559,-8C559,-8 816,-8 816,-8 822,-8 828,-14 828,-20 828,-20 828,-204 828,-204 828,-210 822,-216 816,-216 816,-216 559,-216 559,-216 553,-216 547,-210 547,-204 547,-204 547,-20 547,-20 547,-14 553,-8 559,-8"/>
<text xml:space="preserve" text-anchor="middle" x="687.5" y="-201.55" font-family="Helvetica,sans-Serif" font-size="11.00">ASADA Paso Ancho Employee</text>
</g>
<g id="clust8" class="cluster">
<title>cluster_ext_agg</title>
<path fill="#e6ffe6" stroke="#009900" stroke-width="2" d="M861,-124C861,-124 1006,-124 1006,-124 1012,-124 1018,-130 1018,-136 1018,-136 1018,-204 1018,-204 1018,-210 1012,-216 1006,-216 1006,-216 861,-216 861,-216 855,-216 849,-210 849,-204 849,-204 849,-136 849,-136 849,-130 855,-124 861,-124"/>
<text xml:space="preserve" text-anchor="middle" x="933.5" y="-201.55" font-family="Helvetica,sans-Serif" font-size="11.00">External Data Aggregators (SA)</text>
</g>
<!-- F_MEASURE_VOLUME -->
<g id="node1" class="node">
<title>F_MEASURE_VOLUME</title>
<path fill="#f9e79f" stroke="#b7950b" stroke-width="2" d="M700.89,-817.56C700.89,-817.56 643.11,-817.56 643.11,-817.56 637.11,-817.56 631.11,-811.56 631.11,-805.56 631.11,-805.56 631.11,-793.56 631.11,-793.56 631.11,-787.56 637.11,-781.56 643.11,-781.56 643.11,-781.56 700.89,-781.56 700.89,-781.56 706.89,-781.56 712.89,-787.56 712.89,-793.56 712.89,-793.56 712.89,-805.56 712.89,-805.56 712.89,-811.56 706.89,-817.56 700.89,-817.56"/>
<text xml:space="preserve" text-anchor="middle" x="672" y="-801.11" font-family="Helvetica,sans-Serif" font-size="11.00">Measure</text>
<text xml:space="preserve" text-anchor="middle" x="672" y="-789.11" font-family="Helvetica,sans-Serif" font-size="11.00">water volume</text>
</g>
<!-- SF_AQ10 -->
<g id="node4" class="node">
<title>SF_AQ10</title>
<path fill="#90ee90" stroke="#228b22" stroke-width="2" d="M861.14,-682.56C861.14,-682.56 738.86,-682.56 738.86,-682.56 732.86,-682.56 726.86,-676.56 726.86,-670.56 726.86,-670.56 726.86,-646.04 726.86,-646.04 726.86,-640.04 732.86,-634.04 738.86,-634.04 738.86,-634.04 861.14,-634.04 861.14,-634.04 867.14,-634.04 873.14,-640.04 873.14,-646.04 873.14,-646.04 873.14,-670.56 873.14,-670.56 873.14,-676.56 867.14,-682.56 861.14,-682.56"/>
<text xml:space="preserve" text-anchor="middle" x="800" y="-666.35" font-family="Helvetica,sans-Serif" font-size="11.00">Collect S/D measurements</text>
<text xml:space="preserve" text-anchor="middle" x="800" y="-641.35" font-family="Helvetica,sans-Serif" font-size="11.00">{c} Real&#45;time and remote</text>
</g>
<!-- F_MEASURE_VOLUME&#45;&gt;SF_AQ10 -->
<g id="edge1" class="edge">
<title>F_MEASURE_VOLUME&#45;&gt;SF_AQ10</title>
<path fill="none" stroke="#228b22" stroke-width="1.5" d="M713.64,-800C730.05,-800 745.05,-800 745.05,-800 745.05,-800 745.05,-695.58 745.05,-695.58"/>
<polygon fill="#228b22" stroke="#228b22" stroke-width="1.5" points="748.55,-695.58 745.05,-685.58 741.55,-695.58 748.55,-695.58"/>
<text xml:space="preserve" text-anchor="middle" x="708.5" y="-742.96" font-family="Helvetica,sans-Serif" font-size="8.00" fill="#333333">Water Volume</text>
</g>
<!-- F_MEASURE_FLOW -->
<g id="node2" class="node">
<title>F_MEASURE_FLOW</title>
<path fill="#f9e79f" stroke="#b7950b" stroke-width="2" d="M824.76,-817.56C824.76,-817.56 775.24,-817.56 775.24,-817.56 769.24,-817.56 763.24,-811.56 763.24,-805.56 763.24,-805.56 763.24,-793.56 763.24,-793.56 763.24,-787.56 769.24,-781.56 775.24,-781.56 775.24,-781.56 824.76,-781.56 824.76,-781.56 830.76,-781.56 836.76,-787.56 836.76,-793.56 836.76,-793.56 836.76,-805.56 836.76,-805.56 836.76,-811.56 830.76,-817.56 824.76,-817.56"/>
<text xml:space="preserve" text-anchor="middle" x="800" y="-801.11" font-family="Helvetica,sans-Serif" font-size="11.00">Measure</text>
<text xml:space="preserve" text-anchor="middle" x="800" y="-789.11" font-family="Helvetica,sans-Serif" font-size="11.00">current flow</text>
</g>
<!-- F_MEASURE_FLOW&#45;&gt;SF_AQ10 -->
<g id="edge2" class="edge">
<title>F_MEASURE_FLOW&#45;&gt;SF_AQ10</title>
<path fill="none" stroke="#228b22" stroke-width="1.5" d="M800,-780.8C800,-780.8 800,-695.6 800,-695.6"/>
<polygon fill="#228b22" stroke="#228b22" stroke-width="1.5" points="803.5,-695.6 800,-685.6 796.5,-695.6 803.5,-695.6"/>
<text xml:space="preserve" text-anchor="middle" x="823.62" y="-742.96" font-family="Helvetica,sans-Serif" font-size="8.00" fill="#333333">Current Flow</text>
</g>
<!-- F_MEASURE_LEVEL -->
<g id="node3" class="node">
<title>F_MEASURE_LEVEL</title>
<path fill="#f9e79f" stroke="#b7950b" stroke-width="2" d="M943.51,-817.56C943.51,-817.56 898.49,-817.56 898.49,-817.56 892.49,-817.56 886.49,-811.56 886.49,-805.56 886.49,-805.56 886.49,-793.56 886.49,-793.56 886.49,-787.56 892.49,-781.56 898.49,-781.56 898.49,-781.56 943.51,-781.56 943.51,-781.56 949.51,-781.56 955.51,-787.56 955.51,-793.56 955.51,-793.56 955.51,-805.56 955.51,-805.56 955.51,-811.56 949.51,-817.56 943.51,-817.56"/>
<text xml:space="preserve" text-anchor="middle" x="921" y="-801.11" font-family="Helvetica,sans-Serif" font-size="11.00">Measure</text>
<text xml:space="preserve" text-anchor="middle" x="921" y="-789.11" font-family="Helvetica,sans-Serif" font-size="11.00">water level</text>
</g>
<!-- F_MEASURE_LEVEL&#45;&gt;SF_AQ10 -->
<g id="edge3" class="edge">
<title>F_MEASURE_LEVEL&#45;&gt;SF_AQ10</title>
<path fill="none" stroke="#228b22" stroke-width="1.5" d="M885.66,-800C869.95,-800 854.95,-800 854.95,-800 854.95,-800 854.95,-695.58 854.95,-695.58"/>
<polygon fill="#228b22" stroke="#228b22" stroke-width="1.5" points="858.45,-695.58 854.95,-685.58 851.45,-695.58 858.45,-695.58"/>
<text xml:space="preserve" text-anchor="middle" x="932.38" y="-742.96" font-family="Helvetica,sans-Serif" font-size="8.00" fill="#333333">Water Level</text>
</g>
<!-- SF_AQ8 -->
<g id="node5" class="node">
<title>SF_AQ8</title>
<path fill="#90ee90" stroke="#228b22" stroke-width="2" d="M534.76,-563.04C534.76,-563.04 419.24,-563.04 419.24,-563.04 413.24,-563.04 407.24,-557.04 407.24,-551.04 407.24,-551.04 407.24,-514.52 407.24,-514.52 407.24,-508.52 413.24,-502.52 419.24,-502.52 419.24,-502.52 534.76,-502.52 534.76,-502.52 540.76,-502.52 546.76,-508.52 546.76,-514.52 546.76,-514.52 546.76,-551.04 546.76,-551.04 546.76,-557.04 540.76,-563.04 534.76,-563.04"/>
<text xml:space="preserve" text-anchor="middle" x="477" y="-546.83" font-family="Helvetica,sans-Serif" font-size="11.00">Quantify water loss</text>
<text xml:space="preserve" text-anchor="middle" x="477" y="-521.83" font-family="Helvetica,sans-Serif" font-size="11.00">{c} Detect discrete events</text>
<text xml:space="preserve" text-anchor="middle" x="477" y="-509.83" font-family="Helvetica,sans-Serif" font-size="11.00">(overflow, pipe burst)</text>
</g>
<!-- SF_AQ10&#45;&gt;SF_AQ8 -->
<g id="edge4" class="edge">
<title>SF_AQ10&#45;&gt;SF_AQ8</title>
<path fill="none" stroke="#228b22" stroke-width="1.5" d="M735.41,-633.26C735.41,-603.26 735.41,-557 735.41,-557 735.41,-557 559.88,-557 559.88,-557"/>
<polygon fill="#228b22" stroke="#228b22" stroke-width="1.5" points="559.88,-553.5 549.88,-557 559.88,-560.5 559.88,-553.5"/>
<text xml:space="preserve" text-anchor="middle" x="591.75" y="-595.44" font-family="Helvetica,sans-Serif" font-size="8.00" fill="#333333">S/D meas.</text>
</g>
<!-- SF_AQ6 -->
<g id="node6" class="node">
<title>SF_AQ6</title>
<path fill="#90ee90" stroke="#228b22" stroke-width="2" d="M740.51,-550.78C740.51,-550.78 653.49,-550.78 653.49,-550.78 647.49,-550.78 641.49,-544.78 641.49,-538.78 641.49,-538.78 641.49,-526.78 641.49,-526.78 641.49,-520.78 647.49,-514.78 653.49,-514.78 653.49,-514.78 740.51,-514.78 740.51,-514.78 746.51,-514.78 752.51,-520.78 752.51,-526.78 752.51,-526.78 752.51,-538.78 752.51,-538.78 752.51,-544.78 746.51,-550.78 740.51,-550.78"/>
<text xml:space="preserve" text-anchor="middle" x="697" y="-534.33" font-family="Helvetica,sans-Serif" font-size="11.00">Predict water</text>
<text xml:space="preserve" text-anchor="middle" x="697" y="-522.33" font-family="Helvetica,sans-Serif" font-size="11.00">supply and demand</text>
</g>
<!-- SF_AQ10&#45;&gt;SF_AQ6 -->
<g id="edge8" class="edge">
<title>SF_AQ10&#45;&gt;SF_AQ6</title>
<path fill="none" stroke="#228b22" stroke-width="1.5" d="M743.96,-633.2C743.96,-633.2 743.96,-563.97 743.96,-563.97"/>
<polygon fill="#228b22" stroke="#228b22" stroke-width="1.5" points="747.46,-563.97 743.96,-553.97 740.46,-563.97 747.46,-563.97"/>
<text xml:space="preserve" text-anchor="middle" x="775.75" y="-595.44" font-family="Helvetica,sans-Serif" font-size="8.00" fill="#333333">S/D meas.</text>
</g>
<!-- SF_AQ5 -->
<g id="node10" class="node">
<title>SF_AQ5</title>
<path fill="#90ee90" stroke="#228b22" stroke-width="2" d="M912.14,-431.52C912.14,-431.52 825.86,-431.52 825.86,-431.52 819.86,-431.52 813.86,-425.52 813.86,-419.52 813.86,-419.52 813.86,-407.52 813.86,-407.52 813.86,-401.52 819.86,-395.52 825.86,-395.52 825.86,-395.52 912.14,-395.52 912.14,-395.52 918.14,-395.52 924.14,-401.52 924.14,-407.52 924.14,-407.52 924.14,-419.52 924.14,-419.52 924.14,-425.52 918.14,-431.52 912.14,-431.52"/>
<text xml:space="preserve" text-anchor="middle" x="869" y="-415.07" font-family="Helvetica,sans-Serif" font-size="11.00">Notify of insufficient</text>
<text xml:space="preserve" text-anchor="middle" x="869" y="-403.07" font-family="Helvetica,sans-Serif" font-size="11.00">supply events</text>
</g>
<!-- SF_AQ10&#45;&gt;SF_AQ5 -->
<g id="edge9" class="edge">
<title>SF_AQ10&#45;&gt;SF_AQ5</title>
<path fill="none" stroke="#228b22" stroke-width="1.5" d="M843.5,-633.48C843.5,-633.48 843.5,-444.47 843.5,-444.47"/>
<polygon fill="#228b22" stroke="#228b22" stroke-width="1.5" points="847,-444.47 843.5,-434.47 840,-444.47 847,-444.47"/>
<text xml:space="preserve" text-anchor="middle" x="879.75" y="-529.68" font-family="Helvetica,sans-Serif" font-size="8.00" fill="#333333">S/D meas.</text>
</g>
<!-- SF_AQ15 -->
<g id="node12" class="node">
<title>SF_AQ15</title>
<path fill="#90ee90" stroke="#228b22" stroke-width="2" d="M569.89,-324.52C569.89,-324.52 476.11,-324.52 476.11,-324.52 470.11,-324.52 464.11,-318.52 464.11,-312.52 464.11,-312.52 464.11,-276 464.11,-276 464.11,-270 470.11,-264 476.11,-264 476.11,-264 569.89,-264 569.89,-264 575.89,-264 581.89,-270 581.89,-276 581.89,-276 581.89,-312.52 581.89,-312.52 581.89,-318.52 575.89,-324.52 569.89,-324.52"/>
<text xml:space="preserve" text-anchor="middle" x="523" y="-308.31" font-family="Helvetica,sans-Serif" font-size="11.00">Store measurements</text>
<text xml:space="preserve" text-anchor="middle" x="523" y="-296.31" font-family="Helvetica,sans-Serif" font-size="11.00">and events</text>
<text xml:space="preserve" text-anchor="middle" x="523" y="-271.31" font-family="Helvetica,sans-Serif" font-size="11.00">{c} Timestamped</text>
</g>
<!-- SF_AQ10&#45;&gt;SF_AQ15 -->
<g id="edge11" class="edge">
<title>SF_AQ10&#45;&gt;SF_AQ15</title>
<path fill="none" stroke="#aaccaa" d="M726.13,-658C653.61,-658 553.79,-658 553.79,-658 553.79,-658 553.79,-332.79 553.79,-332.79"/>
<polygon fill="#aaccaa" stroke="#aaccaa" points="555.89,-332.79 553.79,-326.79 551.69,-332.79 555.89,-332.79"/>
</g>
<!-- SF_AQ16 -->
<g id="node7" class="node">
<title>SF_AQ16</title>
<path fill="#90ee90" stroke="#228b22" stroke-width="2" d="M88.39,-431.52C88.39,-431.52 27.61,-431.52 27.61,-431.52 21.61,-431.52 15.61,-425.52 15.61,-419.52 15.61,-419.52 15.61,-407.52 15.61,-407.52 15.61,-401.52 21.61,-395.52 27.61,-395.52 27.61,-395.52 88.39,-395.52 88.39,-395.52 94.39,-395.52 100.39,-401.52 100.39,-407.52 100.39,-407.52 100.39,-419.52 100.39,-419.52 100.39,-425.52 94.39,-431.52 88.39,-431.52"/>
<text xml:space="preserve" text-anchor="middle" x="58" y="-415.07" font-family="Helvetica,sans-Serif" font-size="11.00">Predict water</text>
<text xml:space="preserve" text-anchor="middle" x="58" y="-403.07" font-family="Helvetica,sans-Serif" font-size="11.00">loss event risk</text>
</g>
<!-- SF_AQ8&#45;&gt;SF_AQ16 -->
<g id="edge6" class="edge">
<title>SF_AQ8&#45;&gt;SF_AQ16</title>
<path fill="none" stroke="#228b22" stroke-width="1.5" d="M406.4,-533C286.98,-533 58,-533 58,-533 58,-533 58,-444.72 58,-444.72"/>
<polygon fill="#228b22" stroke="#228b22" stroke-width="1.5" points="61.5,-444.72 58,-434.72 54.5,-444.72 61.5,-444.72"/>
<text xml:space="preserve" text-anchor="middle" x="235.38" y="-463.92" font-family="Helvetica,sans-Serif" font-size="8.00" fill="#333333">WL quantification</text>
</g>
<!-- SF_AQ7 -->
<g id="node8" class="node">
<title>SF_AQ7</title>
<path fill="#90ee90" stroke="#228b22" stroke-width="2" d="M463.64,-431.52C463.64,-431.52 380.36,-431.52 380.36,-431.52 374.36,-431.52 368.36,-425.52 368.36,-419.52 368.36,-419.52 368.36,-407.52 368.36,-407.52 368.36,-401.52 374.36,-395.52 380.36,-395.52 380.36,-395.52 463.64,-395.52 463.64,-395.52 469.64,-395.52 475.64,-401.52 475.64,-407.52 475.64,-407.52 475.64,-419.52 475.64,-419.52 475.64,-425.52 469.64,-431.52 463.64,-431.52"/>
<text xml:space="preserve" text-anchor="middle" x="422" y="-415.07" font-family="Helvetica,sans-Serif" font-size="11.00">Notify of significant</text>
<text xml:space="preserve" text-anchor="middle" x="422" y="-403.07" font-family="Helvetica,sans-Serif" font-size="11.00">water loss events</text>
</g>
<!-- SF_AQ8&#45;&gt;SF_AQ7 -->
<g id="edge5" class="edge">
<title>SF_AQ8&#45;&gt;SF_AQ7</title>
<path fill="none" stroke="#228b22" stroke-width="1.5" d="M441.44,-501.76C441.44,-501.76 441.44,-444.74 441.44,-444.74"/>
<polygon fill="#228b22" stroke="#228b22" stroke-width="1.5" points="444.94,-444.74 441.44,-434.74 437.94,-444.74 444.94,-444.74"/>
<text xml:space="preserve" text-anchor="middle" x="471.38" y="-463.92" font-family="Helvetica,sans-Serif" font-size="8.00" fill="#333333">WL quantification</text>
</g>
<!-- SF_AQ8&#45;&gt;SF_AQ15 -->
<g id="edge13" class="edge">
<title>SF_AQ8&#45;&gt;SF_AQ15</title>
<path fill="none" stroke="#aaccaa" d="M499.35,-501.6C499.35,-501.6 499.35,-332.96 499.35,-332.96"/>
<polygon fill="#aaccaa" stroke="#aaccaa" points="501.45,-332.96 499.35,-326.96 497.25,-332.96 501.45,-332.96"/>
</g>
<!-- SF_AQ12 -->
<g id="node11" class="node">
<title>SF_AQ12</title>
<path fill="#90ee90" stroke="#228b22" stroke-width="2" d="M751.76,-431.52C751.76,-431.52 642.24,-431.52 642.24,-431.52 636.24,-431.52 630.24,-425.52 630.24,-419.52 630.24,-419.52 630.24,-407.52 630.24,-407.52 630.24,-401.52 636.24,-395.52 642.24,-395.52 642.24,-395.52 751.76,-395.52 751.76,-395.52 757.76,-395.52 763.76,-401.52 763.76,-407.52 763.76,-407.52 763.76,-419.52 763.76,-419.52 763.76,-425.52 757.76,-431.52 751.76,-431.52"/>
<text xml:space="preserve" text-anchor="middle" x="697" y="-415.07" font-family="Helvetica,sans-Serif" font-size="11.00">Notify of high insufficient</text>
<text xml:space="preserve" text-anchor="middle" x="697" y="-403.07" font-family="Helvetica,sans-Serif" font-size="11.00">supply probability</text>
</g>
<!-- SF_AQ6&#45;&gt;SF_AQ12 -->
<g id="edge10" class="edge">
<title>SF_AQ6&#45;&gt;SF_AQ12</title>
<path fill="none" stroke="#228b22" stroke-width="1.5" d="M697,-513.88C697,-513.88 697,-444.6 697,-444.6"/>
<polygon fill="#228b22" stroke="#228b22" stroke-width="1.5" points="700.5,-444.6 697,-434.6 693.5,-444.6 700.5,-444.6"/>
<text xml:space="preserve" text-anchor="middle" x="724" y="-463.92" font-family="Helvetica,sans-Serif" font-size="8.00" fill="#333333">S/D predictions</text>
</g>
<!-- SF_AQ6&#45;&gt;SF_AQ15 -->
<g id="edge12" class="edge">
<title>SF_AQ6&#45;&gt;SF_AQ15</title>
<path fill="none" stroke="#aaccaa" d="M640.82,-533C603.31,-533 560.81,-533 560.81,-533 560.81,-533 560.81,-332.98 560.81,-332.98"/>
<polygon fill="#aaccaa" stroke="#aaccaa" points="562.92,-332.98 560.82,-326.98 558.72,-332.98 562.92,-332.98"/>
</g>
<!-- SF_AQ11 -->
<g id="node9" class="node">
<title>SF_AQ11</title>
<path fill="#90ee90" stroke="#228b22" stroke-width="2" d="M306.51,-431.52C306.51,-431.52 213.49,-431.52 213.49,-431.52 207.49,-431.52 201.49,-425.52 201.49,-419.52 201.49,-419.52 201.49,-407.52 201.49,-407.52 201.49,-401.52 207.49,-395.52 213.49,-395.52 213.49,-395.52 306.51,-395.52 306.51,-395.52 312.51,-395.52 318.51,-401.52 318.51,-407.52 318.51,-407.52 318.51,-419.52 318.51,-419.52 318.51,-425.52 312.51,-431.52 306.51,-431.52"/>
<text xml:space="preserve" text-anchor="middle" x="260" y="-415.07" font-family="Helvetica,sans-Serif" font-size="11.00">Notify of high water</text>
<text xml:space="preserve" text-anchor="middle" x="260" y="-403.07" font-family="Helvetica,sans-Serif" font-size="11.00">loss event probability</text>
</g>
<!-- SF_AQ16&#45;&gt;SF_AQ11 -->
<g id="edge7" class="edge">
<title>SF_AQ16&#45;&gt;SF_AQ11</title>
<path fill="none" stroke="#228b22" stroke-width="1.5" d="M101.33,-414C101.33,-414 188.38,-414 188.38,-414"/>
<polygon fill="#228b22" stroke="#228b22" stroke-width="1.5" points="188.38,-417.5 198.38,-414 188.38,-410.5 188.38,-417.5"/>
</g>
<!-- SF_AQ16&#45;&gt;SF_AQ15 -->
<g id="edge14" class="edge">
<title>SF_AQ16&#45;&gt;SF_AQ15</title>
<path fill="none" stroke="#aaccaa" d="M58,-394.69C58,-358.76 58,-284 58,-284 58,-284 455.65,-284 455.65,-284"/>
<polygon fill="#aaccaa" stroke="#aaccaa" points="455.65,-286.1 461.65,-284 455.65,-281.9 455.65,-286.1"/>
</g>
<!-- SF_AQ7&#45;&gt;SF_AQ15 -->
<g id="edge16" class="edge">
<title>SF_AQ7&#45;&gt;SF_AQ15</title>
<path fill="none" stroke="#aaccaa" d="M469.88,-394.62C469.88,-394.62 469.88,-332.66 469.88,-332.66"/>
<polygon fill="#aaccaa" stroke="#aaccaa" points="471.98,-332.66 469.88,-326.66 467.78,-332.66 471.98,-332.66"/>
</g>
<!-- F_IMPL_WL_MIT -->
<g id="node16" class="node">
<title>F_IMPL_WL_MIT</title>
<path fill="#f9e79f" stroke="#b7950b" stroke-width="2" d="M662.64,-52C662.64,-52 567.36,-52 567.36,-52 561.36,-52 555.36,-46 555.36,-40 555.36,-40 555.36,-28 555.36,-28 555.36,-22 561.36,-16 567.36,-16 567.36,-16 662.64,-16 662.64,-16 668.64,-16 674.64,-22 674.64,-28 674.64,-28 674.64,-40 674.64,-40 674.64,-46 668.64,-52 662.64,-52"/>
<text xml:space="preserve" text-anchor="middle" x="615" y="-35.55" font-family="Helvetica,sans-Serif" font-size="11.00">Implement water loss</text>
<text xml:space="preserve" text-anchor="middle" x="615" y="-23.55" font-family="Helvetica,sans-Serif" font-size="11.00">mitigation strategy</text>
</g>
<!-- SF_AQ7&#45;&gt;F_IMPL_WL_MIT -->
<g id="edge23" class="edge">
<title>SF_AQ7&#45;&gt;F_IMPL_WL_MIT</title>
<path fill="none" stroke="#aaccaa" d="M416.24,-394.64C416.24,-319.13 416.24,-43 416.24,-43 416.24,-43 547.04,-43 547.04,-43"/>
<polygon fill="#aaccaa" stroke="#aaccaa" points="547.04,-45.1 553.04,-43 547.04,-40.9 547.04,-45.1"/>
</g>
<!-- SF_AQ11&#45;&gt;SF_AQ15 -->
<g id="edge17" class="edge">
<title>SF_AQ11&#45;&gt;SF_AQ15</title>
<path fill="none" stroke="#aaccaa" d="M289.26,-394.94C289.26,-363.69 289.26,-304 289.26,-304 289.26,-304 455.9,-304 455.9,-304"/>
<polygon fill="#aaccaa" stroke="#aaccaa" points="455.9,-306.1 461.9,-304 455.9,-301.9 455.9,-306.1"/>
</g>
<!-- SF_AQ11&#45;&gt;F_IMPL_WL_MIT -->
<g id="edge24" class="edge">
<title>SF_AQ11&#45;&gt;F_IMPL_WL_MIT</title>
<path fill="none" stroke="#aaccaa" d="M230.74,-394.78C230.74,-317.17 230.74,-25 230.74,-25 230.74,-25 547.02,-25 547.02,-25"/>
<polygon fill="#aaccaa" stroke="#aaccaa" points="547.02,-27.1 553.02,-25 547.02,-22.9 547.02,-27.1"/>
</g>
<!-- SF_AQ5&#45;&gt;SF_AQ15 -->
<g id="edge15" class="edge">
<title>SF_AQ5&#45;&gt;SF_AQ15</title>
<path fill="none" stroke="#aaccaa" d="M828.73,-394.57C828.73,-375.22 828.73,-348 828.73,-348 828.73,-348 574.87,-348 574.87,-348 574.87,-348 574.87,-332.72 574.87,-332.72"/>
<polygon fill="#aaccaa" stroke="#aaccaa" points="576.97,-332.72 574.87,-326.72 572.77,-332.72 576.97,-332.72"/>
</g>
<!-- F_DEF_DIST -->
<g id="node18" class="node">
<title>F_DEF_DIST</title>
<path fill="#f9e79f" stroke="#b7950b" stroke-width="2" d="M807.64,-52C807.64,-52 736.36,-52 736.36,-52 730.36,-52 724.36,-46 724.36,-40 724.36,-40 724.36,-28 724.36,-28 724.36,-22 730.36,-16 736.36,-16 736.36,-16 807.64,-16 807.64,-16 813.64,-16 819.64,-22 819.64,-28 819.64,-28 819.64,-40 819.64,-40 819.64,-46 813.64,-52 807.64,-52"/>
<text xml:space="preserve" text-anchor="middle" x="772" y="-35.55" font-family="Helvetica,sans-Serif" font-size="11.00">Define water</text>
<text xml:space="preserve" text-anchor="middle" x="772" y="-23.55" font-family="Helvetica,sans-Serif" font-size="11.00">distribution rules</text>
</g>
<!-- SF_AQ5&#45;&gt;F_DEF_DIST -->
<g id="edge25" class="edge">
<title>SF_AQ5&#45;&gt;F_DEF_DIST</title>
<path fill="none" stroke="#aaccaa" d="M837.81,-394.66C837.81,-317.26 837.81,-28 837.81,-28 837.81,-28 828.03,-28 828.03,-28"/>
<polygon fill="#aaccaa" stroke="#aaccaa" points="828.03,-25.9 822.03,-28 828.03,-30.1 828.03,-25.9"/>
</g>
<!-- SF_AQ12&#45;&gt;SF_AQ15 -->
<g id="edge18" class="edge">
<title>SF_AQ12&#45;&gt;SF_AQ15</title>
<path fill="none" stroke="#aaccaa" d="M629.39,-414C598.14,-414 567.84,-414 567.84,-414 567.84,-414 567.84,-332.92 567.84,-332.92"/>
<polygon fill="#aaccaa" stroke="#aaccaa" points="569.94,-332.92 567.84,-326.92 565.74,-332.92 569.94,-332.92"/>
</g>
<!-- SF_AQ12&#45;&gt;F_DEF_DIST -->
<g id="edge26" class="edge">
<title>SF_AQ12&#45;&gt;F_DEF_DIST</title>
<path fill="none" stroke="#aaccaa" d="M679.37,-394.74C679.37,-319 679.37,-40 679.37,-40 679.37,-40 716,-40 716,-40"/>
<polygon fill="#aaccaa" stroke="#aaccaa" points="716,-42.1 722,-40 716,-37.9 716,-42.1"/>
</g>
<!-- SF_AQ14 -->
<g id="node13" class="node">
<title>SF_AQ14</title>
<path fill="#90ee90" stroke="#228b22" stroke-width="2" d="M794.26,-324.52C794.26,-324.52 693.74,-324.52 693.74,-324.52 687.74,-324.52 681.74,-318.52 681.74,-312.52 681.74,-312.52 681.74,-276 681.74,-276 681.74,-270 687.74,-264 693.74,-264 693.74,-264 794.26,-264 794.26,-264 800.26,-264 806.26,-270 806.26,-276 806.26,-276 806.26,-312.52 806.26,-312.52 806.26,-318.52 800.26,-324.52 794.26,-324.52"/>
<text xml:space="preserve" text-anchor="middle" x="744" y="-308.31" font-family="Helvetica,sans-Serif" font-size="11.00">Present stored data</text>
<text xml:space="preserve" text-anchor="middle" x="744" y="-283.31" font-family="Helvetica,sans-Serif" font-size="11.00">{c} Time series graphs</text>
<text xml:space="preserve" text-anchor="middle" x="744" y="-271.31" font-family="Helvetica,sans-Serif" font-size="11.00">{c} Filtered</text>
</g>
<!-- SF_AQ15&#45;&gt;SF_AQ14 -->
<g id="edge19" class="edge">
<title>SF_AQ15&#45;&gt;SF_AQ14</title>
<path fill="none" stroke="#228b22" stroke-width="1.5" d="M582.81,-294C582.81,-294 668.79,-294 668.79,-294"/>
<polygon fill="#228b22" stroke="#228b22" stroke-width="1.5" points="668.79,-297.5 678.79,-294 668.79,-290.5 668.79,-297.5"/>
</g>
<!-- SF_AQ13 -->
<g id="node14" class="node">
<title>SF_AQ13</title>
<path fill="#90ee90" stroke="#228b22" stroke-width="2" d="M964.01,-312.26C964.01,-312.26 867.99,-312.26 867.99,-312.26 861.99,-312.26 855.99,-306.26 855.99,-300.26 855.99,-300.26 855.99,-288.26 855.99,-288.26 855.99,-282.26 861.99,-276.26 867.99,-276.26 867.99,-276.26 964.01,-276.26 964.01,-276.26 970.01,-276.26 976.01,-282.26 976.01,-288.26 976.01,-288.26 976.01,-300.26 976.01,-300.26 976.01,-306.26 970.01,-312.26 964.01,-312.26"/>
<text xml:space="preserve" text-anchor="middle" x="916" y="-295.81" font-family="Helvetica,sans-Serif" font-size="11.00">Make data accessible</text>
<text xml:space="preserve" text-anchor="middle" x="916" y="-283.81" font-family="Helvetica,sans-Serif" font-size="11.00">to external entities</text>
</g>
<!-- SF_AQ15&#45;&gt;SF_AQ13 -->
<g id="edge20" class="edge">
<title>SF_AQ15&#45;&gt;SF_AQ13</title>
<path fill="none" stroke="#228b22" stroke-width="1.5" d="M565.67,-263.33C565.67,-241.45 565.67,-216 565.67,-216 565.67,-216 864.61,-216 864.61,-216 864.61,-216 864.61,-263.05 864.61,-263.05"/>
<polygon fill="#228b22" stroke="#228b22" stroke-width="1.5" points="861.11,-263.05 864.61,-273.05 868.11,-263.05 861.11,-263.05"/>
<text xml:space="preserve" text-anchor="middle" x="785" y="-356.92" font-family="Helvetica,sans-Serif" font-size="8.00" fill="#333333">Stored data</text>
</g>
<!-- F_CONSULT_WL -->
<g id="node15" class="node">
<title>F_CONSULT_WL</title>
<path fill="#f9e79f" stroke="#b7950b" stroke-width="2" d="M648.01,-168C648.01,-168 587.99,-168 587.99,-168 581.99,-168 575.99,-162 575.99,-156 575.99,-156 575.99,-144 575.99,-144 575.99,-138 581.99,-132 587.99,-132 587.99,-132 648.01,-132 648.01,-132 654.01,-132 660.01,-138 660.01,-144 660.01,-144 660.01,-156 660.01,-156 660.01,-162 654.01,-168 648.01,-168"/>
<text xml:space="preserve" text-anchor="middle" x="618" y="-151.55" font-family="Helvetica,sans-Serif" font-size="11.00">Consult water</text>
<text xml:space="preserve" text-anchor="middle" x="618" y="-139.55" font-family="Helvetica,sans-Serif" font-size="11.00">loss data</text>
</g>
<!-- SF_AQ14&#45;&gt;F_CONSULT_WL -->
<g id="edge21" class="edge">
<title>SF_AQ14&#45;&gt;F_CONSULT_WL</title>
<path fill="none" stroke="#228b22" stroke-width="1.5" d="M698.42,-263.31C698.42,-220.92 698.42,-150 698.42,-150 698.42,-150 672.84,-150 672.84,-150"/>
<polygon fill="#228b22" stroke="#228b22" stroke-width="1.5" points="672.84,-146.5 662.84,-150 672.84,-153.5 672.84,-146.5"/>
<text xml:space="preserve" text-anchor="middle" x="656.75" y="-225.4" font-family="Helvetica,sans-Serif" font-size="8.00" fill="#333333">Water loss data</text>
</g>
<!-- F_CONSULT_SD -->
<g id="node17" class="node">
<title>F_CONSULT_SD</title>
<path fill="#f9e79f" stroke="#b7950b" stroke-width="2" d="M802.89,-168C802.89,-168 727.11,-168 727.11,-168 721.11,-168 715.11,-162 715.11,-156 715.11,-156 715.11,-144 715.11,-144 715.11,-138 721.11,-132 727.11,-132 727.11,-132 802.89,-132 802.89,-132 808.89,-132 814.89,-138 814.89,-144 814.89,-144 814.89,-156 814.89,-156 814.89,-162 808.89,-168 802.89,-168"/>
<text xml:space="preserve" text-anchor="middle" x="765" y="-145.55" font-family="Helvetica,sans-Serif" font-size="11.00">Consult S/D data</text>
</g>
<!-- SF_AQ14&#45;&gt;F_CONSULT_SD -->
<g id="edge22" class="edge">
<title>SF_AQ14&#45;&gt;F_CONSULT_SD</title>
<path fill="none" stroke="#228b22" stroke-width="1.5" d="M760.69,-263.31C760.69,-263.31 760.69,-181.25 760.69,-181.25"/>
<polygon fill="#228b22" stroke="#228b22" stroke-width="1.5" points="764.19,-181.25 760.69,-171.25 757.19,-181.25 764.19,-181.25"/>
<text xml:space="preserve" text-anchor="middle" x="766.75" y="-225.4" font-family="Helvetica,sans-Serif" font-size="8.00" fill="#333333">S/D data</text>
</g>
<!-- SF_ED1 -->
<g id="node19" class="node">
<title>SF_ED1</title>
<path fill="#90ee90" stroke="#228b22" stroke-width="2" d="M946.76,-168C946.76,-168 885.24,-168 885.24,-168 879.24,-168 873.24,-162 873.24,-156 873.24,-156 873.24,-144 873.24,-144 873.24,-138 879.24,-132 885.24,-132 885.24,-132 946.76,-132 946.76,-132 952.76,-132 958.76,-138 958.76,-144 958.76,-144 958.76,-156 958.76,-156 958.76,-162 952.76,-168 946.76,-168"/>
<text xml:space="preserve" text-anchor="middle" x="916" y="-151.55" font-family="Helvetica,sans-Serif" font-size="11.00">Receive</text>
<text xml:space="preserve" text-anchor="middle" x="916" y="-139.55" font-family="Helvetica,sans-Serif" font-size="11.00">aqueduct data</text>
</g>
<!-- SF_AQ13&#45;&gt;SF_ED1 -->
<g id="edge33" class="edge">
<title>SF_AQ13&#45;&gt;SF_ED1</title>
<path fill="none" stroke="#228b22" stroke-width="1.5" d="M916,-275.4C916,-275.4 916,-181.13 916,-181.13"/>
<polygon fill="#228b22" stroke="#228b22" stroke-width="1.5" points="919.5,-181.13 916,-171.13 912.5,-181.13 919.5,-181.13"/>
<text xml:space="preserve" text-anchor="middle" x="943.38" y="-225.4" font-family="Helvetica,sans-Serif" font-size="8.00" fill="#333333">Shareable data</text>
</g>
<!-- F_CONSULT_WL&#45;&gt;F_IMPL_WL_MIT -->
<g id="edge31" class="edge">
<title>F_CONSULT_WL&#45;&gt;F_IMPL_WL_MIT</title>
<path fill="none" stroke="#228b22" stroke-width="1.5" d="M618,-131.1C618,-131.1 618,-65.16 618,-65.16"/>
<polygon fill="#228b22" stroke="#228b22" stroke-width="1.5" points="621.5,-65.16 618,-55.16 614.5,-65.16 621.5,-65.16"/>
<text xml:space="preserve" text-anchor="middle" x="643.62" y="-93.4" font-family="Helvetica,sans-Serif" font-size="8.00" fill="#333333">Analysis&#45;based</text>
<text xml:space="preserve" text-anchor="middle" x="643.62" y="-84.4" font-family="Helvetica,sans-Serif" font-size="8.00" fill="#333333">decision</text>
</g>
<!-- F_IMPL_WL_MIT&#45;&gt;SF_AQ8 -->
<g id="edge29" class="edge">
<title>F_IMPL_WL_MIT&#45;&gt;SF_AQ8</title>
<path fill="none" stroke="#d4c088" stroke-dasharray="5,2" d="M667.33,-52.65C667.33,-123.51 667.33,-372 667.33,-372 667.33,-372 523.06,-372 523.06,-372 523.06,-372 523.06,-494.27 523.06,-494.27"/>
<polygon fill="#d4c088" stroke="#d4c088" points="520.96,-494.27 523.06,-500.27 525.16,-494.27 520.96,-494.27"/>
</g>
<!-- F_IMPL_WL_MIT&#45;&gt;SF_AQ11 -->
<g id="edge30" class="edge">
<title>F_IMPL_WL_MIT&#45;&gt;SF_AQ11</title>
<path fill="none" stroke="#d4c088" stroke-dasharray="5,2" d="M554.38,-34C452.98,-34 260,-34 260,-34 260,-34 260,-387.19 260,-387.19"/>
<polygon fill="#d4c088" stroke="#d4c088" points="257.9,-387.19 260,-393.19 262.1,-387.19 257.9,-387.19"/>
</g>
<!-- F_CONSULT_SD&#45;&gt;F_DEF_DIST -->
<g id="edge32" class="edge">
<title>F_CONSULT_SD&#45;&gt;F_DEF_DIST</title>
<path fill="none" stroke="#228b22" stroke-width="1.5" d="M769.62,-131.1C769.62,-131.1 769.62,-65.16 769.62,-65.16"/>
<polygon fill="#228b22" stroke="#228b22" stroke-width="1.5" points="773.13,-65.16 769.63,-55.16 766.13,-65.16 773.13,-65.16"/>
<text xml:space="preserve" text-anchor="middle" x="792.62" y="-93.4" font-family="Helvetica,sans-Serif" font-size="8.00" fill="#333333">Analysis&#45;based</text>
<text xml:space="preserve" text-anchor="middle" x="792.62" y="-84.4" font-family="Helvetica,sans-Serif" font-size="8.00" fill="#333333">decision</text>
</g>
<!-- F_DEF_DIST&#45;&gt;SF_AQ5 -->
<g id="edge27" class="edge">
<title>F_DEF_DIST&#45;&gt;SF_AQ5</title>
<path fill="none" stroke="#d4c088" stroke-dasharray="5,2" d="M820.28,-40C834.77,-40 846.9,-40 846.9,-40 846.9,-40 846.9,-387.23 846.9,-387.23"/>
<polygon fill="#d4c088" stroke="#d4c088" points="844.8,-387.23 846.9,-393.23 849,-387.23 844.8,-387.23"/>
</g>
<!-- F_DEF_DIST&#45;&gt;SF_AQ12 -->
<g id="edge28" class="edge">
<title>F_DEF_DIST&#45;&gt;SF_AQ12</title>
<path fill="none" stroke="#d4c088" stroke-dasharray="5,2" d="M723.39,-28C700.02,-28 677,-28 677,-28 677,-28 677,-387.15 677,-387.15"/>
<polygon fill="#d4c088" stroke="#d4c088" points="674.91,-387.15 677.01,-393.15 679.11,-387.15 674.91,-387.15"/>
</g>
</g>
</svg>
