<?xml version="1.0" encoding="UTF-8" standalone="no"?>
<!DOCTYPE svg PUBLIC "-//W3C//DTD SVG 1.1//EN"
 "http://www.w3.org/Graphics/SVG/1.1/DTD/svg11.dtd">
<!-- Generated by graphviz version 14.1.4 (20260321.0153)
 -->
<!-- Title: FunctionalVersionsGantt Pages: 1 -->
<svg width="1322pt" height="535pt"
 viewBox="0.00 0.00 1322.00 535.00" xmlns="http://www.w3.org/2000/svg" xmlns:xlink="http://www.w3.org/1999/xlink">
<g id="graph0" class="graph" transform="scale(1 1) rotate(0) translate(14.4 520.4)">
<title>FunctionalVersionsGantt</title>
<polygon fill="white" stroke="none" points="-14.4,14.4 -14.4,-520.4 1307.15,-520.4 1307.15,14.4 -14.4,14.4"/>
<text xml:space="preserve" text-anchor="middle" x="646.38" y="-483" font-family="Helvetica,sans-Serif" font-size="20.00">IVV Gantt</text>
<!-- schedule -->
<g id="node1" class="node">
<title>schedule</title>
<polygon fill="#eaecee" stroke="none" points="1,-430 1,-476 177.25,-476 177.25,-430 1,-430"/>
<polygon fill="none" stroke="#7b694f" points="1,-430 1,-476 177.25,-476 177.25,-430 1,-430"/>
<text xml:space="preserve" text-anchor="start" x="49.75" y="-448.2" font-family="Helvetica,sans-Serif" font-weight="bold" font-size="14.00">Workstream</text>
<polygon fill="#eaecee" stroke="none" points="177.25,-430 177.25,-476 490.75,-476 490.75,-430 177.25,-430"/>
<polygon fill="none" stroke="#7b694f" points="177.25,-430 177.25,-476 490.75,-476 490.75,-430 177.25,-430"/>
<text xml:space="preserve" text-anchor="start" x="254.88" y="-454.7" font-family="Helvetica,sans-Serif" font-weight="bold" font-size="14.00">2026&#45;03&#45;26 to 2026&#45;04&#45;26</text>
<text xml:space="preserve" text-anchor="start" x="248.5" y="-440.7" font-family="Helvetica,sans-Serif" font-size="14.00">Logistics + early server work</text>
<polygon fill="#eaecee" stroke="none" points="490.75,-430 490.75,-476 751.75,-476 751.75,-430 490.75,-430"/>
<polygon fill="none" stroke="#7b694f" points="490.75,-430 490.75,-476 751.75,-476 751.75,-430 490.75,-430"/>
<text xml:space="preserve" text-anchor="start" x="542.12" y="-454.7" font-family="Helvetica,sans-Serif" font-weight="bold" font-size="14.00">2026&#45;04&#45;27 to 2026&#45;05&#45;10</text>
<text xml:space="preserve" text-anchor="start" x="608.88" y="-440.7" font-family="Helvetica,sans-Serif" font-size="14.00">FV2</text>
<polygon fill="#eaecee" stroke="none" points="751.75,-430 751.75,-476 928,-476 928,-430 751.75,-430"/>
<polygon fill="none" stroke="#7b694f" points="751.75,-430 751.75,-476 928,-476 928,-430 751.75,-430"/>
<text xml:space="preserve" text-anchor="start" x="760.75" y="-454.7" font-family="Helvetica,sans-Serif" font-weight="bold" font-size="14.00">2026&#45;05&#45;11 to 2026&#45;05&#45;24</text>
<text xml:space="preserve" text-anchor="start" x="827.5" y="-440.7" font-family="Helvetica,sans-Serif" font-size="14.00">FV3</text>
<polygon fill="#eaecee" stroke="none" points="928,-430 928,-476 1115.5,-476 1115.5,-430 928,-430"/>
<polygon fill="none" stroke="#7b694f" points="928,-430 928,-476 1115.5,-476 1115.5,-430 928,-430"/>
<text xml:space="preserve" text-anchor="start" x="942.62" y="-454.7" font-family="Helvetica,sans-Serif" font-weight="bold" font-size="14.00">2026&#45;05&#45;25 to 2026&#45;06&#45;07</text>
<text xml:space="preserve" text-anchor="start" x="1009.38" y="-440.7" font-family="Helvetica,sans-Serif" font-size="14.00">FV4</text>
<polygon fill="#eaecee" stroke="none" points="1115.5,-430 1115.5,-476 1291.75,-476 1291.75,-430 1115.5,-430"/>
<polygon fill="none" stroke="#7b694f" points="1115.5,-430 1115.5,-476 1291.75,-476 1291.75,-430 1115.5,-430"/>
<text xml:space="preserve" text-anchor="start" x="1124.5" y="-454.7" font-family="Helvetica,sans-Serif" font-weight="bold" font-size="14.00">2026&#45;06&#45;08 to 2026&#45;06&#45;21</text>
<text xml:space="preserve" text-anchor="start" x="1191.25" y="-440.7" font-family="Helvetica,sans-Serif" font-size="14.00">FV5</text>
<polygon fill="none" stroke="#7b694f" points="1,-397 1,-430 177.25,-430 177.25,-397 1,-397"/>
<text xml:space="preserve" text-anchor="start" x="10" y="-408.7" font-family="Helvetica,sans-Serif" font-weight="bold" font-size="14.00">Logistics</text>
<polygon fill="#f9e79f" stroke="none" points="177.25,-397 177.25,-430 490.75,-430 490.75,-397 177.25,-397"/>
<polygon fill="none" stroke="#7b694f" points="177.25,-397 177.25,-430 490.75,-430 490.75,-397 177.25,-397"/>
<text xml:space="preserve" text-anchor="start" x="186.25" y="-409.75" font-family="Helvetica,sans-Serif" font-size="14.00">Waveshare and Seeed components procurement</text>
<polygon fill="none" stroke="#7b694f" points="490.75,-397 490.75,-430 751.75,-430 751.75,-397 490.75,-397"/>
<polygon fill="none" stroke="#7b694f" points="751.75,-397 751.75,-430 928,-430 928,-397 751.75,-397"/>
<polygon fill="none" stroke="#7b694f" points="928,-397 928,-430 1115.5,-430 1115.5,-397 928,-397"/>
<polygon fill="none" stroke="#7b694f" points="1115.5,-397 1115.5,-430 1291.75,-430 1291.75,-397 1115.5,-397"/>
<polygon fill="none" stroke="#7b694f" points="1,-319 1,-397 177.25,-397 177.25,-319 1,-319"/>
<text xml:space="preserve" text-anchor="start" x="37.38" y="-359.7" font-family="Helvetica,sans-Serif" font-weight="bold" font-size="14.00">FV1</text>
<text xml:space="preserve" text-anchor="start" x="10" y="-345.7" font-family="Helvetica,sans-Serif" font-size="14.00">Server ingest</text>
<polygon fill="#aed6f1" stroke="none" points="177.25,-319 177.25,-397 490.75,-397 490.75,-319 177.25,-319"/>
<polygon fill="none" stroke="#7b694f" points="177.25,-319 177.25,-397 490.75,-397 490.75,-319 177.25,-319"/>
<text xml:space="preserve" text-anchor="start" x="255.62" y="-376.75" font-family="Helvetica,sans-Serif" font-size="14.00">2026&#45;03&#45;26 to 2026&#45;04&#45;08</text>
<text xml:space="preserve" text-anchor="start" x="272.88" y="-361.75" font-family="Helvetica,sans-Serif" font-size="14.00">Telemetry simulator,</text>
<text xml:space="preserve" text-anchor="start" x="283.75" y="-346.75" font-family="Helvetica,sans-Serif" font-size="14.00">ingest validation,</text>
<text xml:space="preserve" text-anchor="start" x="250.75" y="-331.75" font-family="Helvetica,sans-Serif" font-size="14.00">storage, dashboard visibility</text>
<polygon fill="none" stroke="#7b694f" points="490.75,-319 490.75,-397 751.75,-397 751.75,-319 490.75,-319"/>
<polygon fill="none" stroke="#7b694f" points="751.75,-319 751.75,-397 928,-397 928,-319 751.75,-319"/>
<polygon fill="none" stroke="#7b694f" points="928,-319 928,-397 1115.5,-397 1115.5,-319 928,-319"/>
<polygon fill="none" stroke="#7b694f" points="1115.5,-319 1115.5,-397 1291.75,-397 1291.75,-319 1115.5,-319"/>
<polygon fill="none" stroke="#7b694f" points="1,-256 1,-319 177.25,-319 177.25,-256 1,-256"/>
<text xml:space="preserve" text-anchor="start" x="10" y="-282.7" font-family="Helvetica,sans-Serif" font-weight="bold" font-size="14.00">Server development</text>
<polygon fill="#ebf5fb" stroke="none" points="177.25,-256 177.25,-319 490.75,-319 490.75,-256 177.25,-256"/>
<polygon fill="none" stroke="#7b694f" points="177.25,-256 177.25,-319 490.75,-319 490.75,-256 177.25,-256"/>
<text xml:space="preserve" text-anchor="start" x="255.62" y="-298.75" font-family="Helvetica,sans-Serif" font-size="14.00">2026&#45;04&#45;09 to 2026&#45;04&#45;26</text>
<text xml:space="preserve" text-anchor="start" x="260.12" y="-283.75" font-family="Helvetica,sans-Serif" font-size="14.00">Deployment automation,</text>
<text xml:space="preserve" text-anchor="start" x="261.25" y="-268.75" font-family="Helvetica,sans-Serif" font-size="14.00">bench setup preparation</text>
<polygon fill="none" stroke="#7b694f" points="490.75,-256 490.75,-319 751.75,-319 751.75,-256 490.75,-256"/>
<polygon fill="none" stroke="#7b694f" points="751.75,-256 751.75,-319 928,-319 928,-256 751.75,-256"/>
<polygon fill="none" stroke="#7b694f" points="928,-256 928,-319 1115.5,-319 1115.5,-256 928,-256"/>
<polygon fill="none" stroke="#7b694f" points="1115.5,-256 1115.5,-319 1291.75,-319 1291.75,-256 1115.5,-256"/>
<polygon fill="none" stroke="#7b694f" points="1,-208 1,-256 177.25,-256 177.25,-208 1,-208"/>
<text xml:space="preserve" text-anchor="start" x="47.88" y="-233.7" font-family="Helvetica,sans-Serif" font-weight="bold" font-size="14.00">FV2</text>
<text xml:space="preserve" text-anchor="start" x="10" y="-219.7" font-family="Helvetica,sans-Serif" font-size="14.00">Bench field node</text>
<polygon fill="none" stroke="#7b694f" points="177.25,-208 177.25,-256 490.75,-256 490.75,-208 177.25,-208"/>
<polygon fill="#d5f5e3" stroke="none" points="490.75,-208 490.75,-256 751.75,-256 751.75,-208 490.75,-208"/>
<polygon fill="none" stroke="#7b694f" points="490.75,-208 490.75,-256 751.75,-256 751.75,-208 490.75,-208"/>
<text xml:space="preserve" text-anchor="start" x="530.5" y="-235.75" font-family="Helvetica,sans-Serif" font-size="14.00">XIAO + modem + power path,</text>
<text xml:space="preserve" text-anchor="start" x="499.75" y="-220.75" font-family="Helvetica,sans-Serif" font-size="14.00">dummy Modbus + analog depth sources</text>
<polygon fill="none" stroke="#7b694f" points="751.75,-208 751.75,-256 928,-256 928,-208 751.75,-208"/>
<polygon fill="none" stroke="#7b694f" points="928,-208 928,-256 1115.5,-256 1115.5,-208 928,-208"/>
<polygon fill="none" stroke="#7b694f" points="1115.5,-208 1115.5,-256 1291.75,-256 1291.75,-208 1115.5,-208"/>
<polygon fill="none" stroke="#7b694f" points="1,-145 1,-208 177.25,-208 177.25,-145 1,-145"/>
<text xml:space="preserve" text-anchor="start" x="62.5" y="-178.2" font-family="Helvetica,sans-Serif" font-weight="bold" font-size="14.00">FV3</text>
<text xml:space="preserve" text-anchor="start" x="10" y="-164.2" font-family="Helvetica,sans-Serif" font-size="14.00">Operations and alerts</text>
<polygon fill="none" stroke="#7b694f" points="177.25,-145 177.25,-208 490.75,-208 490.75,-145 177.25,-145"/>
<polygon fill="none" stroke="#7b694f" points="490.75,-145 490.75,-208 751.75,-208 751.75,-145 490.75,-145"/>
<polygon fill="#aed6f1" stroke="none" points="751.75,-145 751.75,-208 928,-208 928,-145 751.75,-145"/>
<polygon fill="none" stroke="#7b694f" points="751.75,-145 751.75,-208 928,-208 928,-145 751.75,-145"/>
<text xml:space="preserve" text-anchor="start" x="786.25" y="-187.75" font-family="Helvetica,sans-Serif" font-size="14.00">Threshold editing,</text>
<text xml:space="preserve" text-anchor="start" x="772.75" y="-172.75" font-family="Helvetica,sans-Serif" font-size="14.00">dashboard operations,</text>
<text xml:space="preserve" text-anchor="start" x="773.5" y="-157.75" font-family="Helvetica,sans-Serif" font-size="14.00">event/risk notifications</text>
<polygon fill="none" stroke="#7b694f" points="928,-145 928,-208 1115.5,-208 1115.5,-145 928,-145"/>
<polygon fill="none" stroke="#7b694f" points="1115.5,-145 1115.5,-208 1291.75,-208 1291.75,-145 1115.5,-145"/>
<polygon fill="none" stroke="#7b694f" points="1,-82 1,-145 177.25,-145 177.25,-82 1,-82"/>
<text xml:space="preserve" text-anchor="start" x="76.75" y="-115.2" font-family="Helvetica,sans-Serif" font-weight="bold" font-size="14.00">FV4</text>
<text xml:space="preserve" text-anchor="start" x="10" y="-101.2" font-family="Helvetica,sans-Serif" font-size="14.00">Security and recoverability</text>
<polygon fill="none" stroke="#7b694f" points="177.25,-82 177.25,-145 490.75,-145 490.75,-82 177.25,-82"/>
<polygon fill="none" stroke="#7b694f" points="490.75,-82 490.75,-145 751.75,-145 751.75,-82 490.75,-82"/>
<polygon fill="none" stroke="#7b694f" points="751.75,-82 751.75,-145 928,-145 928,-82 751.75,-82"/>
<polygon fill="#aed6f1" stroke="none" points="928,-82 928,-145 1115.5,-145 1115.5,-82 928,-82"/>
<polygon fill="none" stroke="#7b694f" points="928,-82 928,-145 1115.5,-145 1115.5,-82 928,-82"/>
<text xml:space="preserve" text-anchor="start" x="944.5" y="-124.75" font-family="Helvetica,sans-Serif" font-size="14.00">Keycloak, account admin,</text>
<text xml:space="preserve" text-anchor="start" x="969.62" y="-109.75" font-family="Helvetica,sans-Serif" font-size="14.00">TLS access path,</text>
<text xml:space="preserve" text-anchor="start" x="937" y="-94.75" font-family="Helvetica,sans-Serif" font-size="14.00">backup + restore verification</text>
<polygon fill="none" stroke="#7b694f" points="1115.5,-82 1115.5,-145 1291.75,-145 1291.75,-82 1115.5,-82"/>
<polygon fill="none" stroke="#7b694f" points="1,-34 1,-82 177.25,-82 177.25,-34 1,-34"/>
<text xml:space="preserve" text-anchor="start" x="71.12" y="-59.7" font-family="Helvetica,sans-Serif" font-weight="bold" font-size="14.00">FV5</text>
<text xml:space="preserve" text-anchor="start" x="10" y="-45.7" font-family="Helvetica,sans-Serif" font-size="14.00">Final integrated baseline</text>
<polygon fill="none" stroke="#7b694f" points="177.25,-34 177.25,-82 490.75,-82 490.75,-34 177.25,-34"/>
<polygon fill="none" stroke="#7b694f" points="490.75,-34 490.75,-82 751.75,-82 751.75,-34 490.75,-34"/>
<polygon fill="none" stroke="#7b694f" points="751.75,-34 751.75,-82 928,-82 928,-34 751.75,-34"/>
<polygon fill="none" stroke="#7b694f" points="928,-34 928,-82 1115.5,-82 1115.5,-34 928,-34"/>
<polygon fill="#d5f5e3" stroke="none" points="1115.5,-34 1115.5,-82 1291.75,-82 1291.75,-34 1115.5,-34"/>
<polygon fill="none" stroke="#7b694f" points="1115.5,-34 1115.5,-82 1291.75,-82 1291.75,-34 1115.5,-34"/>
<text xml:space="preserve" text-anchor="start" x="1128.62" y="-61.75" font-family="Helvetica,sans-Serif" font-size="14.00">Final sensors, enclosure,</text>
<text xml:space="preserve" text-anchor="start" x="1132" y="-46.75" font-family="Helvetica,sans-Serif" font-size="14.00">solar&#45;powered baseline,</text>
<polygon fill="none" stroke="#7b694f" points="1,-1 1,-34 177.25,-34 177.25,-1 1,-1"/>
<text xml:space="preserve" text-anchor="start" x="10" y="-12.7" font-family="Helvetica,sans-Serif" font-weight="bold" font-size="14.00">Projection</text>
<polygon fill="#e8f8f5" stroke="none" points="177.25,-1 177.25,-34 1291.75,-34 1291.75,-1 177.25,-1"/>
<polygon fill="none" stroke="#7b694f" points="177.25,-1 177.25,-34 1291.75,-34 1291.75,-1 177.25,-1"/>
<text xml:space="preserve" text-anchor="start" x="186.25" y="-12.7" font-family="Helvetica,sans-Serif" font-weight="bold" font-size="14.00">Delivery projection: 2026&#45;06&#45;21.</text>
<polygon fill="none" stroke="#7b694f" points="0,0 0,-477 1292.75,-477 1292.75,0 0,0"/>
</g>
</g>
</svg>
