<?xml version="1.0" encoding="UTF-8" standalone="no"?>
<!DOCTYPE svg PUBLIC "-//W3C//DTD SVG 1.1//EN"
 "http://www.w3.org/Graphics/SVG/1.1/DTD/svg11.dtd">
<!-- Generated by graphviz version 14.1.4 (20260321.0153)
 -->
<!-- Title: FV1SimulatedTelemetryBackbone Pages: 1 -->
<svg width="908pt" height="587pt"
 viewBox="0.00 0.00 908.00 587.00" xmlns="http://www.w3.org/2000/svg" xmlns:xlink="http://www.w3.org/1999/xlink">
<g id="graph0" class="graph" transform="scale(1 1) rotate(0) translate(21.6 565.35)">
<title>FV1SimulatedTelemetryBackbone</title>
<polygon fill="white" stroke="none" points="-21.6,21.6 -21.6,-565.35 886.63,-565.35 886.63,21.6 -21.6,21.6"/>
<text xml:space="preserve" text-anchor="middle" x="432.51" y="-522.65" font-family="Helvetica,sans-Serif" font-size="18.00">Functional Version 1 — Simulated Telemetry Backbone</text>
<g id="clust1" class="cluster">
<title>cluster_bench_source</title>
<path fill="#fff9d6" stroke="#7b694f" stroke-width="2" d="M206.89,-424C206.89,-424 338.39,-424 338.39,-424 344.39,-424 350.39,-430 350.39,-436 350.39,-436 350.39,-497 350.39,-497 350.39,-503 344.39,-509 338.39,-509 338.39,-509 206.89,-509 206.89,-509 200.89,-509 194.89,-503 194.89,-497 194.89,-497 194.89,-436 194.89,-436 194.89,-430 200.89,-424 206.89,-424"/>
<text xml:space="preserve" text-anchor="middle" x="272.64" y="-487.9" font-family="Helvetica,sans-Serif" font-size="18.00">Developer Laptop</text>
</g>
<g id="clust2" class="cluster">
<title>cluster_server_host</title>
<path fill="#fff9d6" stroke="#7b694f" stroke-width="2" d="M20,-8C20,-8 848.28,-8 848.28,-8 854.28,-8 860.28,-14 860.28,-20 860.28,-20 860.28,-404 860.28,-404 860.28,-410 854.28,-416 848.28,-416 848.28,-416 20,-416 20,-416 14,-416 8,-410 8,-404 8,-404 8,-20 8,-20 8,-14 14,-8 20,-8"/>
<text xml:space="preserve" text-anchor="middle" x="434.14" y="-394.9" font-family="Helvetica,sans-Serif" font-size="18.00">DigitalOcean Premium AMD Droplet</text>
<text xml:space="preserve" text-anchor="middle" x="434.14" y="-376.15" font-family="Helvetica,sans-Serif" font-size="18.00">(4 vCPU / 8 GiB RAM / 160 GiB SSD)</text>
</g>
<g id="clust3" class="cluster">
<title>cluster_traefik</title>
<path fill="#dce8f7" stroke="#4a4a97" stroke-width="2" d="M590.28,-16C590.28,-16 840.28,-16 840.28,-16 846.28,-16 852.28,-22 852.28,-28 852.28,-28 852.28,-89 852.28,-89 852.28,-95 846.28,-101 840.28,-101 840.28,-101 590.28,-101 590.28,-101 584.28,-101 578.28,-95 578.28,-89 578.28,-89 578.28,-28 578.28,-28 578.28,-22 584.28,-16 590.28,-16"/>
<text xml:space="preserve" text-anchor="middle" x="715.28" y="-79.9" font-family="Helvetica,sans-Serif" font-size="18.00">Traefik Reverse Proxy Container</text>
</g>
<g id="clust4" class="cluster">
<title>cluster_fastapi</title>
<path fill="#dce8f7" stroke="#4a4a97" stroke-width="2" d="M601.15,-196C601.15,-196 829.4,-196 829.4,-196 835.4,-196 841.4,-202 841.4,-208 841.4,-208 841.4,-263 841.4,-263 841.4,-269 835.4,-275 829.4,-275 829.4,-275 601.15,-275 601.15,-275 595.15,-275 589.15,-269 589.15,-263 589.15,-263 589.15,-208 589.15,-208 589.15,-202 595.15,-196 601.15,-196"/>
<text xml:space="preserve" text-anchor="middle" x="715.28" y="-253.9" font-family="Helvetica,sans-Serif" font-size="18.00">FastAPI Application Container</text>
</g>
<g id="clust5" class="cluster">
<title>cluster_influxdb</title>
<path fill="#dce8f7" stroke="#4a4a97" stroke-width="2" d="M607.9,-109C607.9,-109 822.65,-109 822.65,-109 828.65,-109 834.65,-115 834.65,-121 834.65,-121 834.65,-176 834.65,-176 834.65,-182 828.65,-188 822.65,-188 822.65,-188 607.9,-188 607.9,-188 601.9,-188 595.9,-182 595.9,-176 595.9,-176 595.9,-121 595.9,-121 595.9,-115 601.9,-109 607.9,-109"/>
<text xml:space="preserve" text-anchor="middle" x="715.28" y="-166.9" font-family="Helvetica,sans-Serif" font-size="18.00">InfluxDB OSS 2.7 Container</text>
</g>
<g id="clust6" class="cluster">
<title>cluster_grafana</title>
<path fill="#dce8f7" stroke="#4a4a97" stroke-width="2" d="M600.4,-283C600.4,-283 830.15,-283 830.15,-283 836.15,-283 842.15,-289 842.15,-295 842.15,-295 842.15,-350 842.15,-350 842.15,-356 836.15,-362 830.15,-362 830.15,-362 600.4,-362 600.4,-362 594.4,-362 588.4,-356 588.4,-350 588.4,-350 588.4,-295 588.4,-295 588.4,-289 594.4,-283 600.4,-283"/>
<text xml:space="preserve" text-anchor="middle" x="715.28" y="-340.9" font-family="Helvetica,sans-Serif" font-size="18.00">Grafana Dashboard Container</text>
</g>
<!-- lc_sim -->
<g id="node1" class="node">
<title>lc_sim</title>
<path fill="#87ceeb" stroke="#0066cc" stroke-width="2" d="M316.4,-473.76C316.4,-473.76 227.87,-473.76 227.87,-473.76 221.87,-473.76 215.87,-467.76 215.87,-461.76 215.87,-461.76 215.87,-444.24 215.87,-444.24 215.87,-438.24 221.87,-432.24 227.87,-432.24 227.87,-432.24 316.4,-432.24 316.4,-432.24 322.4,-432.24 328.4,-438.24 328.4,-444.24 328.4,-444.24 328.4,-461.76 328.4,-461.76 328.4,-467.76 322.4,-473.76 316.4,-473.76"/>
<text xml:space="preserve" text-anchor="middle" x="272.14" y="-454.7" font-family="Helvetica,sans-Serif" font-size="14.00">Node Telemetry</text>
<text xml:space="preserve" text-anchor="middle" x="272.14" y="-439.7" font-family="Helvetica,sans-Serif" font-size="14.00">Simulator</text>
</g>
<!-- lc_gateway -->
<g id="node2" class="node">
<title>lc_gateway</title>
<path fill="#87ceeb" stroke="#0066cc" stroke-width="2" d="M759.42,-65.76C759.42,-65.76 670.14,-65.76 670.14,-65.76 664.14,-65.76 658.14,-59.76 658.14,-53.76 658.14,-53.76 658.14,-36.24 658.14,-36.24 658.14,-30.24 664.14,-24.24 670.14,-24.24 670.14,-24.24 759.42,-24.24 759.42,-24.24 765.42,-24.24 771.42,-30.24 771.42,-36.24 771.42,-36.24 771.42,-53.76 771.42,-53.76 771.42,-59.76 765.42,-65.76 759.42,-65.76"/>
<text xml:space="preserve" text-anchor="middle" x="714.78" y="-46.7" font-family="Helvetica,sans-Serif" font-size="14.00">Reverse Proxy /</text>
<text xml:space="preserve" text-anchor="middle" x="714.78" y="-31.7" font-family="Helvetica,sans-Serif" font-size="14.00">TLS Gateway</text>
</g>
<!-- lc_sim&#45;&gt;lc_gateway -->
<g id="edge4" class="edge">
<title>lc_sim&#45;&gt;lc_gateway</title>
<path fill="none" stroke="#0066cc" stroke-width="2" d="M329.2,-453C420.51,-453 589.28,-453 589.28,-453 589.28,-453 589.28,-45 589.28,-45 589.28,-45 644.15,-45 644.15,-45"/>
<polygon fill="#0066cc" stroke="#0066cc" stroke-width="2" points="644.15,-48.5 654.15,-45 644.15,-41.5 644.15,-48.5"/>
<text xml:space="preserve" text-anchor="middle" x="535.28" y="-342.11" font-family="Helvetica,sans-Serif" font-size="10.00">HTTPS telemetry upload</text>
<text xml:space="preserve" text-anchor="middle" x="535.28" y="-330.86" font-family="Helvetica,sans-Serif" font-size="10.00">(replay + fault cases)</text>
</g>
<!-- lc_ingest -->
<g id="node3" class="node">
<title>lc_ingest</title>
<path fill="#87ceeb" stroke="#0066cc" stroke-width="2" d="M756.79,-240C756.79,-240 672.76,-240 672.76,-240 666.76,-240 660.76,-234 660.76,-228 660.76,-228 660.76,-216 660.76,-216 660.76,-210 666.76,-204 672.76,-204 672.76,-204 756.79,-204 756.79,-204 762.79,-204 768.79,-210 768.79,-216 768.79,-216 768.79,-228 768.79,-228 768.79,-234 762.79,-240 756.79,-240"/>
<text xml:space="preserve" text-anchor="middle" x="714.78" y="-216.2" font-family="Helvetica,sans-Serif" font-size="14.00">Node Ingestion</text>
</g>
<!-- lc_gateway&#45;&gt;lc_ingest -->
<!-- lc_gateway&#45;&gt;lc_ingest -->
<g id="edge5" class="edge">
<title>lc_gateway&#45;&gt;lc_ingest</title>
<path fill="none" stroke="#0066cc" stroke-width="2" d="M772.22,-38.08C789.65,-38.08 804.28,-38.08 804.28,-38.08 804.28,-38.08 804.28,-228 804.28,-228 804.28,-228 782.7,-228 782.7,-228"/>
<polygon fill="#0066cc" stroke="#0066cc" stroke-width="2" points="782.7,-224.5 772.7,-228 782.7,-231.5 782.7,-224.5"/>
<text xml:space="preserve" text-anchor="middle" x="834.65" y="-118.3" font-family="Helvetica,sans-Serif" font-size="10.00">Routed ingest</text>
<text xml:space="preserve" text-anchor="middle" x="834.65" y="-107.05" font-family="Helvetica,sans-Serif" font-size="10.00">request</text>
</g>
<!-- lc_storage -->
<g id="node4" class="node">
<title>lc_storage</title>
<path fill="#87ceeb" stroke="#0066cc" stroke-width="2" d="M768.04,-153C768.04,-153 661.51,-153 661.51,-153 655.51,-153 649.51,-147 649.51,-141 649.51,-141 649.51,-129 649.51,-129 649.51,-123 655.51,-117 661.51,-117 661.51,-117 768.04,-117 768.04,-117 774.04,-117 780.04,-123 780.04,-129 780.04,-129 780.04,-141 780.04,-141 780.04,-147 774.04,-153 768.04,-153"/>
<text xml:space="preserve" text-anchor="middle" x="714.78" y="-129.2" font-family="Helvetica,sans-Serif" font-size="14.00">Long&#45;term Storage</text>
</g>
<!-- lc_ingest&#45;&gt;lc_storage -->
<!-- lc_ingest&#45;&gt;lc_storage -->
<g id="edge6" class="edge">
<title>lc_ingest&#45;&gt;lc_storage</title>
<path fill="none" stroke="#0066cc" stroke-width="2" d="M714.28,-203.12C714.28,-203.12 714.28,-166.87 714.28,-166.87"/>
<polygon fill="#0066cc" stroke="#0066cc" stroke-width="2" points="717.78,-166.87 714.28,-156.87 710.78,-166.87 717.78,-166.87"/>
<text xml:space="preserve" text-anchor="middle" x="680.9" y="-186.75" font-family="Helvetica,sans-Serif" font-size="10.00">Validated batch</text>
</g>
<!-- lc_dashboard -->
<g id="node5" class="node">
<title>lc_dashboard</title>
<path fill="#87ceeb" stroke="#0066cc" stroke-width="2" d="M744.42,-327C744.42,-327 685.14,-327 685.14,-327 679.14,-327 673.14,-321 673.14,-315 673.14,-315 673.14,-303 673.14,-303 673.14,-297 679.14,-291 685.14,-291 685.14,-291 744.42,-291 744.42,-291 750.42,-291 756.42,-297 756.42,-303 756.42,-303 756.42,-315 756.42,-315 756.42,-321 750.42,-327 744.42,-327"/>
<text xml:space="preserve" text-anchor="middle" x="714.78" y="-303.2" font-family="Helvetica,sans-Serif" font-size="14.00">Dashboard</text>
</g>
<!-- lc_storage&#45;&gt;lc_dashboard -->
<!-- lc_dashboard&#45;&gt;lc_storage -->
<g id="edge7" class="edge">
<title>lc_dashboard&#45;&gt;lc_storage</title>
<path fill="none" stroke="#0066cc" stroke-width="2" d="M757.16,-315C767.81,-315 776.28,-315 776.28,-315 776.28,-315 776.28,-166.95 776.28,-166.95"/>
<polygon fill="#0066cc" stroke="#0066cc" stroke-width="2" points="779.78,-166.95 776.28,-156.95 772.78,-166.95 779.78,-166.95"/>
<text xml:space="preserve" text-anchor="middle" x="814.9" y="-241.04" font-family="Helvetica,sans-Serif" font-size="10.00">Stored data query</text>
</g>
<!-- version_c -->
<g id="node6" class="node">
<title>version_c</title>
<path fill="#f9e79f" stroke="#b7950b" stroke-width="2" d="M516.28,-161.26C516.28,-161.26 28,-161.26 28,-161.26 22,-161.26 16,-155.26 16,-149.26 16,-149.26 16,-116.74 16,-116.74 16,-110.74 22,-104.74 28,-104.74 28,-104.74 516.28,-104.74 516.28,-104.74 522.28,-104.74 528.28,-110.74 528.28,-116.74 528.28,-116.74 528.28,-149.26 528.28,-149.26 528.28,-155.26 522.28,-161.26 516.28,-161.26"/>
<text xml:space="preserve" text-anchor="middle" x="272.14" y="-142.2" font-family="Helvetica,sans-Serif" font-size="14.00">{c}</text>
<text xml:space="preserve" text-anchor="middle" x="272.14" y="-127.2" font-family="Helvetica,sans-Serif" font-size="14.00">This version substitutes the final Field Node and sensors with a software simulator,</text>
<text xml:space="preserve" text-anchor="middle" x="272.14" y="-112.2" font-family="Helvetica,sans-Serif" font-size="14.00">and exits when accepted data is stored and visible in the dashboard</text>
</g>
<!-- version_c&#45;&gt;lc_sim -->
<g id="edge8" class="edge">
<title>version_c&#45;&gt;lc_sim</title>
<path fill="none" stroke="#b7950b" stroke-width="2" stroke-dasharray="1,5" d="M272.28,-162.25C272.28,-225.81 272.28,-375.35 272.28,-431.33"/>
</g>
<!-- version_c&#45;&gt;lc_ingest -->
<g id="edge9" class="edge">
<title>version_c&#45;&gt;lc_ingest</title>
<path fill="none" stroke="#b7950b" stroke-width="2" stroke-dasharray="1,5" d="M529.15,-157.13C614.08,-157.13 687.28,-157.13 687.28,-157.13 687.28,-157.13 687.28,-184.08 687.28,-203.24"/>
</g>
<!-- version_c&#45;&gt;lc_dashboard -->
<g id="edge10" class="edge">
<title>version_c&#45;&gt;lc_dashboard</title>
<path fill="none" stroke="#b7950b" stroke-width="2" stroke-dasharray="1,5" d="M428.28,-162.06C428.28,-212.05 428.28,-309 428.28,-309 428.28,-309 592.39,-309 672.2,-309"/>
</g>
</g>
</svg>
