<?xml version="1.0" encoding="UTF-8" standalone="no"?>
<!DOCTYPE svg PUBLIC "-//W3C//DTD SVG 1.1//EN"
 "http://www.w3.org/Graphics/SVG/1.1/DTD/svg11.dtd">
<!-- Generated by graphviz version 14.1.4 (20260321.0153)
 -->
<!-- Title: FV2BenchFieldNode Pages: 1 -->
<svg width="2480pt" height="1326pt"
 viewBox="0.00 0.00 2480.00 1326.00" xmlns="http://www.w3.org/2000/svg" xmlns:xlink="http://www.w3.org/1999/xlink">
<g id="graph0" class="graph" transform="scale(1 1) rotate(0) translate(21.6 1304.35)">
<title>FV2BenchFieldNode</title>
<polygon fill="white" stroke="none" points="-21.6,21.6 -21.6,-1304.35 2458.6,-1304.35 2458.6,21.6 -21.6,21.6"/>
<text xml:space="preserve" text-anchor="middle" x="1218.5" y="-1261.65" font-family="Helvetica,sans-Serif" font-size="18.00">Functional Version 2 — Bench Field Node with Real Controller and Dummy Sensors</text>
<g id="clust1" class="cluster">
<title>cluster_field_node</title>
<path fill="#fff9d6" stroke="#7b694f" stroke-width="2" d="M22.35,-187C22.35,-187 1680.14,-187 1680.14,-187 1686.14,-187 1692.14,-193 1692.14,-199 1692.14,-199 1692.14,-1236 1692.14,-1236 1692.14,-1242 1686.14,-1248 1680.14,-1248 1680.14,-1248 22.35,-1248 22.35,-1248 16.35,-1248 10.35,-1242 10.35,-1236 10.35,-1236 10.35,-199 10.35,-199 10.35,-193 16.35,-187 22.35,-187"/>
<text xml:space="preserve" text-anchor="middle" x="851.25" y="-1226.9" font-family="Helvetica,sans-Serif" font-size="18.00">Bench Field Node</text>
</g>
<g id="clust2" class="cluster">
<title>cluster_substituted_sources</title>
<path fill="white" stroke="#7b694f" stroke-width="2" d="M176.1,-785C176.1,-785 1409.75,-785 1409.75,-785 1415.75,-785 1421.75,-791 1421.75,-797 1421.75,-797 1421.75,-858 1421.75,-858 1421.75,-864 1415.75,-870 1409.75,-870 1409.75,-870 176.1,-870 176.1,-870 170.1,-870 164.1,-864 164.1,-858 164.1,-858 164.1,-797 164.1,-797 164.1,-791 170.1,-785 176.1,-785"/>
<text xml:space="preserve" text-anchor="middle" x="792.93" y="-848.9" font-family="Helvetica,sans-Serif" font-size="18.00">Bench Substitutes</text>
</g>
<g id="clust3" class="cluster">
<title>cluster_controller_pcb</title>
<path fill="#fffcb7" stroke="#7b694f" stroke-width="2" d="M119.99,-288C119.99,-288 1672.14,-288 1672.14,-288 1678.14,-288 1684.14,-294 1684.14,-300 1684.14,-300 1684.14,-765 1684.14,-765 1684.14,-771 1678.14,-777 1672.14,-777 1672.14,-777 119.99,-777 119.99,-777 113.99,-777 107.99,-771 107.99,-765 107.99,-765 107.99,-300 107.99,-300 107.99,-294 113.99,-288 119.99,-288"/>
<text xml:space="preserve" text-anchor="middle" x="896.07" y="-755.9" font-family="Helvetica,sans-Serif" font-size="18.00">Controller PCB</text>
</g>
<g id="clust4" class="cluster">
<title>cluster_power</title>
<path fill="white" stroke="#7b694f" stroke-width="2" d="M165.6,-389C165.6,-389 1439.38,-389 1439.38,-389 1445.38,-389 1451.38,-395 1451.38,-401 1451.38,-401 1451.38,-538 1451.38,-538 1451.38,-544 1445.38,-550 1439.38,-550 1439.38,-550 165.6,-550 165.6,-550 159.6,-550 153.6,-544 153.6,-538 153.6,-538 153.6,-401 153.6,-401 153.6,-395 159.6,-389 165.6,-389"/>
<text xml:space="preserve" text-anchor="middle" x="802.49" y="-528.9" font-family="Helvetica,sans-Serif" font-size="18.00">Power Subsystem</text>
</g>
<g id="clust5" class="cluster">
<title>cluster_compute</title>
<path fill="#fffcb7" stroke="#7b694f" stroke-width="2" d="M127.99,-558C127.99,-558 1175.6,-558 1175.6,-558 1181.6,-558 1187.6,-564 1187.6,-570 1187.6,-570 1187.6,-730 1187.6,-730 1187.6,-736 1181.6,-742 1175.6,-742 1175.6,-742 127.99,-742 127.99,-742 121.99,-742 115.99,-736 115.99,-730 115.99,-730 115.99,-570 115.99,-570 115.99,-564 121.99,-558 127.99,-558"/>
<text xml:space="preserve" text-anchor="middle" x="651.79" y="-720.9" font-family="Helvetica,sans-Serif" font-size="18.00">Compute</text>
</g>
<g id="clust6" class="cluster">
<title>cluster_expansion</title>
<path fill="#fffcb7" stroke="#7b694f" stroke-width="2" d="M135.99,-566C135.99,-566 1167.6,-566 1167.6,-566 1173.6,-566 1179.6,-572 1179.6,-578 1179.6,-578 1179.6,-695 1179.6,-695 1179.6,-701 1173.6,-707 1167.6,-707 1167.6,-707 135.99,-707 135.99,-707 129.99,-707 123.99,-701 123.99,-695 123.99,-695 123.99,-578 123.99,-578 123.99,-572 129.99,-566 135.99,-566"/>
<text xml:space="preserve" text-anchor="middle" x="651.79" y="-685.9" font-family="Helvetica,sans-Serif" font-size="18.00">Seeed Studio Expansion Board Base for XIAO</text>
<text xml:space="preserve" text-anchor="middle" x="651.79" y="-667.15" font-family="Helvetica,sans-Serif" font-size="18.00">(includes RTC + MicroSD slot)</text>
</g>
<g id="clust7" class="cluster">
<title>cluster_xiao</title>
<path fill="#fffcb7" stroke="#7b694f" stroke-width="2" d="M143.99,-574C143.99,-574 324.99,-574 324.99,-574 330.99,-574 336.99,-580 336.99,-586 336.99,-586 336.99,-641 336.99,-641 336.99,-647 330.99,-653 324.99,-653 324.99,-653 143.99,-653 143.99,-653 137.99,-653 131.99,-647 131.99,-641 131.99,-641 131.99,-586 131.99,-586 131.99,-580 137.99,-574 143.99,-574"/>
<text xml:space="preserve" text-anchor="middle" x="234.49" y="-631.9" font-family="Helvetica,sans-Serif" font-size="18.00">Seeed XIAO ESP32&#45;C3</text>
</g>
<g id="clust8" class="cluster">
<title>cluster_sensor_if</title>
<path fill="white" stroke="#7b694f" stroke-width="2" d="M1319.47,-648C1319.47,-648 1664.14,-648 1664.14,-648 1670.14,-648 1676.14,-654 1676.14,-660 1676.14,-660 1676.14,-721 1676.14,-721 1676.14,-727 1670.14,-733 1664.14,-733 1664.14,-733 1319.47,-733 1319.47,-733 1313.47,-733 1307.47,-727 1307.47,-721 1307.47,-721 1307.47,-660 1307.47,-660 1307.47,-654 1313.47,-648 1319.47,-648"/>
<text xml:space="preserve" text-anchor="middle" x="1491.8" y="-711.9" font-family="Helvetica,sans-Serif" font-size="18.00">Sensor Interfaces</text>
</g>
<g id="clust9" class="cluster">
<title>cluster_wan_if</title>
<path fill="white" stroke="#7b694f" stroke-width="2" d="M1283.47,-296C1283.47,-296 1445,-296 1445,-296 1451,-296 1457,-302 1457,-308 1457,-308 1457,-369 1457,-369 1457,-375 1451,-381 1445,-381 1445,-381 1283.47,-381 1283.47,-381 1277.47,-381 1271.47,-375 1271.47,-369 1271.47,-369 1271.47,-308 1271.47,-308 1271.47,-302 1277.47,-296 1283.47,-296"/>
<text xml:space="preserve" text-anchor="middle" x="1364.23" y="-359.9" font-family="Helvetica,sans-Serif" font-size="18.00">WAN Interface</text>
</g>
<g id="clust10" class="cluster">
<title>cluster_antenna</title>
<path fill="white" stroke="#7b694f" stroke-width="2" d="M1027.44,-195C1027.44,-195 1214.47,-195 1214.47,-195 1220.47,-195 1226.47,-201 1226.47,-207 1226.47,-207 1226.47,-268 1226.47,-268 1226.47,-274 1220.47,-280 1214.47,-280 1214.47,-280 1027.44,-280 1027.44,-280 1021.44,-280 1015.44,-274 1015.44,-268 1015.44,-268 1015.44,-207 1015.44,-207 1015.44,-201 1021.44,-195 1027.44,-195"/>
<text xml:space="preserve" text-anchor="middle" x="1120.95" y="-258.9" font-family="Helvetica,sans-Serif" font-size="18.00">Antenna</text>
</g>
<g id="clust11" class="cluster">
<title>cluster_server_host</title>
<path fill="#fff9d6" stroke="#7b694f" stroke-width="2" d="M1498,-8C1498,-8 2425,-8 2425,-8 2431,-8 2437,-14 2437,-20 2437,-20 2437,-167 2437,-167 2437,-173 2431,-179 2425,-179 2425,-179 1498,-179 1498,-179 1492,-179 1486,-173 1486,-167 1486,-167 1486,-20 1486,-20 1486,-14 1492,-8 1498,-8"/>
<text xml:space="preserve" text-anchor="middle" x="1961.5" y="-157.9" font-family="Helvetica,sans-Serif" font-size="18.00">Server Ingress Subset</text>
</g>
<g id="clust12" class="cluster">
<title>cluster_ingress</title>
<path fill="white" stroke="#d0d0d0" stroke-width="1.5" d="M1506,-16C1506,-16 2417,-16 2417,-16 2423,-16 2429,-22 2429,-28 2429,-28 2429,-132 2429,-132 2429,-138 2423,-144 2417,-144 2417,-144 1506,-144 1506,-144 1500,-144 1494,-138 1494,-132 1494,-132 1494,-28 1494,-28 1494,-22 1500,-16 1506,-16"/>
<text xml:space="preserve" text-anchor="middle" x="1961.5" y="-122.9" font-family="Helvetica,sans-Serif" font-size="18.00">Ingress &amp; Storage</text>
</g>
<g id="clust13" class="cluster">
<title>cluster_traefik</title>
<path fill="#dce8f7" stroke="#4a4a97" stroke-width="2" d="M1514,-24C1514,-24 1764,-24 1764,-24 1770,-24 1776,-30 1776,-36 1776,-36 1776,-97 1776,-97 1776,-103 1770,-109 1764,-109 1764,-109 1514,-109 1514,-109 1508,-109 1502,-103 1502,-97 1502,-97 1502,-36 1502,-36 1502,-30 1508,-24 1514,-24"/>
<text xml:space="preserve" text-anchor="middle" x="1639" y="-87.9" font-family="Helvetica,sans-Serif" font-size="18.00">Traefik Reverse Proxy Container</text>
</g>
<g id="clust14" class="cluster">
<title>cluster_fastapi</title>
<path fill="#dce8f7" stroke="#4a4a97" stroke-width="2" d="M1865,-27C1865,-27 2093.25,-27 2093.25,-27 2099.25,-27 2105.25,-33 2105.25,-39 2105.25,-39 2105.25,-94 2105.25,-94 2105.25,-100 2099.25,-106 2093.25,-106 2093.25,-106 1865,-106 1865,-106 1859,-106 1853,-100 1853,-94 1853,-94 1853,-39 1853,-39 1853,-33 1859,-27 1865,-27"/>
<text xml:space="preserve" text-anchor="middle" x="1979.12" y="-84.9" font-family="Helvetica,sans-Serif" font-size="18.00">FastAPI Application Container</text>
</g>
<g id="clust15" class="cluster">
<title>cluster_influxdb</title>
<path fill="#dce8f7" stroke="#4a4a97" stroke-width="2" d="M2194.25,-27C2194.25,-27 2409,-27 2409,-27 2415,-27 2421,-33 2421,-39 2421,-39 2421,-94 2421,-94 2421,-100 2415,-106 2409,-106 2409,-106 2194.25,-106 2194.25,-106 2188.25,-106 2182.25,-100 2182.25,-94 2182.25,-94 2182.25,-39 2182.25,-39 2182.25,-33 2188.25,-27 2194.25,-27"/>
<text xml:space="preserve" text-anchor="middle" x="2301.62" y="-84.9" font-family="Helvetica,sans-Serif" font-size="18.00">InfluxDB OSS 2.7 Container</text>
</g>
<!-- bench_supply -->
<g id="node1" class="node">
<title>bench_supply</title>
<path fill="#fffcb7" stroke="#7b694f" stroke-width="2" d="M283.88,-829C283.88,-829 184.1,-829 184.1,-829 178.1,-829 172.1,-823 172.1,-817 172.1,-817 172.1,-805 172.1,-805 172.1,-799 178.1,-793 184.1,-793 184.1,-793 283.88,-793 283.88,-793 289.88,-793 295.88,-799 295.88,-805 295.88,-805 295.88,-817 295.88,-817 295.88,-823 289.88,-829 283.88,-829"/>
<text xml:space="preserve" text-anchor="middle" x="233.99" y="-805.2" font-family="Helvetica,sans-Serif" font-size="14.00">Bench DC Supply</text>
</g>
<!-- solar_manager -->
<g id="node4" class="node">
<title>solar_manager</title>
<path fill="#fffcb7" stroke="#7b694f" stroke-width="2" d="M741.66,-514.76C741.66,-514.76 522.63,-514.76 522.63,-514.76 516.63,-514.76 510.63,-508.76 510.63,-502.76 510.63,-502.76 510.63,-485.24 510.63,-485.24 510.63,-479.24 516.63,-473.24 522.63,-473.24 522.63,-473.24 741.66,-473.24 741.66,-473.24 747.66,-473.24 753.66,-479.24 753.66,-485.24 753.66,-485.24 753.66,-502.76 753.66,-502.76 753.66,-508.76 747.66,-514.76 741.66,-514.76"/>
<text xml:space="preserve" text-anchor="middle" x="632.14" y="-495.7" font-family="Helvetica,sans-Serif" font-size="14.00">Waveshare Solar Power Manager (D)</text>
<text xml:space="preserve" text-anchor="middle" x="632.14" y="-480.7" font-family="Helvetica,sans-Serif" font-size="14.00">MPPT Charger + 5 V Output</text>
</g>
<!-- bench_supply&#45;&gt;solar_manager -->
<g id="edge8" class="edge">
<title>bench_supply&#45;&gt;solar_manager</title>
<path fill="none" stroke="#ef2929" stroke-width="2" d="M296.62,-805.16C408.7,-805.16 632,-805.16 632,-805.16 632,-805.16 632,-528.41 632,-528.41"/>
<polygon fill="#ef2929" stroke="#ef2929" stroke-width="2" points="635.5,-528.41 632,-518.41 628.5,-528.41 635.5,-528.41"/>
<text xml:space="preserve" text-anchor="middle" x="583.18" y="-795.66" font-family="Helvetica,sans-Serif" font-size="10.00">DC input</text>
</g>
<!-- modbus_sim -->
<g id="node2" class="node">
<title>modbus_sim</title>
<path fill="#fffcb7" stroke="#7b694f" stroke-width="2" d="M1162.6,-834.76C1162.6,-834.76 1079.31,-834.76 1079.31,-834.76 1073.31,-834.76 1067.31,-828.76 1067.31,-822.76 1067.31,-822.76 1067.31,-805.24 1067.31,-805.24 1067.31,-799.24 1073.31,-793.24 1079.31,-793.24 1079.31,-793.24 1162.6,-793.24 1162.6,-793.24 1168.6,-793.24 1174.6,-799.24 1174.6,-805.24 1174.6,-805.24 1174.6,-822.76 1174.6,-822.76 1174.6,-828.76 1168.6,-834.76 1162.6,-834.76"/>
<text xml:space="preserve" text-anchor="middle" x="1120.95" y="-815.7" font-family="Helvetica,sans-Serif" font-size="14.00">Modbus RTU</text>
<text xml:space="preserve" text-anchor="middle" x="1120.95" y="-800.7" font-family="Helvetica,sans-Serif" font-size="14.00">Flow Simulator</text>
</g>
<!-- level_emulator -->
<g id="node3" class="node">
<title>level_emulator</title>
<path fill="#fffcb7" stroke="#7b694f" stroke-width="2" d="M1401.75,-834.76C1401.75,-834.76 1326.72,-834.76 1326.72,-834.76 1320.72,-834.76 1314.72,-828.76 1314.72,-822.76 1314.72,-822.76 1314.72,-805.24 1314.72,-805.24 1314.72,-799.24 1320.72,-793.24 1326.72,-793.24 1326.72,-793.24 1401.75,-793.24 1401.75,-793.24 1407.75,-793.24 1413.75,-799.24 1413.75,-805.24 1413.75,-805.24 1413.75,-822.76 1413.75,-822.76 1413.75,-828.76 1407.75,-834.76 1401.75,-834.76"/>
<text xml:space="preserve" text-anchor="middle" x="1364.23" y="-815.7" font-family="Helvetica,sans-Serif" font-size="14.00">Analog Depth</text>
<text xml:space="preserve" text-anchor="middle" x="1364.23" y="-800.7" font-family="Helvetica,sans-Serif" font-size="14.00">Emulator</text>
</g>
<!-- modbus_sim&#45;&gt;level_emulator -->
<!-- rs485 -->
<g id="node10" class="node">
<title>rs485</title>
<path fill="#fffcb7" stroke="#7b694f" stroke-width="2" d="M1401,-697.76C1401,-697.76 1327.47,-697.76 1327.47,-697.76 1321.47,-697.76 1315.47,-691.76 1315.47,-685.76 1315.47,-685.76 1315.47,-668.24 1315.47,-668.24 1315.47,-662.24 1321.47,-656.24 1327.47,-656.24 1327.47,-656.24 1401,-656.24 1401,-656.24 1407,-656.24 1413,-662.24 1413,-668.24 1413,-668.24 1413,-685.76 1413,-685.76 1413,-691.76 1407,-697.76 1401,-697.76"/>
<text xml:space="preserve" text-anchor="middle" x="1364.23" y="-678.7" font-family="Helvetica,sans-Serif" font-size="14.00">Seeed Grove</text>
<text xml:space="preserve" text-anchor="middle" x="1364.23" y="-663.7" font-family="Helvetica,sans-Serif" font-size="14.00">RS485</text>
</g>
<!-- modbus_sim&#45;&gt;rs485 -->
<g id="edge18" class="edge">
<title>modbus_sim&#45;&gt;rs485</title>
<path fill="none" stroke="#ef2929" stroke-width="2" d="M1121,-792.29C1121,-753.66 1121,-677 1121,-677 1121,-677 1301.69,-677 1301.69,-677"/>
<polygon fill="#ef2929" stroke="#ef2929" stroke-width="2" points="1301.69,-680.5 1311.69,-677 1301.69,-673.5 1301.69,-680.5"/>
<text xml:space="preserve" text-anchor="middle" x="1112.08" y="-667.5" font-family="Helvetica,sans-Serif" font-size="10.00">RS485 A/B + GND</text>
</g>
<!-- level_divider -->
<g id="node11" class="node">
<title>level_divider</title>
<path fill="#fffcb7" stroke="#7b694f" stroke-width="2" d="M1656.14,-697.76C1656.14,-697.76 1620.86,-697.76 1620.86,-697.76 1614.86,-697.76 1608.86,-691.76 1608.86,-685.76 1608.86,-685.76 1608.86,-668.24 1608.86,-668.24 1608.86,-662.24 1614.86,-656.24 1620.86,-656.24 1620.86,-656.24 1656.14,-656.24 1656.14,-656.24 1662.14,-656.24 1668.14,-662.24 1668.14,-668.24 1668.14,-668.24 1668.14,-685.76 1668.14,-685.76 1668.14,-691.76 1662.14,-697.76 1656.14,-697.76"/>
<text xml:space="preserve" text-anchor="middle" x="1638.5" y="-678.7" font-family="Helvetica,sans-Serif" font-size="14.00">Analog</text>
<text xml:space="preserve" text-anchor="middle" x="1638.5" y="-663.7" font-family="Helvetica,sans-Serif" font-size="14.00">Divider</text>
</g>
<!-- level_emulator&#45;&gt;level_divider -->
<g id="edge19" class="edge">
<title>level_emulator&#45;&gt;level_divider</title>
<path fill="none" stroke="#ef2929" stroke-width="2" d="M1414.45,-814C1493.48,-814 1638,-814 1638,-814 1638,-814 1638,-711.74 1638,-711.74"/>
<polygon fill="#ef2929" stroke="#ef2929" stroke-width="2" points="1641.5,-711.74 1638,-701.74 1634.5,-711.74 1641.5,-711.74"/>
<text xml:space="preserve" text-anchor="middle" x="1532.73" y="-804.5" font-family="Helvetica,sans-Serif" font-size="10.00">VOUT + 5 V + GND</text>
</g>
<!-- power_entry -->
<g id="node7" class="node">
<title>power_entry</title>
<path fill="#fffcb7" stroke="#7b694f" stroke-width="2" d="M950.44,-514.76C950.44,-514.76 826.66,-514.76 826.66,-514.76 820.66,-514.76 814.66,-508.76 814.66,-502.76 814.66,-502.76 814.66,-485.24 814.66,-485.24 814.66,-479.24 820.66,-473.24 826.66,-473.24 826.66,-473.24 950.44,-473.24 950.44,-473.24 956.44,-473.24 962.44,-479.24 962.44,-485.24 962.44,-485.24 962.44,-502.76 962.44,-502.76 962.44,-508.76 956.44,-514.76 950.44,-514.76"/>
<text xml:space="preserve" text-anchor="middle" x="888.55" y="-495.7" font-family="Helvetica,sans-Serif" font-size="14.00">Molex MicroFit 43045</text>
<text xml:space="preserve" text-anchor="middle" x="888.55" y="-480.7" font-family="Helvetica,sans-Serif" font-size="14.00">4&#45;pin Power Header</text>
</g>
<!-- solar_manager&#45;&gt;power_entry -->
<!-- solar_manager&#45;&gt;power_entry -->
<g id="edge11" class="edge">
<title>solar_manager&#45;&gt;power_entry</title>
<path fill="none" stroke="#ef2929" stroke-width="2" d="M754.34,-500.92C754.34,-500.92 800.64,-500.92 800.64,-500.92"/>
<polygon fill="#ef2929" stroke="#ef2929" stroke-width="2" points="800.64,-504.42 810.64,-500.92 800.64,-497.42 800.64,-504.42"/>
<text xml:space="preserve" text-anchor="middle" x="802.24" y="-491.42" font-family="Helvetica,sans-Serif" font-size="10.00">5 V + GND</text>
</g>
<!-- battery_holder -->
<g id="node5" class="node">
<title>battery_holder</title>
<path fill="#fffcb7" stroke="#7b694f" stroke-width="2" d="M294.38,-438.76C294.38,-438.76 173.6,-438.76 173.6,-438.76 167.6,-438.76 161.6,-432.76 161.6,-426.76 161.6,-426.76 161.6,-409.24 161.6,-409.24 161.6,-403.24 167.6,-397.24 173.6,-397.24 173.6,-397.24 294.38,-397.24 294.38,-397.24 300.38,-397.24 306.38,-403.24 306.38,-409.24 306.38,-409.24 306.38,-426.76 306.38,-426.76 306.38,-432.76 300.38,-438.76 294.38,-438.76"/>
<text xml:space="preserve" text-anchor="middle" x="233.99" y="-419.7" font-family="Helvetica,sans-Serif" font-size="14.00">18650 Battery Holder</text>
<text xml:space="preserve" text-anchor="middle" x="233.99" y="-404.7" font-family="Helvetica,sans-Serif" font-size="14.00">+ 3P1S Li&#45;ion Pack</text>
</g>
<!-- battery_holder&#45;&gt;solar_manager -->
<g id="edge9" class="edge">
<title>battery_holder&#45;&gt;solar_manager</title>
<path fill="none" stroke="#ef2929" stroke-width="2" d="M301,-439.58C301,-462.04 301,-494 301,-494 301,-494 496.75,-494 496.75,-494"/>
<polygon fill="#ef2929" stroke="#ef2929" stroke-width="2" points="496.75,-497.5 506.75,-494 496.75,-490.5 496.75,-497.5"/>
<text xml:space="preserve" text-anchor="middle" x="348.04" y="-484.5" font-family="Helvetica,sans-Serif" font-size="10.00">2&#45;wire JST</text>
</g>
<!-- ina219 -->
<g id="node6" class="node">
<title>ina219</title>
<path fill="#fffcb7" stroke="#7b694f" stroke-width="2" d="M1431.38,-443C1431.38,-443 1297.09,-443 1297.09,-443 1291.09,-443 1285.09,-437 1285.09,-431 1285.09,-431 1285.09,-419 1285.09,-419 1285.09,-413 1291.09,-407 1297.09,-407 1297.09,-407 1431.38,-407 1431.38,-407 1437.38,-407 1443.38,-413 1443.38,-419 1443.38,-419 1443.38,-431 1443.38,-431 1443.38,-437 1437.38,-443 1431.38,-443"/>
<text xml:space="preserve" text-anchor="middle" x="1364.23" y="-419.2" font-family="Helvetica,sans-Serif" font-size="14.00">INA219 Battery Monitor</text>
</g>
<!-- battery_holder&#45;&gt;ina219 -->
<!-- battery_holder&#45;&gt;ina219 -->
<g id="edge10" class="edge">
<title>battery_holder&#45;&gt;ina219</title>
<path fill="none" stroke="#ef2929" stroke-width="2" d="M307.28,-414.94C307.28,-414.94 1271.36,-414.94 1271.36,-414.94"/>
<polygon fill="#ef2929" stroke="#ef2929" stroke-width="2" points="1271.36,-418.44 1281.36,-414.94 1271.36,-411.44 1271.36,-418.44"/>
<text xml:space="preserve" text-anchor="middle" x="760.07" y="-405.44" font-family="Helvetica,sans-Serif" font-size="10.00">BAT+ / BAT−</text>
</g>
<!-- ina219&#45;&gt;solar_manager -->
<!-- xiao -->
<g id="node9" class="node">
<title>xiao</title>
<path fill="#fffcb7" stroke="#7b694f" stroke-width="2" d="M1159.6,-610C1159.6,-610 1082.31,-610 1082.31,-610 1076.31,-610 1070.31,-604 1070.31,-598 1070.31,-598 1070.31,-586 1070.31,-586 1070.31,-580 1076.31,-574 1082.31,-574 1082.31,-574 1159.6,-574 1159.6,-574 1165.6,-574 1171.6,-580 1171.6,-586 1171.6,-586 1171.6,-598 1171.6,-598 1171.6,-604 1165.6,-610 1159.6,-610"/>
<text xml:space="preserve" text-anchor="middle" x="1120.95" y="-593.75" font-family="Helvetica,sans-Serif" font-size="10.00">GPIO / I²C / UART</text>
<text xml:space="preserve" text-anchor="middle" x="1120.95" y="-582.5" font-family="Helvetica,sans-Serif" font-size="10.00">Pin Header</text>
</g>
<!-- power_entry&#45;&gt;xiao -->
<g id="edge12" class="edge">
<title>power_entry&#45;&gt;xiao</title>
<path fill="none" stroke="#ef2929" stroke-width="2" d="M963.3,-494C1025.53,-494 1104,-494 1104,-494 1104,-494 1104,-560.08 1104,-560.08"/>
<polygon fill="#ef2929" stroke="#ef2929" stroke-width="2" points="1100.5,-560.08 1104,-570.08 1107.5,-560.08 1100.5,-560.08"/>
<text xml:space="preserve" text-anchor="middle" x="1041.94" y="-484.5" font-family="Helvetica,sans-Serif" font-size="10.00">5 V + GND</text>
</g>
<!-- lte -->
<g id="node12" class="node">
<title>lte</title>
<path fill="#fffcb7" stroke="#7b694f" stroke-width="2" d="M1437,-345.76C1437,-345.76 1291.47,-345.76 1291.47,-345.76 1285.47,-345.76 1279.47,-339.76 1279.47,-333.76 1279.47,-333.76 1279.47,-316.24 1279.47,-316.24 1279.47,-310.24 1285.47,-304.24 1291.47,-304.24 1291.47,-304.24 1437,-304.24 1437,-304.24 1443,-304.24 1449,-310.24 1449,-316.24 1449,-316.24 1449,-333.76 1449,-333.76 1449,-339.76 1443,-345.76 1437,-345.76"/>
<text xml:space="preserve" text-anchor="middle" x="1364.23" y="-326.7" font-family="Helvetica,sans-Serif" font-size="14.00">Waveshare SIM7600G&#45;H</text>
<text xml:space="preserve" text-anchor="middle" x="1364.23" y="-311.7" font-family="Helvetica,sans-Serif" font-size="14.00">4G Module</text>
</g>
<!-- power_entry&#45;&gt;lte -->
<g id="edge13" class="edge">
<title>power_entry&#45;&gt;lte</title>
<path fill="none" stroke="#ef2929" stroke-width="2" d="M889,-472.25C889,-426.61 889,-325 889,-325 889,-325 1265.7,-325 1265.7,-325"/>
<polygon fill="#ef2929" stroke="#ef2929" stroke-width="2" points="1265.7,-328.5 1275.7,-325 1265.7,-321.5 1265.7,-328.5"/>
<text xml:space="preserve" text-anchor="middle" x="978.97" y="-315.5" font-family="Helvetica,sans-Serif" font-size="10.00">5 V + GND</text>
</g>
<!-- lc_da -->
<g id="node8" class="node">
<title>lc_da</title>
<path fill="#87ceeb" stroke="#0066cc" stroke-width="2" d="M279.38,-618C279.38,-618 188.6,-618 188.6,-618 182.6,-618 176.6,-612 176.6,-606 176.6,-606 176.6,-594 176.6,-594 176.6,-588 182.6,-582 188.6,-582 188.6,-582 279.38,-582 279.38,-582 285.38,-582 291.38,-588 291.38,-594 291.38,-594 291.38,-606 291.38,-606 291.38,-612 285.38,-618 279.38,-618"/>
<text xml:space="preserve" text-anchor="middle" x="233.99" y="-594.2" font-family="Helvetica,sans-Serif" font-size="14.00">Data Acquisition</text>
</g>
<!-- xiao&#45;&gt;ina219 -->
<g id="edge14" class="edge">
<title>xiao&#45;&gt;ina219</title>
<path fill="none" stroke="#ef2929" stroke-width="2" d="M1172.26,-583C1225.17,-583 1300,-583 1300,-583 1300,-583 1300,-456.77 1300,-456.77"/>
<polygon fill="#ef2929" stroke="#ef2929" stroke-width="2" points="1303.5,-456.77 1300,-446.77 1296.5,-456.77 1303.5,-456.77"/>
<text xml:space="preserve" text-anchor="middle" x="1242.99" y="-573.5" font-family="Helvetica,sans-Serif" font-size="10.00">SDA/SCL + 3.3 V + GND</text>
</g>
<!-- xiao&#45;&gt;rs485 -->
<g id="edge15" class="edge">
<title>xiao&#45;&gt;rs485</title>
<path fill="none" stroke="#ef2929" stroke-width="2" d="M1172.5,-601C1243.84,-601 1364,-601 1364,-601 1364,-601 1364,-642.4 1364,-642.4"/>
<polygon fill="#ef2929" stroke="#ef2929" stroke-width="2" points="1360.5,-642.4 1364,-652.4 1367.5,-642.4 1360.5,-642.4"/>
<text xml:space="preserve" text-anchor="middle" x="1243.2" y="-591.5" font-family="Helvetica,sans-Serif" font-size="10.00">TX/RX + 5 V + GND</text>
</g>
<!-- xiao&#45;&gt;level_divider -->
<g id="edge16" class="edge">
<title>xiao&#45;&gt;level_divider</title>
<path fill="none" stroke="#ef2929" stroke-width="2" d="M1172.42,-592C1303.2,-592 1638,-592 1638,-592 1638,-592 1638,-642.52 1638,-642.52"/>
<polygon fill="#ef2929" stroke="#ef2929" stroke-width="2" points="1634.5,-642.52 1638,-652.52 1641.5,-642.52 1634.5,-642.52"/>
<text xml:space="preserve" text-anchor="middle" x="1407.22" y="-582.5" font-family="Helvetica,sans-Serif" font-size="10.00">A0 + GND</text>
</g>
<!-- xiao&#45;&gt;lte -->
<g id="edge17" class="edge">
<title>xiao&#45;&gt;lte</title>
<path fill="none" stroke="#ef2929" stroke-width="2" d="M1138,-573.13C1138,-513.87 1138,-335.38 1138,-335.38 1138,-335.38 1265.68,-335.38 1265.68,-335.38"/>
<polygon fill="#ef2929" stroke="#ef2929" stroke-width="2" points="1265.68,-338.88 1275.68,-335.38 1265.68,-331.88 1265.68,-338.88"/>
<text xml:space="preserve" text-anchor="middle" x="1088.12" y="-380.92" font-family="Helvetica,sans-Serif" font-size="10.00">TX/RX + PWK + GND</text>
</g>
<!-- rs485&#45;&gt;level_divider -->
<!-- lc_gateway -->
<g id="node18" class="node">
<title>lc_gateway</title>
<path fill="#87ceeb" stroke="#0066cc" stroke-width="2" d="M1683.14,-73.76C1683.14,-73.76 1593.86,-73.76 1593.86,-73.76 1587.86,-73.76 1581.86,-67.76 1581.86,-61.76 1581.86,-61.76 1581.86,-44.24 1581.86,-44.24 1581.86,-38.24 1587.86,-32.24 1593.86,-32.24 1593.86,-32.24 1683.14,-32.24 1683.14,-32.24 1689.14,-32.24 1695.14,-38.24 1695.14,-44.24 1695.14,-44.24 1695.14,-61.76 1695.14,-61.76 1695.14,-67.76 1689.14,-73.76 1683.14,-73.76"/>
<text xml:space="preserve" text-anchor="middle" x="1638.5" y="-54.7" font-family="Helvetica,sans-Serif" font-size="14.00">Reverse Proxy /</text>
<text xml:space="preserve" text-anchor="middle" x="1638.5" y="-39.7" font-family="Helvetica,sans-Serif" font-size="14.00">TLS Gateway</text>
</g>
<!-- lte&#45;&gt;lc_gateway -->
<g id="edge21" class="edge">
<title>lte&#45;&gt;lc_gateway</title>
<path fill="none" stroke="#0066cc" stroke-width="2" d="M1449.84,-325C1515.51,-325 1595,-325 1595,-325 1595,-325 1595,-87.37 1595,-87.37"/>
<polygon fill="#0066cc" stroke="#0066cc" stroke-width="2" points="1598.5,-87.37 1595,-77.37 1591.5,-87.37 1598.5,-87.37"/>
<text xml:space="preserve" text-anchor="middle" x="1541" y="-269.27" font-family="Helvetica,sans-Serif" font-size="10.00">HTTPS telemetry upload</text>
<text xml:space="preserve" text-anchor="middle" x="1541" y="-258.02" font-family="Helvetica,sans-Serif" font-size="10.00">over cellular or lab WAN</text>
</g>
<!-- cellular_antenna -->
<g id="node13" class="node">
<title>cellular_antenna</title>
<path fill="#fffcb7" stroke="#7b694f" stroke-width="2" d="M1206.47,-244.76C1206.47,-244.76 1035.44,-244.76 1035.44,-244.76 1029.44,-244.76 1023.44,-238.76 1023.44,-232.76 1023.44,-232.76 1023.44,-215.24 1023.44,-215.24 1023.44,-209.24 1029.44,-203.24 1035.44,-203.24 1035.44,-203.24 1206.47,-203.24 1206.47,-203.24 1212.47,-203.24 1218.47,-209.24 1218.47,-215.24 1218.47,-215.24 1218.47,-232.76 1218.47,-232.76 1218.47,-238.76 1212.47,-244.76 1206.47,-244.76"/>
<text xml:space="preserve" text-anchor="middle" x="1120.95" y="-225.7" font-family="Helvetica,sans-Serif" font-size="14.00">Waveshare 4G/3G/2G/LPWA</text>
<text xml:space="preserve" text-anchor="middle" x="1120.95" y="-210.7" font-family="Helvetica,sans-Serif" font-size="14.00">Outdoor Antenna</text>
</g>
<!-- cellular_antenna&#45;&gt;lte -->
<g id="edge20" class="edge">
<title>cellular_antenna&#45;&gt;lte</title>
<path fill="none" stroke="#ef2929" stroke-width="2" d="M1197,-245.48C1197,-272.27 1197,-314.62 1197,-314.62 1197,-314.62 1265.63,-314.62 1265.63,-314.62"/>
<polygon fill="#ef2929" stroke="#ef2929" stroke-width="2" points="1265.63,-318.12 1275.63,-314.62 1265.63,-311.12 1265.63,-318.12"/>
<text xml:space="preserve" text-anchor="middle" x="1178.25" y="-304.86" font-family="Helvetica,sans-Serif" font-size="10.00">RF coax</text>
</g>
<!-- bench_c -->
<g id="node14" class="node">
<title>bench_c</title>
<path fill="#f9e79f" stroke="#b7950b" stroke-width="2" d="M410.63,-934.26C410.63,-934.26 57.35,-934.26 57.35,-934.26 51.35,-934.26 45.35,-928.26 45.35,-922.26 45.35,-922.26 45.35,-889.74 45.35,-889.74 45.35,-883.74 51.35,-877.74 57.35,-877.74 57.35,-877.74 410.63,-877.74 410.63,-877.74 416.63,-877.74 422.63,-883.74 422.63,-889.74 422.63,-889.74 422.63,-922.26 422.63,-922.26 422.63,-928.26 416.63,-934.26 410.63,-934.26"/>
<text xml:space="preserve" text-anchor="middle" x="233.99" y="-915.2" font-family="Helvetica,sans-Serif" font-size="14.00">{c}</text>
<text xml:space="preserve" text-anchor="middle" x="233.99" y="-900.2" font-family="Helvetica,sans-Serif" font-size="14.00">Bench DC input temporarily substitutes the final solar panel</text>
<text xml:space="preserve" text-anchor="middle" x="233.99" y="-885.2" font-family="Helvetica,sans-Serif" font-size="14.00">while controller, battery, and charger behavior are integrated</text>
</g>
<!-- bench_c&#45;&gt;bench_supply -->
<g id="edge24" class="edge">
<title>bench_c&#45;&gt;bench_supply</title>
<path fill="none" stroke="#b7950b" stroke-width="2" stroke-dasharray="1,5" d="M234,-876.98C234,-861.7 234,-843.4 234,-829.95"/>
</g>
<!-- flow_c -->
<g id="node15" class="node">
<title>flow_c</title>
<path fill="#f9e79f" stroke="#b7950b" stroke-width="2" d="M431.63,-1027.26C431.63,-1027.26 36.35,-1027.26 36.35,-1027.26 30.35,-1027.26 24.35,-1021.26 24.35,-1015.26 24.35,-1015.26 24.35,-982.74 24.35,-982.74 24.35,-976.74 30.35,-970.74 36.35,-970.74 36.35,-970.74 431.63,-970.74 431.63,-970.74 437.63,-970.74 443.63,-976.74 443.63,-982.74 443.63,-982.74 443.63,-1015.26 443.63,-1015.26 443.63,-1021.26 437.63,-1027.26 431.63,-1027.26"/>
<text xml:space="preserve" text-anchor="middle" x="233.99" y="-1008.2" font-family="Helvetica,sans-Serif" font-size="14.00">{c}</text>
<text xml:space="preserve" text-anchor="middle" x="233.99" y="-993.2" font-family="Helvetica,sans-Serif" font-size="14.00">Modbus RTU simulator temporarily substitutes the final flow source</text>
<text xml:space="preserve" text-anchor="middle" x="233.99" y="-978.2" font-family="Helvetica,sans-Serif" font-size="14.00">for interface and parser verification</text>
</g>
<!-- flow_c&#45;&gt;modbus_sim -->
<g id="edge25" class="edge">
<title>flow_c&#45;&gt;modbus_sim</title>
<path fill="none" stroke="#b7950b" stroke-width="2" stroke-dasharray="1,5" d="M433,-969.77C433,-918.35 433,-817.08 433,-817.08 433,-817.08 903.68,-817.08 1066.4,-817.08"/>
</g>
<!-- level_c -->
<g id="node16" class="node">
<title>level_c</title>
<path fill="#f9e79f" stroke="#b7950b" stroke-width="2" d="M437.63,-1120.26C437.63,-1120.26 30.35,-1120.26 30.35,-1120.26 24.35,-1120.26 18.35,-1114.26 18.35,-1108.26 18.35,-1108.26 18.35,-1075.74 18.35,-1075.74 18.35,-1069.74 24.35,-1063.74 30.35,-1063.74 30.35,-1063.74 437.63,-1063.74 437.63,-1063.74 443.63,-1063.74 449.63,-1069.74 449.63,-1075.74 449.63,-1075.74 449.63,-1108.26 449.63,-1108.26 449.63,-1114.26 443.63,-1120.26 437.63,-1120.26"/>
<text xml:space="preserve" text-anchor="middle" x="233.99" y="-1101.2" font-family="Helvetica,sans-Serif" font-size="14.00">{c}</text>
<text xml:space="preserve" text-anchor="middle" x="233.99" y="-1086.2" font-family="Helvetica,sans-Serif" font-size="14.00">Analog emulator temporarily substitutes the final Seeed depth sensor</text>
<text xml:space="preserve" text-anchor="middle" x="233.99" y="-1071.2" font-family="Helvetica,sans-Serif" font-size="14.00">for scaling and health&#45;state verification</text>
</g>
<!-- level_c&#45;&gt;level_emulator -->
<g id="edge26" class="edge">
<title>level_c&#45;&gt;level_emulator</title>
<path fill="none" stroke="#b7950b" stroke-width="2" stroke-dasharray="1,5" d="M450.53,-1092C778.65,-1092 1364,-1092 1364,-1092 1364,-1092 1364,-900.45 1364,-835.35"/>
</g>
<!-- exit_c -->
<g id="node17" class="node">
<title>exit_c</title>
<path fill="#f9e79f" stroke="#b7950b" stroke-width="2" d="M409.88,-1213.26C409.88,-1213.26 58.1,-1213.26 58.1,-1213.26 52.1,-1213.26 46.1,-1207.26 46.1,-1201.26 46.1,-1201.26 46.1,-1168.74 46.1,-1168.74 46.1,-1162.74 52.1,-1156.74 58.1,-1156.74 58.1,-1156.74 409.88,-1156.74 409.88,-1156.74 415.88,-1156.74 421.88,-1162.74 421.88,-1168.74 421.88,-1168.74 421.88,-1201.26 421.88,-1201.26 421.88,-1207.26 415.88,-1213.26 409.88,-1213.26"/>
<text xml:space="preserve" text-anchor="middle" x="233.99" y="-1194.2" font-family="Helvetica,sans-Serif" font-size="14.00">{c}</text>
<text xml:space="preserve" text-anchor="middle" x="233.99" y="-1179.2" font-family="Helvetica,sans-Serif" font-size="14.00">Exit when the real XIAO&#45;based node reads both substitutes,</text>
<text xml:space="preserve" text-anchor="middle" x="233.99" y="-1164.2" font-family="Helvetica,sans-Serif" font-size="14.00">reports power/modem health, and uploads successfully</text>
</g>
<!-- exit_c&#45;&gt;lc_da -->
<g id="edge27" class="edge">
<title>exit_c&#45;&gt;lc_da</title>
<path fill="none" stroke="#b7950b" stroke-width="2" stroke-dasharray="1,5" d="M45.12,-1185C18.51,-1185 0,-1185 0,-1185 0,-1185 0,-600 0,-600 0,-600 106.55,-600 175.85,-600"/>
</g>
<!-- lc_ingest -->
<g id="node19" class="node">
<title>lc_ingest</title>
<path fill="#87ceeb" stroke="#0066cc" stroke-width="2" d="M2020.64,-71C2020.64,-71 1936.61,-71 1936.61,-71 1930.61,-71 1924.61,-65 1924.61,-59 1924.61,-59 1924.61,-47 1924.61,-47 1924.61,-41 1930.61,-35 1936.61,-35 1936.61,-35 2020.64,-35 2020.64,-35 2026.64,-35 2032.64,-41 2032.64,-47 2032.64,-47 2032.64,-59 2032.64,-59 2032.64,-65 2026.64,-71 2020.64,-71"/>
<text xml:space="preserve" text-anchor="middle" x="1978.62" y="-47.2" font-family="Helvetica,sans-Serif" font-size="14.00">Node Ingestion</text>
</g>
<!-- exit_c&#45;&gt;lc_ingest -->
<g id="edge28" class="edge">
<title>exit_c&#45;&gt;lc_ingest</title>
<path fill="none" stroke="#b7950b" stroke-width="2" stroke-dasharray="1,5" d="M422.81,-1185C874.29,-1185 1979,-1185 1979,-1185 1979,-1185 1979,-218.89 1979,-71.7"/>
</g>
<!-- lc_gateway&#45;&gt;lc_ingest -->
<!-- lc_gateway&#45;&gt;lc_ingest -->
<g id="edge22" class="edge">
<title>lc_gateway&#45;&gt;lc_ingest</title>
<path fill="none" stroke="#0066cc" stroke-width="2" d="M1695.81,-47C1695.81,-47 1910.59,-47 1910.59,-47"/>
<polygon fill="#0066cc" stroke="#0066cc" stroke-width="2" points="1910.59,-50.5 1920.59,-47 1910.59,-43.5 1910.59,-50.5"/>
<text xml:space="preserve" text-anchor="middle" x="1772.83" y="-37.5" font-family="Helvetica,sans-Serif" font-size="10.00">Routed ingest</text>
<text xml:space="preserve" text-anchor="middle" x="1772.83" y="-26.25" font-family="Helvetica,sans-Serif" font-size="10.00">request</text>
</g>
<!-- lc_storage -->
<g id="node20" class="node">
<title>lc_storage</title>
<path fill="#87ceeb" stroke="#0066cc" stroke-width="2" d="M2354.39,-71C2354.39,-71 2247.86,-71 2247.86,-71 2241.86,-71 2235.86,-65 2235.86,-59 2235.86,-59 2235.86,-47 2235.86,-47 2235.86,-41 2241.86,-35 2247.86,-35 2247.86,-35 2354.39,-35 2354.39,-35 2360.39,-35 2366.39,-41 2366.39,-47 2366.39,-47 2366.39,-59 2366.39,-59 2366.39,-65 2360.39,-71 2354.39,-71"/>
<text xml:space="preserve" text-anchor="middle" x="2301.12" y="-47.2" font-family="Helvetica,sans-Serif" font-size="14.00">Long&#45;term Storage</text>
</g>
<!-- lc_ingest&#45;&gt;lc_storage -->
<!-- lc_ingest&#45;&gt;lc_storage -->
<g id="edge23" class="edge">
<title>lc_ingest&#45;&gt;lc_storage</title>
<path fill="none" stroke="#0066cc" stroke-width="2" d="M2033.33,-59C2033.33,-59 2221.95,-59 2221.95,-59"/>
<polygon fill="#0066cc" stroke="#0066cc" stroke-width="2" points="2221.95,-62.5 2231.95,-59 2221.95,-55.5 2221.95,-62.5"/>
<text xml:space="preserve" text-anchor="middle" x="2089.77" y="-49.5" font-family="Helvetica,sans-Serif" font-size="10.00">Validated batch +</text>
<text xml:space="preserve" text-anchor="middle" x="2089.77" y="-38.25" font-family="Helvetica,sans-Serif" font-size="10.00">health status</text>
</g>
</g>
</svg>
