<?xml version="1.0" encoding="UTF-8" standalone="no"?>
<!DOCTYPE svg PUBLIC "-//W3C//DTD SVG 1.1//EN"
 "http://www.w3.org/Graphics/SVG/1.1/DTD/svg11.dtd">
<!-- Generated by graphviz version 14.1.4 (20260321.0153)
 -->
<!-- Title: ServerNodePA Pages: 1 -->
<svg width="1404pt" height="525pt"
 viewBox="0.00 0.00 1404.00 525.00" xmlns="http://www.w3.org/2000/svg" xmlns:xlink="http://www.w3.org/1999/xlink">
<g id="graph0" class="graph" transform="scale(1 1) rotate(0) translate(18 506.5)">
<title>ServerNodePA</title>
<polygon fill="white" stroke="none" points="-18,18 -18,-506.5 1386,-506.5 1386,18 -18,18"/>
<g id="clust1" class="cluster">
<title>cluster_portable_host</title>
<path fill="#fff9d6" stroke="#7b694f" stroke-width="2" d="M20,-57.52C20,-57.52 1348,-57.52 1348,-57.52 1354,-57.52 1360,-63.52 1360,-69.52 1360,-69.52 1360,-428.08 1360,-428.08 1360,-434.08 1354,-440.08 1348,-440.08 1348,-440.08 20,-440.08 20,-440.08 14,-440.08 8,-434.08 8,-428.08 8,-428.08 8,-69.52 8,-69.52 8,-63.52 14,-57.52 20,-57.52"/>
<text xml:space="preserve" text-anchor="middle" x="684" y="-422.78" font-family="Helvetica,sans-Serif" font-size="14.00">DigitalOcean Premium AMD Droplet</text>
<text xml:space="preserve" text-anchor="middle" x="684" y="-407.78" font-family="Helvetica,sans-Serif" font-size="14.00">(4 vCPU / 8 GiB RAM / 160 GiB SSD)</text>
</g>
<g id="clust2" class="cluster">
<title>cluster_platform_plane</title>
<path fill="white" stroke="#d0d0d0" stroke-width="1.5" d="M658,-282.56C658,-282.56 930,-282.56 930,-282.56 936,-282.56 942,-288.56 942,-294.56 942,-294.56 942,-351.08 942,-351.08 942,-357.08 936,-363.08 930,-363.08 930,-363.08 658,-363.08 658,-363.08 652,-363.08 646,-357.08 646,-351.08 646,-351.08 646,-294.56 646,-294.56 646,-288.56 652,-282.56 658,-282.56"/>
<text xml:space="preserve" text-anchor="middle" x="794" y="-345.78" font-family="Helvetica,sans-Serif" font-size="14.00">Droplet Platform</text>
</g>
<g id="clust3" class="cluster">
<title>cluster_access_plane</title>
<path fill="white" stroke="#d0d0d0" stroke-width="1.5" d="M28,-274.56C28,-274.56 626,-274.56 626,-274.56 632,-274.56 638,-280.56 638,-286.56 638,-286.56 638,-382.08 638,-382.08 638,-388.08 632,-394.08 626,-394.08 626,-394.08 28,-394.08 28,-394.08 22,-394.08 16,-388.08 16,-382.08 16,-382.08 16,-286.56 16,-286.56 16,-280.56 22,-274.56 28,-274.56"/>
<text xml:space="preserve" text-anchor="middle" x="327" y="-376.78" font-family="Helvetica,sans-Serif" font-size="14.00">Access &amp; Identity</text>
</g>
<g id="clust4" class="cluster">
<title>cluster_traefik</title>
<path fill="#dce8f7" stroke="#4a4a97" stroke-width="2" d="M36,-282.56C36,-282.56 224,-282.56 224,-282.56 230,-282.56 236,-288.56 236,-294.56 236,-294.56 236,-351.08 236,-351.08 236,-357.08 230,-363.08 224,-363.08 224,-363.08 36,-363.08 36,-363.08 30,-363.08 24,-357.08 24,-351.08 24,-351.08 24,-294.56 24,-294.56 24,-288.56 30,-282.56 36,-282.56"/>
<text xml:space="preserve" text-anchor="middle" x="130" y="-345.78" font-family="Helvetica,sans-Serif" font-size="14.00">Traefik Reverse Proxy Container</text>
</g>
<g id="clust5" class="cluster">
<title>cluster_keycloak</title>
<path fill="#dce8f7" stroke="#4a4a97" stroke-width="2" d="M256,-282.56C256,-282.56 412,-282.56 412,-282.56 418,-282.56 424,-288.56 424,-294.56 424,-294.56 424,-351.08 424,-351.08 424,-357.08 418,-363.08 412,-363.08 412,-363.08 256,-363.08 256,-363.08 250,-363.08 244,-357.08 244,-351.08 244,-351.08 244,-294.56 244,-294.56 244,-288.56 250,-282.56 256,-282.56"/>
<text xml:space="preserve" text-anchor="middle" x="334" y="-345.78" font-family="Helvetica,sans-Serif" font-size="14.00">Keycloak Identity Container</text>
</g>
<g id="clust6" class="cluster">
<title>cluster_grafana</title>
<path fill="#dce8f7" stroke="#4a4a97" stroke-width="2" d="M444,-285.32C444,-285.32 618,-285.32 618,-285.32 624,-285.32 630,-291.32 630,-297.32 630,-297.32 630,-348.32 630,-348.32 630,-354.32 624,-360.32 618,-360.32 618,-360.32 444,-360.32 444,-360.32 438,-360.32 432,-354.32 432,-348.32 432,-348.32 432,-297.32 432,-297.32 432,-291.32 438,-285.32 444,-285.32"/>
<text xml:space="preserve" text-anchor="middle" x="531" y="-343.02" font-family="Helvetica,sans-Serif" font-size="14.00">Grafana Dashboard Container</text>
</g>
<g id="clust8" class="cluster">
<title>cluster_application_plane</title>
<path fill="white" stroke="#d0d0d0" stroke-width="1.5" d="M596,-65.52C596,-65.52 1340,-65.52 1340,-65.52 1346,-65.52 1352,-71.52 1352,-77.52 1352,-77.52 1352,-251.8 1352,-251.8 1352,-257.8 1346,-263.8 1340,-263.8 1340,-263.8 596,-263.8 596,-263.8 590,-263.8 584,-257.8 584,-251.8 584,-251.8 584,-77.52 584,-77.52 584,-71.52 590,-65.52 596,-65.52"/>
<text xml:space="preserve" text-anchor="middle" x="968" y="-246.5" font-family="Helvetica,sans-Serif" font-size="14.00">Application Services</text>
</g>
<g id="clust9" class="cluster">
<title>cluster_fastapi</title>
<path fill="#dce8f7" stroke="#4a4a97" stroke-width="2" d="M604,-73.52C604,-73.52 853,-73.52 853,-73.52 859,-73.52 865,-79.52 865,-85.52 865,-85.52 865,-220.8 865,-220.8 865,-226.8 859,-232.8 853,-232.8 853,-232.8 604,-232.8 604,-232.8 598,-232.8 592,-226.8 592,-220.8 592,-220.8 592,-85.52 592,-85.52 592,-79.52 598,-73.52 604,-73.52"/>
<text xml:space="preserve" text-anchor="middle" x="728.5" y="-215.5" font-family="Helvetica,sans-Serif" font-size="14.00">FastAPI Application Container</text>
</g>
<g id="clust12" class="cluster">
<title>cluster_analytics</title>
<path fill="#dce8f7" stroke="#4a4a97" stroke-width="2" d="M885,-76.28C885,-76.28 1086,-76.28 1086,-76.28 1092,-76.28 1098,-82.28 1098,-88.28 1098,-88.28 1098,-220.8 1098,-220.8 1098,-226.8 1092,-232.8 1086,-232.8 1086,-232.8 885,-232.8 885,-232.8 879,-232.8 873,-226.8 873,-220.8 873,-220.8 873,-88.28 873,-88.28 873,-82.28 879,-76.28 885,-76.28"/>
<text xml:space="preserve" text-anchor="middle" x="985.5" y="-215.5" font-family="Helvetica,sans-Serif" font-size="14.00">Python Analytics Worker Container</text>
</g>
<g id="clust13" class="cluster">
<title>cluster_notifier</title>
<path fill="#dce8f7" stroke="#4a4a97" stroke-width="2" d="M1118,-157.8C1118,-157.8 1332,-157.8 1332,-157.8 1338,-157.8 1344,-163.8 1344,-169.8 1344,-169.8 1344,-220.8 1344,-220.8 1344,-226.8 1338,-232.8 1332,-232.8 1332,-232.8 1118,-232.8 1118,-232.8 1112,-232.8 1106,-226.8 1106,-220.8 1106,-220.8 1106,-169.8 1106,-169.8 1106,-163.8 1112,-157.8 1118,-157.8"/>
<text xml:space="preserve" text-anchor="middle" x="1225" y="-215.5" font-family="Helvetica,sans-Serif" font-size="14.00">Python Notification Worker Container</text>
</g>
<g id="clust15" class="cluster">
<title>cluster_data_ops_plane</title>
<path fill="white" stroke="#d0d0d0" stroke-width="1.5" d="M28,-147.04C28,-147.04 564,-147.04 564,-147.04 570,-147.04 576,-153.04 576,-159.04 576,-159.04 576,-254.56 576,-254.56 576,-260.56 570,-266.56 564,-266.56 564,-266.56 28,-266.56 28,-266.56 22,-266.56 16,-260.56 16,-254.56 16,-254.56 16,-159.04 16,-159.04 16,-153.04 22,-147.04 28,-147.04"/>
<text xml:space="preserve" text-anchor="middle" x="296" y="-249.26" font-family="Helvetica,sans-Serif" font-size="14.00">Data, Identity Store &amp; Backup</text>
</g>
<g id="clust16" class="cluster">
<title>cluster_influxdb</title>
<path fill="#dce8f7" stroke="#4a4a97" stroke-width="2" d="M36,-157.8C36,-157.8 197,-157.8 197,-157.8 203,-157.8 209,-163.8 209,-169.8 209,-169.8 209,-220.8 209,-220.8 209,-226.8 203,-232.8 197,-232.8 197,-232.8 36,-232.8 36,-232.8 30,-232.8 24,-226.8 24,-220.8 24,-220.8 24,-169.8 24,-169.8 24,-163.8 30,-157.8 36,-157.8"/>
<text xml:space="preserve" text-anchor="middle" x="116.5" y="-215.5" font-family="Helvetica,sans-Serif" font-size="14.00">InfluxDB OSS 2.7 Container</text>
</g>
<g id="clust17" class="cluster">
<title>cluster_postgres</title>
<path fill="#dce8f7" stroke="#4a4a97" stroke-width="2" d="M229,-155.04C229,-155.04 383,-155.04 383,-155.04 389,-155.04 395,-161.04 395,-167.04 395,-167.04 395,-223.56 395,-223.56 395,-229.56 389,-235.56 383,-235.56 383,-235.56 229,-235.56 229,-235.56 223,-235.56 217,-229.56 217,-223.56 217,-223.56 217,-167.04 217,-167.04 217,-161.04 223,-155.04 229,-155.04"/>
<text xml:space="preserve" text-anchor="middle" x="306" y="-218.26" font-family="Helvetica,sans-Serif" font-size="14.00">PostgreSQL 16 Container</text>
</g>
<g id="clust18" class="cluster">
<title>cluster_restic</title>
<path fill="#dce8f7" stroke="#4a4a97" stroke-width="2" d="M415,-157.8C415,-157.8 556,-157.8 556,-157.8 562,-157.8 568,-163.8 568,-169.8 568,-169.8 568,-220.8 568,-220.8 568,-226.8 562,-232.8 556,-232.8 556,-232.8 415,-232.8 415,-232.8 409,-232.8 403,-226.8 403,-220.8 403,-220.8 403,-169.8 403,-169.8 403,-163.8 409,-157.8 415,-157.8"/>
<text xml:space="preserve" text-anchor="middle" x="485.5" y="-215.5" font-family="Helvetica,sans-Serif" font-size="14.00">Restic Backup Container</text>
</g>
<!-- field_node -->
<g id="node1" class="node">
<title>field_node</title>
<path fill="#fffcb7" stroke="#7b694f" stroke-width="2" d="M695.14,-484.08C695.14,-484.08 584.86,-484.08 584.86,-484.08 578.86,-484.08 572.86,-478.08 572.86,-472.08 572.86,-472.08 572.86,-460.08 572.86,-460.08 572.86,-454.08 578.86,-448.08 584.86,-448.08 584.86,-448.08 695.14,-448.08 695.14,-448.08 701.14,-448.08 707.14,-454.08 707.14,-460.08 707.14,-460.08 707.14,-472.08 707.14,-472.08 707.14,-478.08 701.14,-484.08 695.14,-484.08"/>
<text xml:space="preserve" text-anchor="middle" x="640" y="-460.28" font-family="Helvetica,sans-Serif" font-size="14.00">Remote Field Node</text>
</g>
<!-- lc_ingest -->
<g id="node11" class="node">
<title>lc_ingest</title>
<path fill="#87ceeb" stroke="#0066cc" stroke-width="2" d="M696.01,-201.8C696.01,-201.8 611.99,-201.8 611.99,-201.8 605.99,-201.8 599.99,-195.8 599.99,-189.8 599.99,-189.8 599.99,-177.8 599.99,-177.8 599.99,-171.8 605.99,-165.8 611.99,-165.8 611.99,-165.8 696.01,-165.8 696.01,-165.8 702.01,-165.8 708.01,-171.8 708.01,-177.8 708.01,-177.8 708.01,-189.8 708.01,-189.8 708.01,-195.8 702.01,-201.8 696.01,-201.8"/>
<text xml:space="preserve" text-anchor="middle" x="654" y="-178" font-family="Helvetica,sans-Serif" font-size="14.00">Node Ingestion</text>
</g>
<!-- field_node&#45;&gt;lc_ingest -->
<g id="edge20" class="edge">
<title>field_node&#45;&gt;lc_ingest</title>
<path fill="none" stroke="#0066cc" stroke-width="2" d="M626.8,-447.12C626.8,-447.12 626.8,-215.7 626.8,-215.7"/>
<polygon fill="#0066cc" stroke="#0066cc" stroke-width="2" points="630.3,-215.7 626.8,-205.7 623.3,-215.7 630.3,-215.7"/>
<text xml:space="preserve" text-anchor="middle" x="680.8" y="-344.41" font-family="Helvetica,sans-Serif" font-size="10.00">HTTPS telemetry upload</text>
<text xml:space="preserve" text-anchor="middle" x="680.8" y="-333.16" font-family="Helvetica,sans-Serif" font-size="10.00">over cellular WAN</text>
</g>
<!-- employee_device -->
<g id="node2" class="node">
<title>employee_device</title>
<path fill="#fffcb7" stroke="#7b694f" stroke-width="2" d="M535.64,-484.08C535.64,-484.08 398.36,-484.08 398.36,-484.08 392.36,-484.08 386.36,-478.08 386.36,-472.08 386.36,-472.08 386.36,-460.08 386.36,-460.08 386.36,-454.08 392.36,-448.08 398.36,-448.08 398.36,-448.08 535.64,-448.08 535.64,-448.08 541.64,-448.08 547.64,-454.08 547.64,-460.08 547.64,-460.08 547.64,-472.08 547.64,-472.08 547.64,-478.08 541.64,-484.08 535.64,-484.08"/>
<text xml:space="preserve" text-anchor="middle" x="467" y="-460.28" font-family="Helvetica,sans-Serif" font-size="14.00">Employee Client Device</text>
</g>
<!-- employee_device&#45;&gt;field_node -->
<!-- lc_gateway -->
<g id="node8" class="node">
<title>lc_gateway</title>
<path fill="#87ceeb" stroke="#0066cc" stroke-width="2" d="M179.64,-332.08C179.64,-332.08 90.36,-332.08 90.36,-332.08 84.36,-332.08 78.36,-326.08 78.36,-320.08 78.36,-320.08 78.36,-302.56 78.36,-302.56 78.36,-296.56 84.36,-290.56 90.36,-290.56 90.36,-290.56 179.64,-290.56 179.64,-290.56 185.64,-290.56 191.64,-296.56 191.64,-302.56 191.64,-302.56 191.64,-320.08 191.64,-320.08 191.64,-326.08 185.64,-332.08 179.64,-332.08"/>
<text xml:space="preserve" text-anchor="middle" x="135" y="-313.02" font-family="Helvetica,sans-Serif" font-size="14.00">Reverse Proxy /</text>
<text xml:space="preserve" text-anchor="middle" x="135" y="-298.02" font-family="Helvetica,sans-Serif" font-size="14.00">TLS Gateway</text>
</g>
<!-- employee_device&#45;&gt;lc_gateway -->
<g id="edge19" class="edge">
<title>employee_device&#45;&gt;lc_gateway</title>
<path fill="none" stroke="#0066cc" stroke-width="2" d="M385.78,-466C287.5,-466 135,-466 135,-466 135,-466 135,-345.85 135,-345.85"/>
<polygon fill="#0066cc" stroke="#0066cc" stroke-width="2" points="138.5,-345.85 135,-335.85 131.5,-345.85 138.5,-345.85"/>
<text xml:space="preserve" text-anchor="middle" x="142.57" y="-479" font-family="Helvetica,sans-Serif" font-size="10.00">HTTPS dashboard access</text>
<text xml:space="preserve" text-anchor="middle" x="142.57" y="-467.75" font-family="Helvetica,sans-Serif" font-size="10.00">over public WAN</text>
</g>
<!-- external_aggregator -->
<g id="node3" class="node">
<title>external_aggregator</title>
<path fill="#fffcb7" stroke="#7b694f" stroke-width="2" d="M707.64,-41.52C707.64,-41.52 594.36,-41.52 594.36,-41.52 588.36,-41.52 582.36,-35.52 582.36,-29.52 582.36,-29.52 582.36,-12 582.36,-12 582.36,-6 588.36,0 594.36,0 594.36,0 707.64,0 707.64,0 713.64,0 719.64,-6 719.64,-12 719.64,-12 719.64,-29.52 719.64,-29.52 719.64,-35.52 713.64,-41.52 707.64,-41.52"/>
<text xml:space="preserve" text-anchor="middle" x="651" y="-22.46" font-family="Helvetica,sans-Serif" font-size="14.00">External Aggregator</text>
<text xml:space="preserve" text-anchor="middle" x="651" y="-7.46" font-family="Helvetica,sans-Serif" font-size="14.00">Endpoint</text>
</g>
<!-- do_volume -->
<g id="node4" class="node">
<title>do_volume</title>
<path fill="#fffcb7" stroke="#7b694f" stroke-width="2" d="M376.01,-41.52C376.01,-41.52 267.99,-41.52 267.99,-41.52 261.99,-41.52 255.99,-35.52 255.99,-29.52 255.99,-29.52 255.99,-12 255.99,-12 255.99,-6 261.99,0 267.99,0 267.99,0 376.01,0 376.01,0 382.01,0 388.01,-6 388.01,-12 388.01,-12 388.01,-29.52 388.01,-29.52 388.01,-35.52 382.01,-41.52 376.01,-41.52"/>
<text xml:space="preserve" text-anchor="middle" x="322" y="-22.46" font-family="Helvetica,sans-Serif" font-size="14.00">DigitalOcean Block</text>
<text xml:space="preserve" text-anchor="middle" x="322" y="-7.46" font-family="Helvetica,sans-Serif" font-size="14.00">Storage Volume</text>
</g>
<!-- do_spaces -->
<g id="node5" class="node">
<title>do_spaces</title>
<path fill="#fffcb7" stroke="#7b694f" stroke-width="2" d="M545.01,-41.52C545.01,-41.52 424.99,-41.52 424.99,-41.52 418.99,-41.52 412.99,-35.52 412.99,-29.52 412.99,-29.52 412.99,-12 412.99,-12 412.99,-6 418.99,0 424.99,0 424.99,0 545.01,0 545.01,0 551.01,0 557.01,-6 557.01,-12 557.01,-12 557.01,-29.52 557.01,-29.52 557.01,-35.52 551.01,-41.52 545.01,-41.52"/>
<text xml:space="preserve" text-anchor="middle" x="485" y="-22.46" font-family="Helvetica,sans-Serif" font-size="14.00">DigitalOcean Spaces</text>
<text xml:space="preserve" text-anchor="middle" x="485" y="-7.46" font-family="Helvetica,sans-Serif" font-size="14.00">Backup Bucket</text>
</g>
<!-- do_volume&#45;&gt;do_spaces -->
<!-- do_spaces&#45;&gt;external_aggregator -->
<!-- host_os -->
<g id="node6" class="node">
<title>host_os</title>
<path fill="#fffcb7" stroke="#7b694f" stroke-width="2" d="M774.39,-329.32C774.39,-329.32 665.61,-329.32 665.61,-329.32 659.61,-329.32 653.61,-323.32 653.61,-317.32 653.61,-317.32 653.61,-305.32 653.61,-305.32 653.61,-299.32 659.61,-293.32 665.61,-293.32 665.61,-293.32 774.39,-293.32 774.39,-293.32 780.39,-293.32 786.39,-299.32 786.39,-305.32 786.39,-305.32 786.39,-317.32 786.39,-317.32 786.39,-323.32 780.39,-329.32 774.39,-329.32"/>
<text xml:space="preserve" text-anchor="middle" x="720" y="-305.52" font-family="Helvetica,sans-Serif" font-size="14.00">Ubuntu Server LTS</text>
</g>
<!-- host_os&#45;&gt;do_volume -->
<g id="edge23" class="edge">
<title>host_os&#45;&gt;do_volume</title>
<path fill="none" stroke="#ef2929" stroke-width="2" d="M711.89,-292.58C711.89,-234.6 711.89,-62 711.89,-62 711.89,-62 321.31,-62 321.31,-62 321.31,-62 321.31,-55.37 321.31,-55.37"/>
<polygon fill="#ef2929" stroke="#ef2929" stroke-width="2" points="324.81,-55.37 321.31,-45.37 317.81,-55.37 324.81,-55.37"/>
<text xml:space="preserve" text-anchor="middle" x="595.95" y="-75" font-family="Helvetica,sans-Serif" font-size="10.00">Attached block</text>
<text xml:space="preserve" text-anchor="middle" x="595.95" y="-63.75" font-family="Helvetica,sans-Serif" font-size="10.00">storage</text>
</g>
<!-- docker_runtime -->
<g id="node7" class="node">
<title>docker_runtime</title>
<path fill="#87ceeb" stroke="#0066cc" stroke-width="2" d="M922.14,-332.08C922.14,-332.08 823.86,-332.08 823.86,-332.08 817.86,-332.08 811.86,-326.08 811.86,-320.08 811.86,-320.08 811.86,-302.56 811.86,-302.56 811.86,-296.56 817.86,-290.56 823.86,-290.56 823.86,-290.56 922.14,-290.56 922.14,-290.56 928.14,-290.56 934.14,-296.56 934.14,-302.56 934.14,-302.56 934.14,-320.08 934.14,-320.08 934.14,-326.08 928.14,-332.08 922.14,-332.08"/>
<text xml:space="preserve" text-anchor="middle" x="873" y="-313.02" font-family="Helvetica,sans-Serif" font-size="14.00">Docker Engine +</text>
<text xml:space="preserve" text-anchor="middle" x="873" y="-298.02" font-family="Helvetica,sans-Serif" font-size="14.00">Docker Compose</text>
</g>
<!-- host_os&#45;&gt;docker_runtime -->
<!-- host_os&#45;&gt;lc_ingest -->
<!-- lc_processing -->
<g id="node15" class="node">
<title>lc_processing</title>
<path fill="#87ceeb" stroke="#0066cc" stroke-width="2" d="M986.14,-201.8C986.14,-201.8 893.86,-201.8 893.86,-201.8 887.86,-201.8 881.86,-195.8 881.86,-189.8 881.86,-189.8 881.86,-177.8 881.86,-177.8 881.86,-171.8 887.86,-165.8 893.86,-165.8 893.86,-165.8 986.14,-165.8 986.14,-165.8 992.14,-165.8 998.14,-171.8 998.14,-177.8 998.14,-177.8 998.14,-189.8 998.14,-189.8 998.14,-195.8 992.14,-201.8 986.14,-201.8"/>
<text xml:space="preserve" text-anchor="middle" x="940" y="-178" font-family="Helvetica,sans-Serif" font-size="14.00">Data Processing</text>
</g>
<!-- docker_runtime&#45;&gt;lc_processing -->
<!-- lc_iam -->
<g id="node9" class="node">
<title>lc_iam</title>
<path fill="#87ceeb" stroke="#0066cc" stroke-width="2" d="M374.14,-332.08C374.14,-332.08 263.86,-332.08 263.86,-332.08 257.86,-332.08 251.86,-326.08 251.86,-320.08 251.86,-320.08 251.86,-302.56 251.86,-302.56 251.86,-296.56 257.86,-290.56 263.86,-290.56 263.86,-290.56 374.14,-290.56 374.14,-290.56 380.14,-290.56 386.14,-296.56 386.14,-302.56 386.14,-302.56 386.14,-320.08 386.14,-320.08 386.14,-326.08 380.14,-332.08 374.14,-332.08"/>
<text xml:space="preserve" text-anchor="middle" x="319" y="-313.02" font-family="Helvetica,sans-Serif" font-size="14.00">Identity and Access</text>
<text xml:space="preserve" text-anchor="middle" x="319" y="-298.02" font-family="Helvetica,sans-Serif" font-size="14.00">Management</text>
</g>
<!-- lc_gateway&#45;&gt;lc_iam -->
<!-- lc_storage -->
<g id="node18" class="node">
<title>lc_storage</title>
<path fill="#87ceeb" stroke="#0066cc" stroke-width="2" d="M188.26,-201.8C188.26,-201.8 81.74,-201.8 81.74,-201.8 75.74,-201.8 69.73,-195.8 69.73,-189.8 69.73,-189.8 69.73,-177.8 69.73,-177.8 69.73,-171.8 75.73,-165.8 81.73,-165.8 81.73,-165.8 188.26,-165.8 188.26,-165.8 194.26,-165.8 200.26,-171.8 200.26,-177.8 200.26,-177.8 200.26,-189.8 200.26,-189.8 200.26,-195.8 194.26,-201.8 188.26,-201.8"/>
<text xml:space="preserve" text-anchor="middle" x="135" y="-178" font-family="Helvetica,sans-Serif" font-size="14.00">Long&#45;term Storage</text>
</g>
<!-- lc_gateway&#45;&gt;lc_storage -->
<!-- lc_dashboard -->
<g id="node10" class="node">
<title>lc_dashboard</title>
<path fill="#87ceeb" stroke="#0066cc" stroke-width="2" d="M511.64,-329.32C511.64,-329.32 452.36,-329.32 452.36,-329.32 446.36,-329.32 440.36,-323.32 440.36,-317.32 440.36,-317.32 440.36,-305.32 440.36,-305.32 440.36,-299.32 446.36,-293.32 452.36,-293.32 452.36,-293.32 511.64,-293.32 511.64,-293.32 517.64,-293.32 523.64,-299.32 523.64,-305.32 523.64,-305.32 523.64,-317.32 523.64,-317.32 523.64,-323.32 517.64,-329.32 511.64,-329.32"/>
<text xml:space="preserve" text-anchor="middle" x="482" y="-305.52" font-family="Helvetica,sans-Serif" font-size="14.00">Dashboard</text>
</g>
<!-- lc_iam&#45;&gt;lc_dashboard -->
<!-- lc_rel_config -->
<g id="node19" class="node">
<title>lc_rel_config</title>
<path fill="#87ceeb" stroke="#0066cc" stroke-width="2" d="M374.64,-204.56C374.64,-204.56 237.36,-204.56 237.36,-204.56 231.36,-204.56 225.36,-198.56 225.36,-192.56 225.36,-192.56 225.36,-175.04 225.36,-175.04 225.36,-169.04 231.36,-163.04 237.36,-163.04 237.36,-163.04 374.64,-163.04 374.64,-163.04 380.64,-163.04 386.64,-169.04 386.64,-175.04 386.64,-175.04 386.64,-192.56 386.64,-192.56 386.64,-198.56 380.64,-204.56 374.64,-204.56"/>
<text xml:space="preserve" text-anchor="middle" x="306" y="-185.5" font-family="Helvetica,sans-Serif" font-size="14.00">Relational Configuration</text>
<text xml:space="preserve" text-anchor="middle" x="306" y="-170.5" font-family="Helvetica,sans-Serif" font-size="14.00">and Identity Store</text>
</g>
<!-- lc_iam&#45;&gt;lc_rel_config -->
<!-- lc_config -->
<g id="node12" class="node">
<title>lc_config</title>
<path fill="#87ceeb" stroke="#0066cc" stroke-width="2" d="M844.51,-201.8C844.51,-201.8 745.49,-201.8 745.49,-201.8 739.49,-201.8 733.49,-195.8 733.49,-189.8 733.49,-189.8 733.49,-177.8 733.49,-177.8 733.49,-171.8 739.49,-165.8 745.49,-165.8 745.49,-165.8 844.51,-165.8 844.51,-165.8 850.51,-165.8 856.51,-171.8 856.51,-177.8 856.51,-177.8 856.51,-189.8 856.51,-189.8 856.51,-195.8 850.51,-201.8 844.51,-201.8"/>
<text xml:space="preserve" text-anchor="middle" x="795" y="-178" font-family="Helvetica,sans-Serif" font-size="14.00">Configuration API</text>
</g>
<!-- lc_ingest&#45;&gt;lc_config -->
<!-- lc_measurement_window -->
<g id="node13" class="node">
<title>lc_measurement_window</title>
<path fill="#87ceeb" stroke="#0066cc" stroke-width="2" d="M692.64,-123.04C692.64,-123.04 615.36,-123.04 615.36,-123.04 609.36,-123.04 603.36,-117.04 603.36,-111.04 603.36,-111.04 603.36,-93.52 603.36,-93.52 603.36,-87.52 609.36,-81.52 615.36,-81.52 615.36,-81.52 692.64,-81.52 692.64,-81.52 698.64,-81.52 704.64,-87.52 704.64,-93.52 704.64,-93.52 704.64,-111.04 704.64,-111.04 704.64,-117.04 698.64,-123.04 692.64,-123.04"/>
<text xml:space="preserve" text-anchor="middle" x="654" y="-103.98" font-family="Helvetica,sans-Serif" font-size="14.00">Measurement</text>
<text xml:space="preserve" text-anchor="middle" x="654" y="-88.98" font-family="Helvetica,sans-Serif" font-size="14.00">Window</text>
</g>
<!-- lc_ingest&#45;&gt;lc_measurement_window -->
<!-- lc_export -->
<g id="node14" class="node">
<title>lc_export</title>
<path fill="#87ceeb" stroke="#0066cc" stroke-width="2" d="M827.26,-120.28C827.26,-120.28 762.74,-120.28 762.74,-120.28 756.74,-120.28 750.74,-114.28 750.74,-108.28 750.74,-108.28 750.74,-96.28 750.74,-96.28 750.74,-90.28 756.74,-84.28 762.74,-84.28 762.74,-84.28 827.26,-84.28 827.26,-84.28 833.26,-84.28 839.26,-90.28 839.26,-96.28 839.26,-96.28 839.26,-108.28 839.26,-108.28 839.26,-114.28 833.26,-120.28 827.26,-120.28"/>
<text xml:space="preserve" text-anchor="middle" x="795" y="-96.48" font-family="Helvetica,sans-Serif" font-size="14.00">Data Export</text>
</g>
<!-- lc_config&#45;&gt;lc_export -->
<!-- lc_export&#45;&gt;external_aggregator -->
<g id="edge21" class="edge">
<title>lc_export&#45;&gt;external_aggregator</title>
<path fill="none" stroke="#0066cc" stroke-width="2" d="M749.83,-102C732.03,-102 715.76,-102 715.76,-102 715.76,-102 715.76,-55.13 715.76,-55.13"/>
<polygon fill="#0066cc" stroke="#0066cc" stroke-width="2" points="719.27,-55.13 715.77,-45.13 712.27,-55.13 719.27,-55.13"/>
<text xml:space="preserve" text-anchor="middle" x="715.76" y="-86.1" font-family="Helvetica,sans-Serif" font-size="10.00">Export API / HTTPS</text>
</g>
<!-- lc_export&#45;&gt;lc_processing -->
<!-- lc_event -->
<g id="node16" class="node">
<title>lc_event</title>
<path fill="#87ceeb" stroke="#0066cc" stroke-width="2" d="M984.26,-120.28C984.26,-120.28 895.74,-120.28 895.74,-120.28 889.74,-120.28 883.74,-114.28 883.74,-108.28 883.74,-108.28 883.74,-96.28 883.74,-96.28 883.74,-90.28 889.74,-84.28 895.74,-84.28 895.74,-84.28 984.26,-84.28 984.26,-84.28 990.26,-84.28 996.26,-90.28 996.26,-96.28 996.26,-96.28 996.26,-108.28 996.26,-108.28 996.26,-114.28 990.26,-120.28 984.26,-120.28"/>
<text xml:space="preserve" text-anchor="middle" x="940" y="-96.48" font-family="Helvetica,sans-Serif" font-size="14.00">Event Detection</text>
</g>
<!-- lc_processing&#45;&gt;lc_event -->
<!-- lc_notifier -->
<g id="node17" class="node">
<title>lc_notifier</title>
<path fill="#87ceeb" stroke="#0066cc" stroke-width="2" d="M1162.02,-201.8C1162.02,-201.8 1125.98,-201.8 1125.98,-201.8 1119.98,-201.8 1113.98,-195.8 1113.98,-189.8 1113.98,-189.8 1113.98,-177.8 1113.98,-177.8 1113.98,-171.8 1119.98,-165.8 1125.98,-165.8 1125.98,-165.8 1162.02,-165.8 1162.02,-165.8 1168.02,-165.8 1174.02,-171.8 1174.02,-177.8 1174.02,-177.8 1174.02,-189.8 1174.02,-189.8 1174.02,-195.8 1168.02,-201.8 1162.02,-201.8"/>
<text xml:space="preserve" text-anchor="middle" x="1144" y="-178" font-family="Helvetica,sans-Serif" font-size="14.00">Notifier</text>
</g>
<!-- lc_event&#45;&gt;lc_notifier -->
<!-- lc_storage&#45;&gt;lc_rel_config -->
<!-- lc_backup -->
<g id="node20" class="node">
<title>lc_backup</title>
<path fill="#87ceeb" stroke="#0066cc" stroke-width="2" d="M546.14,-201.8C546.14,-201.8 423.86,-201.8 423.86,-201.8 417.86,-201.8 411.86,-195.8 411.86,-189.8 411.86,-189.8 411.86,-177.8 411.86,-177.8 411.86,-171.8 417.86,-165.8 423.86,-165.8 423.86,-165.8 546.14,-165.8 546.14,-165.8 552.14,-165.8 558.14,-171.8 558.14,-177.8 558.14,-177.8 558.14,-189.8 558.14,-189.8 558.14,-195.8 552.14,-201.8 546.14,-201.8"/>
<text xml:space="preserve" text-anchor="middle" x="485" y="-178" font-family="Helvetica,sans-Serif" font-size="14.00">Backup Management</text>
</g>
<!-- lc_rel_config&#45;&gt;lc_backup -->
<!-- lc_backup&#45;&gt;do_spaces -->
<g id="edge22" class="edge">
<title>lc_backup&#45;&gt;do_spaces</title>
<path fill="none" stroke="#0066cc" stroke-width="2" d="M485,-165.1C485,-165.1 485,-55.36 485,-55.36"/>
<polygon fill="#0066cc" stroke="#0066cc" stroke-width="2" points="488.5,-55.36 485,-45.36 481.5,-55.36 488.5,-55.36"/>
<text xml:space="preserve" text-anchor="middle" x="446.75" y="-123.23" font-family="Helvetica,sans-Serif" font-size="10.00">S3&#45;compatible</text>
<text xml:space="preserve" text-anchor="middle" x="446.75" y="-111.98" font-family="Helvetica,sans-Serif" font-size="10.00">backup exchange</text>
</g>
</g>
</svg>
